{"glyphs":{"0":{"ha":1358,"x_min":50,"x_max":1307,"o":"m 678 1003 q 1146 875 985 1003 q 1307 486 1307 747 q 1146 97 1307 225 q 678 -31 985 -31 q 211 97 372 -31 q 50 486 50 225 q 211 875 50 747 q 678 1003 372 1003 m 678 203 q 898 276 825 203 q 971 486 971 349 q 898 697 971 624 q 678 769 825 769 q 459 697 532 769 q 386 486 386 624 q 459 276 386 349 q 678 203 532 203 z "},"1":{"ha":758,"x_min":22,"x_max":676,"o":"m 676 0 l 357 0 l 357 581 l 22 581 l 22 790 l 93 790 q 305 836 235 790 q 406 972 375 882 l 676 972 l 676 0 z "},"2":{"ha":1283,"x_min":40,"x_max":1224,"o":"m 565 303 q 455 265 497 288 q 399 221 413 243 l 1222 221 l 1222 0 l 40 0 l 40 31 q 104 271 40 176 q 262 415 168 365 q 478 500 356 465 l 701 565 q 831 619 793 592 q 869 692 869 646 q 818 764 869 742 q 665 786 767 786 q 492 751 556 786 q 415 635 429 715 l 56 635 q 211 917 69 831 q 644 1003 353 1003 q 967 975 840 1003 q 1158 882 1093 947 q 1224 703 1224 817 q 1180 542 1224 606 q 1057 440 1136 479 q 854 371 978 400 l 565 303 z "},"3":{"ha":1285,"x_min":29,"x_max":1240,"o":"m 1051 506 q 1192 431 1144 485 q 1240 278 1240 378 q 1183 99 1240 165 q 993 1 1125 32 q 631 -31 861 -31 q 281 5 410 -31 q 94 115 153 40 q 29 318 36 190 l 383 318 q 454 218 394 249 q 636 188 514 188 q 826 210 765 188 q 886 292 886 233 q 842 376 886 351 q 701 400 797 400 l 481 400 l 481 593 l 710 593 q 833 617 792 593 q 874 694 874 642 q 813 769 874 747 q 632 790 753 790 q 469 762 525 790 q 401 672 414 733 l 63 672 q 131 864 71 792 q 313 969 192 936 q 631 1003 435 1003 q 965 975 839 1003 q 1150 885 1090 947 q 1210 714 1210 822 q 1169 578 1210 628 q 1051 514 1128 528 l 1051 506 z "},"4":{"ha":1256,"x_min":26,"x_max":1221,"o":"m 26 192 l 26 424 l 650 972 l 1042 972 l 1042 399 l 1221 399 l 1221 192 l 1042 192 l 1042 0 l 732 0 l 732 192 l 26 192 m 732 733 l 725 733 l 354 407 l 354 399 l 732 399 l 732 733 z "},"5":{"ha":1278,"x_min":46,"x_max":1232,"o":"m 1161 765 l 386 765 l 378 619 l 386 619 q 510 661 440 644 q 694 678 581 678 q 1005 643 888 678 q 1177 532 1122 608 q 1232 329 1232 456 q 1174 123 1232 201 q 986 7 1117 44 q 636 -31 856 -31 q 294 5 421 -31 q 109 110 167 40 q 46 290 51 181 l 400 290 q 467 213 413 238 q 636 188 521 188 q 826 219 768 188 q 883 326 883 250 q 826 433 883 401 q 640 465 769 465 q 411 425 488 465 l 76 425 l 108 972 l 1161 972 l 1161 765 z "},"6":{"ha":1308,"x_min":50,"x_max":1261,"o":"m 714 632 q 1131 556 1000 632 q 1261 315 1261 481 q 1122 56 1261 143 q 674 -31 982 -31 q 312 21 447 -31 q 113 185 176 72 q 50 483 50 297 q 196 875 50 747 q 668 1003 342 1003 q 1106 913 972 1003 q 1253 693 1240 824 l 897 693 q 667 794 860 794 q 458 744 529 794 q 379 563 388 694 l 389 563 q 524 615 438 597 q 714 632 611 632 m 663 432 q 467 402 531 432 q 403 306 403 372 q 467 207 403 238 q 663 176 531 176 q 853 206 793 176 q 913 306 913 236 q 852 402 913 372 q 663 432 792 432 z "},"7":{"ha":1214,"x_min":22,"x_max":1181,"o":"m 1181 972 l 1181 851 q 1163 747 1181 790 q 1107 651 1144 704 q 1031 560 1075 608 q 974 496 988 511 q 841 342 892 407 q 751 190 790 276 q 703 0 713 104 l 286 0 q 363 240 297 126 q 513 441 428 353 q 731 644 599 529 q 818 724 818 724 l 818 732 l 22 731 l 22 972 l 1181 972 z "},"8":{"ha":1326,"x_min":50,"x_max":1275,"o":"m 663 1003 q 1003 974 874 1003 q 1194 883 1132 946 q 1256 714 1256 819 q 1086 514 1256 560 l 1086 506 q 1228 430 1181 485 q 1275 269 1275 375 q 1215 96 1275 161 q 1020 0 1154 31 q 663 -31 886 -31 q 306 0 439 -31 q 111 96 172 31 q 50 269 50 161 q 97 430 50 375 q 239 506 144 485 l 239 514 q 71 714 71 560 q 132 883 71 819 q 322 974 193 946 q 663 1003 451 1003 m 663 792 q 469 769 531 792 q 408 690 408 746 q 469 613 408 636 q 663 590 531 590 q 856 613 796 590 q 917 690 917 636 q 856 769 917 746 q 663 792 794 792 m 663 179 q 860 203 801 179 q 919 290 919 228 q 860 377 919 353 q 663 401 801 401 q 465 377 524 401 q 406 290 406 353 q 465 203 406 228 q 663 179 524 179 z "},"9":{"ha":1313,"x_min":50,"x_max":1261,"o":"m 597 340 q 181 416 311 340 q 50 657 50 492 q 190 916 50 829 q 636 1003 329 1003 q 999 951 863 1003 q 1198 788 1135 900 q 1261 489 1261 676 q 1115 98 1261 226 q 643 -31 969 -31 q 205 59 339 -31 q 58 279 71 149 l 413 279 q 644 178 453 178 q 852 228 782 178 q 931 410 922 279 l 922 410 q 784 358 871 376 q 597 340 697 340 m 647 542 q 844 571 781 542 q 907 667 907 600 q 843 765 907 735 q 647 796 779 796 q 458 766 518 796 q 399 667 399 736 q 459 571 399 600 q 647 542 519 542 z "},"\r":{"ha":188,"x_min":0,"x_max":0,"o":""}," ":{"ha":499,"x_min":0,"x_max":0,"o":""},"!":{"ha":533,"x_min":88,"x_max":446,"o":"m 136 350 l 88 829 l 88 992 l 446 992 l 446 829 l 399 350 l 136 350 m 104 274 l 431 274 l 431 0 l 104 0 l 104 274 z "},"\"":{"ha":724,"x_min":47,"x_max":676,"o":"m 47 508 l 47 992 l 293 992 l 293 508 l 47 508 m 431 508 l 431 992 l 676 992 l 676 508 l 431 508 z "},"#":{"ha":1090,"x_min":25,"x_max":1064,"o":"m 857 572 l 815 400 l 989 400 l 950 251 l 779 251 l 718 0 l 522 0 l 585 251 l 392 251 l 331 0 l 135 0 l 197 251 l 25 251 l 64 400 l 233 400 l 275 572 l 101 572 l 139 722 l 311 722 l 372 972 l 568 972 l 507 722 l 699 722 l 760 972 l 954 972 l 893 722 l 1064 722 l 1025 572 l 857 572 m 663 572 l 471 572 l 428 400 l 621 400 l 663 572 z "},"$":{"ha":1271,"x_min":28,"x_max":1226,"o":"m 1226 307 q 1163 114 1226 183 q 980 16 1100 44 q 668 -15 860 -12 l 668 -161 l 572 -161 l 572 -15 q 276 19 392 -11 q 97 124 160 50 q 28 329 33 199 l 376 329 q 436 228 389 260 q 572 192 483 197 l 572 386 l 389 404 q 136 485 221 421 q 51 683 51 549 q 184 914 51 844 q 572 988 317 983 l 572 1101 l 668 1101 l 668 988 q 1053 912 921 982 q 1193 674 1186 842 l 847 674 q 793 752 838 725 q 668 786 749 779 l 668 617 l 893 596 q 1143 514 1060 582 q 1226 307 1226 446 m 572 625 l 572 788 q 437 763 478 785 q 396 700 396 740 q 424 651 396 667 q 519 629 453 636 l 572 625 m 668 190 q 824 215 775 192 q 872 285 872 239 q 840 344 872 325 q 750 368 808 363 l 668 376 l 668 190 z "},"%":{"ha":1610,"x_min":46,"x_max":1564,"o":"m 364 992 q 605 923 528 992 q 682 708 682 854 q 605 494 682 563 q 364 425 528 425 q 124 494 201 425 q 46 708 46 563 q 124 923 46 854 q 364 992 201 992 m 1207 972 l 579 0 l 403 0 l 1031 972 l 1207 972 m 364 572 q 441 603 414 572 q 468 708 468 635 q 441 813 468 782 q 364 843 414 843 q 287 813 314 843 q 260 708 260 782 q 287 603 260 635 q 364 572 314 572 m 1246 547 q 1487 478 1410 547 q 1564 264 1564 410 q 1487 49 1564 118 q 1246 -19 1410 -19 q 1006 49 1083 -19 q 928 264 928 118 q 1006 478 928 410 q 1246 547 1083 547 m 1246 128 q 1323 159 1296 128 q 1350 264 1350 190 q 1323 368 1350 338 q 1246 399 1296 399 q 1169 368 1196 399 q 1142 264 1142 338 q 1169 159 1142 190 q 1246 128 1196 128 z "},"&":{"ha":1426,"x_min":50,"x_max":1424,"o":"m 1014 0 l 951 51 q 601 -19 793 -19 q 191 50 332 -19 q 50 279 50 119 q 106 444 50 383 q 282 543 163 506 l 333 560 q 233 665 261 621 q 206 774 206 708 q 317 954 206 894 q 657 1014 429 1014 q 1114 774 1114 1014 q 1065 649 1114 697 q 922 567 1015 601 l 786 517 l 958 378 q 993 525 993 450 l 1282 525 q 1168 207 1282 343 l 1424 0 l 1014 0 m 619 651 l 690 674 q 767 711 742 690 q 793 761 793 732 q 761 818 793 796 q 657 840 729 840 q 556 818 588 840 q 525 760 525 796 q 543 720 525 740 q 608 661 561 700 l 619 651 m 604 171 q 768 201 694 171 l 511 414 q 424 361 454 393 q 393 288 393 329 q 447 203 393 236 q 604 171 500 171 z "},"'":{"ha":340,"x_min":47,"x_max":293,"o":"m 47 508 l 47 992 l 293 992 l 293 508 l 47 508 z "},"(":{"ha":603,"x_min":28,"x_max":589,"o":"m 361 394 q 401 116 361 247 q 494 -107 440 -15 q 589 -239 547 -199 l 311 -239 q 283 -210 304 -231 q 166 -72 218 -142 q 71 118 114 -1 q 28 394 28 238 q 71 671 28 551 q 167 862 114 790 q 283 999 219 933 q 311 1028 304 1019 l 589 1028 q 494 896 547 988 q 401 673 440 804 q 361 394 361 542 z "},")":{"ha":603,"x_min":14,"x_max":575,"o":"m 242 394 q 202 116 242 247 q 109 -107 163 -15 q 14 -239 56 -199 l 292 -239 q 319 -210 299 -231 q 437 -72 385 -142 q 532 118 489 -1 q 575 394 575 238 q 532 671 575 551 q 436 862 489 790 q 319 999 383 933 q 292 1028 299 1019 l 14 1028 q 109 896 56 988 q 202 673 163 804 q 242 394 242 542 z "},"*":{"ha":732,"x_min":39,"x_max":692,"o":"m 506 668 l 692 554 l 596 415 l 451 526 l 453 347 l 276 347 l 279 526 l 135 415 l 39 554 l 225 668 l 39 785 l 135 921 l 279 814 l 276 992 l 453 992 l 451 814 l 596 921 l 692 785 l 506 668 z "},"+":{"ha":904,"x_min":85,"x_max":818,"o":"m 818 354 l 556 354 l 556 85 l 349 85 l 349 354 l 85 354 l 85 551 l 349 551 l 349 818 l 556 818 l 556 551 l 818 551 l 818 354 z "},",":{"ha":493,"x_min":76,"x_max":417,"o":"m 417 74 q 335 -197 417 -117 q 76 -278 253 -278 l 76 -165 q 185 -118 150 -165 q 219 0 219 -71 l 76 0 l 76 290 l 417 290 l 417 74 z "},"-":{"ha":663,"x_min":61,"x_max":601,"o":"m 61 290 l 61 513 l 601 513 l 601 290 l 61 290 z "},".":{"ha":493,"x_min":76,"x_max":417,"o":"m 76 290 l 417 290 l 417 0 l 76 0 l 76 290 z "},"/":{"ha":729,"x_min":28,"x_max":703,"o":"m 703 992 l 268 0 l 28 0 l 463 992 l 703 992 z "},":":{"ha":478,"x_min":76,"x_max":401,"o":"m 76 750 l 401 750 l 401 476 l 76 476 l 76 750 m 76 274 l 401 274 l 401 0 l 76 0 l 76 274 z "},";":{"ha":478,"x_min":76,"x_max":401,"o":"m 76 750 l 401 750 l 401 476 l 76 476 l 76 750 m 401 74 q 322 -196 401 -114 q 76 -278 242 -278 l 76 -165 q 172 -117 140 -165 q 204 0 204 -69 l 76 0 l 76 274 l 401 274 l 401 74 z "},"<":{"ha":904,"x_min":86,"x_max":819,"o":"m 86 367 l 819 72 l 819 278 l 393 443 l 393 451 l 819 617 l 819 822 l 86 528 l 86 367 z "},"=":{"ha":904,"x_min":85,"x_max":818,"o":"m 818 508 l 85 508 l 85 704 l 818 704 l 818 508 m 818 199 l 85 199 l 85 394 l 818 394 l 818 199 z "},">":{"ha":904,"x_min":85,"x_max":818,"o":"m 818 367 l 85 72 l 85 278 l 511 443 l 511 451 l 85 617 l 85 822 l 818 528 l 818 367 z "},"?":{"ha":1167,"x_min":35,"x_max":1132,"o":"m 35 663 q 104 874 38 797 q 292 983 171 951 q 596 1014 414 1014 q 999 949 865 1014 q 1132 735 1132 883 q 1084 594 1132 644 q 942 503 1036 543 l 851 465 q 767 414 789 438 q 742 363 744 390 l 740 347 l 435 347 l 435 376 q 472 502 435 457 q 603 590 510 547 l 697 633 q 767 675 746 657 q 789 719 789 693 q 599 801 789 801 q 445 770 503 801 q 375 663 388 739 l 35 663 m 425 267 l 751 267 l 751 0 l 425 0 l 425 267 z "},"@":{"ha":1476,"x_min":50,"x_max":1428,"o":"m 1071 683 l 986 251 q 983 233 983 238 q 992 211 983 218 q 1021 204 1000 204 q 1176 271 1113 204 q 1240 490 1240 338 q 1180 703 1240 613 q 1008 844 1119 794 q 751 893 897 893 q 491 822 610 893 q 303 626 372 751 q 235 347 235 501 q 293 99 235 206 q 462 -65 351 -7 q 724 -122 572 -122 q 912 -98 828 -122 q 1081 -18 996 -74 l 1296 -18 q 1063 -201 1215 -128 q 718 -274 910 -274 q 364 -194 515 -274 q 131 27 213 -115 q 50 354 50 169 q 144 707 50 549 q 400 956 238 865 q 757 1046 563 1046 q 1099 976 946 1046 q 1340 786 1253 907 q 1428 518 1428 665 q 1365 265 1428 367 q 1203 115 1303 163 q 990 67 1103 67 q 821 144 846 67 l 813 144 q 723 84 772 101 q 613 67 674 67 q 440 133 504 67 q 375 314 375 199 q 404 476 375 396 q 488 611 433 557 q 580 676 531 654 q 696 699 629 699 q 800 676 757 699 q 860 611 843 653 l 868 611 l 882 683 l 1071 683 m 739 560 q 629 499 675 560 q 585 414 600 461 q 571 321 571 367 q 597 235 571 264 q 671 207 624 207 q 781 267 736 207 q 824 351 810 304 q 839 444 839 399 q 812 531 839 501 q 739 560 785 560 z "},"A":{"ha":1419,"x_min":3,"x_max":1417,"o":"m 990 157 l 428 157 l 353 0 l 3 0 l 504 992 l 919 992 l 1417 0 l 1067 0 l 990 157 m 881 386 l 713 731 l 704 731 l 539 386 l 881 386 z "},"B":{"ha":1358,"x_min":81,"x_max":1308,"o":"m 1135 532 q 1262 456 1215 513 q 1308 290 1308 400 q 1226 72 1308 144 q 958 0 1143 0 l 81 0 l 81 992 l 935 992 q 1272 735 1272 992 q 1135 540 1272 581 l 1135 532 m 826 601 q 904 622 879 601 q 929 688 929 643 q 904 753 929 733 q 826 774 879 774 l 397 774 l 397 601 l 826 601 m 846 214 q 933 238 906 214 q 960 313 960 263 q 933 388 960 364 q 846 411 907 411 l 397 411 l 397 214 l 846 214 z "},"C":{"ha":1435,"x_min":50,"x_max":1385,"o":"m 1004 604 q 967 685 999 646 q 873 749 935 724 q 724 775 811 775 q 480 703 563 775 q 397 496 397 631 q 480 289 397 361 q 724 217 563 217 q 925 271 856 217 q 1003 408 994 325 l 1385 408 q 1210 81 1379 193 q 725 -32 1042 -32 q 224 99 399 -32 q 50 496 50 231 q 224 892 50 761 q 725 1024 399 1024 q 1207 915 1039 1024 q 1382 604 1375 806 l 1004 604 z "},"D":{"ha":1375,"x_min":81,"x_max":1325,"o":"m 769 992 q 1187 875 1049 992 q 1325 496 1325 758 q 1188 116 1325 232 q 769 0 1050 0 l 81 0 l 81 992 l 769 992 m 397 749 l 397 243 l 697 243 q 908 303 838 243 q 978 496 978 363 q 908 689 978 629 q 697 749 838 749 l 397 749 z "},"E":{"ha":1228,"x_min":81,"x_max":1168,"o":"m 397 613 l 1122 613 l 1122 403 l 397 403 l 397 228 l 1168 228 l 1168 0 l 81 0 l 81 992 l 1153 992 l 1153 765 l 397 765 l 397 613 z "},"F":{"ha":1208,"x_min":81,"x_max":1157,"o":"m 397 749 l 397 563 l 1124 563 l 1124 336 l 397 336 l 397 0 l 81 0 l 81 992 l 1157 992 l 1157 749 l 397 749 z "},"G":{"ha":1471,"x_min":50,"x_max":1393,"o":"m 1393 0 l 1169 0 l 1169 114 q 995 3 1100 39 q 747 -32 890 -32 q 228 99 406 -32 q 50 496 50 229 q 226 893 50 763 q 738 1024 403 1024 q 1215 922 1054 1024 q 1389 646 1376 821 l 1011 646 q 936 733 997 692 q 738 775 875 775 q 482 703 567 775 q 397 496 397 631 q 749 207 397 207 q 915 231 850 207 q 1010 288 981 256 q 1042 349 1040 321 l 774 349 l 774 553 l 1393 553 l 1393 0 z "},"H":{"ha":1385,"x_min":81,"x_max":1304,"o":"m 1304 992 l 1304 0 l 988 0 l 988 383 l 397 383 l 397 0 l 81 0 l 81 992 l 397 992 l 397 628 l 988 628 l 988 992 l 1304 992 z "},"I":{"ha":478,"x_min":81,"x_max":397,"o":"m 81 0 l 81 992 l 397 992 l 397 0 l 81 0 z "},"J":{"ha":1274,"x_min":38,"x_max":1193,"o":"m 1193 431 q 1123 153 1193 254 q 926 10 1053 51 q 613 -32 799 -32 q 301 10 426 -32 q 106 153 175 51 q 38 431 38 254 l 38 507 l 354 507 l 354 429 q 422 268 354 317 q 613 219 489 219 q 876 429 876 219 l 876 992 l 1193 992 l 1193 431 z "},"K":{"ha":1364,"x_min":81,"x_max":1360,"o":"m 1360 0 l 961 0 l 619 446 l 397 267 l 397 0 l 81 0 l 81 992 l 397 992 l 397 589 l 879 992 l 1296 992 l 858 639 l 1360 0 z "},"L":{"ha":1206,"x_min":81,"x_max":1157,"o":"m 81 0 l 81 992 l 397 992 l 397 251 l 1157 251 l 1157 0 l 81 0 z "},"M":{"ha":1642,"x_min":81,"x_max":1561,"o":"m 1561 0 l 1244 0 l 1244 701 l 1236 701 l 940 0 l 693 0 l 390 711 l 382 711 l 382 0 l 81 0 l 81 992 l 578 992 l 814 399 l 822 399 l 1054 992 l 1561 992 l 1561 0 z "},"N":{"ha":1385,"x_min":81,"x_max":1304,"o":"m 1304 992 l 1304 0 l 939 0 l 390 626 l 382 626 l 382 0 l 81 0 l 81 992 l 453 992 l 993 375 l 1001 375 l 1001 992 l 1304 992 z "},"O":{"ha":1476,"x_min":50,"x_max":1426,"o":"m 738 1024 q 1249 893 1072 1024 q 1426 496 1426 763 q 1249 99 1426 229 q 738 -32 1072 -32 q 226 99 403 -32 q 50 496 50 229 q 226 893 50 763 q 738 1024 403 1024 m 738 217 q 994 289 910 217 q 1079 496 1079 361 q 994 703 1079 631 q 738 775 910 775 q 482 703 567 775 q 397 496 397 631 q 482 289 397 361 q 738 217 567 217 z "},"P":{"ha":1321,"x_min":81,"x_max":1283,"o":"m 892 992 q 1192 910 1100 992 q 1283 657 1283 828 q 1192 403 1283 485 q 892 322 1100 322 l 397 322 l 397 0 l 81 0 l 81 992 l 892 992 m 811 542 q 905 568 875 542 q 935 649 935 594 q 906 730 935 704 q 811 756 876 756 l 397 756 l 397 542 l 811 542 z "},"Q":{"ha":1476,"x_min":50,"x_max":1426,"o":"m 1426 496 q 1149 39 1426 163 l 1215 -72 l 1018 -151 l 939 -19 q 738 -32 847 -32 q 226 99 403 -32 q 50 496 50 229 q 226 893 50 763 q 738 1024 403 1024 q 1249 893 1072 1024 q 1426 496 1426 763 m 997 292 q 1079 496 1079 364 q 994 703 1079 631 q 738 775 910 775 q 482 703 567 775 q 397 496 397 631 q 482 289 397 361 q 738 217 567 217 q 796 219 760 217 l 718 350 l 914 432 l 997 292 z "},"R":{"ha":1365,"x_min":81,"x_max":1339,"o":"m 1339 0 l 971 0 l 781 318 l 397 318 l 397 0 l 81 0 l 81 992 l 925 992 q 1222 911 1131 992 q 1314 665 1314 831 q 1258 474 1314 539 q 1100 385 1203 410 l 1100 374 l 1339 0 m 849 543 q 937 568 910 543 q 964 644 964 593 q 937 720 964 696 q 849 744 910 744 l 397 744 l 397 543 l 849 543 z "},"S":{"ha":1335,"x_min":28,"x_max":1290,"o":"m 890 693 q 815 785 878 758 q 635 813 753 813 q 466 790 517 813 q 415 722 415 767 q 446 669 415 686 q 546 646 476 653 l 940 613 q 1203 525 1115 597 q 1290 307 1290 453 q 1218 99 1290 172 q 1009 -3 1146 25 q 654 -32 872 -32 q 312 -1 444 -32 q 106 108 179 29 q 28 331 33 186 l 394 331 q 475 214 410 244 q 671 183 540 183 q 858 208 800 183 q 917 283 917 232 q 883 347 917 326 q 789 372 850 367 l 407 410 q 141 494 229 428 q 53 704 53 561 q 204 952 53 881 q 649 1024 356 1024 q 1095 951 942 1024 q 1256 693 1249 878 l 890 693 z "},"T":{"ha":1274,"x_min":38,"x_max":1236,"o":"m 1236 738 l 796 738 l 796 0 l 479 0 l 479 738 l 38 738 l 38 992 l 1236 992 l 1236 738 z "},"U":{"ha":1378,"x_min":81,"x_max":1297,"o":"m 1297 992 l 1297 425 q 1224 152 1297 253 q 1018 10 1151 51 q 689 -32 885 -32 q 360 10 493 -32 q 153 152 226 51 q 81 425 81 253 l 81 992 l 397 992 l 397 431 q 473 267 397 315 q 689 219 549 219 q 905 267 829 219 q 981 431 981 315 l 981 992 l 1297 992 z "},"V":{"ha":1338,"x_min":-3,"x_max":1340,"o":"m 664 342 l 672 342 l 967 992 l 1340 992 l 853 0 l 485 0 l -3 992 l 369 992 l 664 342 z "},"W":{"ha":1746,"x_min":1,"x_max":1744,"o":"m 1050 0 l 878 628 l 869 628 l 697 0 l 306 0 l 1 992 l 349 992 l 518 354 l 526 354 l 699 992 l 1047 992 l 1222 354 l 1231 354 l 1400 992 l 1744 992 l 1436 0 l 1050 0 z "},"X":{"ha":1354,"x_min":-1,"x_max":1354,"o":"m 1354 0 l 939 0 l 676 310 l 414 0 l -1 0 l 468 525 l 50 992 l 453 992 l 678 719 l 903 992 l 1304 992 l 885 525 l 1354 0 z "},"Y":{"ha":1325,"x_min":-6,"x_max":1331,"o":"m 821 331 l 821 0 l 504 0 l 504 329 l -6 992 l 378 992 l 663 593 l 949 992 l 1331 992 l 821 331 z "},"Z":{"ha":1257,"x_min":51,"x_max":1196,"o":"m 550 251 l 1196 251 l 1196 0 l 51 0 l 51 240 l 697 740 l 88 740 l 88 992 l 1196 992 l 1196 751 l 550 251 z "},"[":{"ha":628,"x_min":81,"x_max":589,"o":"m 383 -47 l 589 -47 l 589 -239 l 81 -239 l 81 1028 l 589 1028 l 589 836 l 383 836 l 383 -47 z "},"\\":{"ha":729,"x_min":26,"x_max":701,"o":"m 701 0 l 461 0 l 26 992 l 267 992 l 701 0 z "},"]":{"ha":628,"x_min":39,"x_max":547,"o":"m 244 -47 l 39 -47 l 39 -239 l 547 -239 l 547 1028 l 39 1028 l 39 836 l 244 836 l 244 -47 z "},"^":{"ha":844,"x_min":39,"x_max":806,"o":"m 806 490 l 586 490 l 426 788 l 418 788 l 258 490 l 39 490 l 314 972 l 531 972 l 806 490 z "},"_":{"ha":1231,"x_min":-3,"x_max":1233,"o":"m 1233 -229 l -3 -229 l -3 -146 l 1233 -146 l 1233 -229 z "},"`":{"ha":692,"x_min":81,"x_max":611,"o":"m 500 1039 l 611 833 l 344 833 l 81 1039 l 500 1039 z "},"a":{"ha":1167,"x_min":40,"x_max":1119,"o":"m 1100 121 q 1103 53 1100 81 q 1119 8 1107 25 l 1119 0 l 814 0 q 800 31 806 10 q 794 76 794 51 l 794 103 q 403 -31 682 -31 q 142 30 243 -31 q 40 217 40 90 q 107 392 40 338 q 299 457 174 447 l 693 490 q 756 505 736 493 q 775 542 775 517 q 738 585 775 571 q 615 600 700 600 q 485 583 531 600 q 429 524 440 565 l 93 524 q 228 726 99 671 q 601 781 357 781 q 877 763 771 781 q 1042 692 983 744 q 1100 543 1100 640 l 1100 121 m 789 353 q 757 341 778 346 q 715 333 736 336 l 472 303 q 392 277 418 296 q 365 221 365 258 q 399 163 365 181 q 504 146 433 146 q 706 190 622 146 q 789 326 789 233 l 789 353 z "},"b":{"ha":1224,"x_min":69,"x_max":1179,"o":"m 389 664 q 524 742 449 715 q 708 769 600 769 q 1057 667 935 769 q 1179 369 1179 564 q 1057 72 1179 175 q 708 -31 935 -31 q 521 -1 599 -31 q 383 85 443 28 l 375 85 l 375 0 l 69 0 l 69 1006 l 381 1006 l 381 664 l 389 664 m 617 185 q 797 232 740 185 q 854 369 854 279 q 797 507 854 460 q 617 554 740 554 q 433 506 494 554 q 372 369 372 457 q 433 233 372 282 q 617 185 494 185 z "},"c":{"ha":1214,"x_min":46,"x_max":1168,"o":"m 603 185 q 758 217 711 185 q 817 297 806 249 l 1168 297 q 1023 56 1153 142 q 603 -31 893 -31 q 46 375 46 -31 q 603 781 46 781 q 1020 696 892 781 q 1167 458 1149 611 l 818 458 q 756 535 803 506 q 603 565 710 565 q 371 375 371 565 q 603 185 371 185 z "},"d":{"ha":1224,"x_min":46,"x_max":1154,"o":"m 843 664 l 843 1006 l 1154 1006 l 1154 0 l 849 0 l 849 85 l 840 85 q 703 -1 781 28 q 515 -31 625 -31 q 167 72 289 -31 q 46 369 46 175 q 167 667 46 564 q 515 769 289 769 q 699 742 624 769 q 835 664 775 715 l 843 664 m 607 185 q 791 233 729 185 q 853 369 853 282 q 791 506 853 457 q 607 554 729 554 q 427 507 483 554 q 371 369 371 460 q 427 232 371 279 q 607 185 483 185 z "},"e":{"ha":1214,"x_min":46,"x_max":1168,"o":"m 1168 375 q 1165 304 1168 343 l 372 304 q 440 192 383 228 q 610 156 496 156 q 758 181 714 156 q 814 233 803 206 l 1158 233 q 1028 42 1149 115 q 610 -31 908 -31 q 46 375 46 -31 q 607 781 46 781 q 1031 676 893 781 q 1168 375 1168 572 m 607 596 q 451 567 507 596 q 378 476 396 538 l 835 476 q 763 567 818 538 q 607 596 707 596 z "},"f":{"ha":769,"x_min":22,"x_max":738,"o":"m 642 847 q 516 831 551 847 q 481 769 481 814 l 482 750 l 719 750 l 719 569 l 482 569 l 482 0 l 171 0 l 171 569 l 22 569 l 22 750 l 171 750 l 171 801 q 269 992 171 939 q 574 1044 368 1044 q 738 1035 676 1044 l 738 843 q 642 847 667 847 z "},"g":{"ha":1213,"x_min":46,"x_max":1143,"o":"m 1143 750 l 1143 46 q 1105 -143 1143 -76 q 953 -242 1067 -210 q 607 -274 839 -274 q 270 -241 386 -274 q 113 -152 154 -208 q 64 -4 71 -96 l 411 -4 q 435 -48 419 -31 q 493 -76 451 -65 q 613 -87 535 -87 q 753 -74 707 -87 q 816 -33 800 -61 q 832 46 832 -6 l 832 160 l 824 160 q 508 58 714 58 q 165 149 283 58 q 46 414 46 239 q 165 679 46 589 q 508 769 283 769 q 829 663 719 769 l 838 663 l 838 750 l 1143 750 m 600 267 q 780 306 721 267 q 839 414 839 344 q 780 522 839 483 q 600 561 721 561 q 426 524 481 561 q 371 414 371 486 q 426 304 371 342 q 600 267 481 267 z "},"h":{"ha":1186,"x_min":69,"x_max":1117,"o":"m 742 769 q 1015 697 914 769 q 1117 481 1117 625 l 1117 0 l 806 0 l 806 382 q 613 531 806 531 q 448 485 515 531 q 381 339 381 440 l 381 0 l 69 0 l 69 1006 l 381 1006 l 381 656 l 389 656 q 742 769 515 769 z "},"i":{"ha":450,"x_min":67,"x_max":383,"o":"m 69 750 l 381 750 l 381 0 l 69 0 l 69 750 m 67 1011 l 383 1011 l 383 839 l 67 839 l 67 1011 z "},"j":{"ha":454,"x_min":-119,"x_max":388,"o":"m -28 -29 q 49 -17 25 -29 q 74 32 74 -4 l 74 750 l 385 750 l 385 -44 q 352 -186 385 -137 q 244 -254 319 -235 q 29 -274 168 -274 q -119 -268 -71 -274 l -119 -28 l -28 -29 m 71 1011 l 388 1011 l 388 839 l 71 839 l 71 1011 z "},"k":{"ha":1128,"x_min":69,"x_max":1125,"o":"m 1125 0 l 739 0 l 493 282 l 381 193 l 381 0 l 69 0 l 69 1006 l 381 1006 l 381 485 l 701 750 l 1090 750 l 715 454 l 1125 0 z "},"l":{"ha":450,"x_min":69,"x_max":381,"o":"m 69 1006 l 381 1006 l 381 0 l 69 0 l 69 1006 z "},"m":{"ha":1764,"x_min":69,"x_max":1694,"o":"m 375 651 l 383 651 q 522 740 435 711 q 708 769 608 769 q 890 742 815 769 q 1006 649 965 714 q 1156 740 1064 711 q 1357 769 1247 769 q 1601 697 1508 769 q 1694 481 1694 624 l 1694 0 l 1383 0 l 1383 401 q 1342 499 1383 467 q 1226 531 1301 531 q 1093 492 1149 531 q 1038 364 1038 453 l 1038 0 l 726 0 l 726 401 q 685 499 726 467 q 569 531 644 531 q 436 492 492 531 q 381 364 381 453 l 381 0 l 69 0 l 69 750 l 375 750 l 375 651 z "},"n":{"ha":1186,"x_min":69,"x_max":1117,"o":"m 375 656 l 383 656 q 540 742 451 714 q 742 769 628 769 q 1015 697 914 769 q 1117 481 1117 625 l 1117 0 l 806 0 l 806 382 q 613 531 806 531 q 449 485 517 531 q 381 339 381 440 l 381 0 l 69 0 l 69 750 l 375 750 l 375 656 z "},"o":{"ha":1214,"x_min":46,"x_max":1168,"o":"m 607 781 q 1168 375 1168 781 q 607 -31 1168 -31 q 46 375 46 -31 q 607 781 46 781 m 607 185 q 843 375 843 185 q 787 517 843 468 q 607 565 731 565 q 427 517 483 565 q 371 375 371 468 q 607 185 371 185 z "},"p":{"ha":1224,"x_min":69,"x_max":1179,"o":"m 381 75 l 381 -254 l 69 -254 l 69 750 l 375 750 l 375 654 l 383 654 q 519 740 440 711 q 707 769 597 769 q 1057 667 935 769 q 1179 369 1179 564 q 1057 72 1179 175 q 707 -31 935 -31 q 523 -3 599 -31 q 389 75 447 24 l 381 75 m 615 554 q 433 506 493 554 q 372 369 372 457 q 433 233 372 282 q 615 185 493 185 q 797 232 740 185 q 854 369 854 279 q 797 507 854 460 q 615 554 740 554 z "},"q":{"ha":1224,"x_min":46,"x_max":1154,"o":"m 835 75 q 701 -3 776 24 q 517 -31 625 -31 q 167 72 289 -31 q 46 369 46 175 q 167 667 46 564 q 517 769 289 769 q 705 740 626 769 q 840 654 783 711 l 849 654 l 849 750 l 1154 750 l 1154 -254 l 843 -254 l 843 75 l 835 75 m 608 554 q 427 507 483 554 q 371 369 371 460 q 427 232 371 279 q 608 185 483 185 q 792 233 731 185 q 853 369 853 282 q 792 506 853 457 q 608 554 731 554 z "},"r":{"ha":888,"x_min":69,"x_max":856,"o":"m 375 750 l 375 649 l 383 649 q 542 741 450 713 q 767 769 633 769 q 856 764 811 769 l 856 472 q 707 486 786 486 q 472 437 563 486 q 381 249 381 388 l 381 0 l 69 0 l 69 750 l 375 750 z "},"s":{"ha":1168,"x_min":26,"x_max":1124,"o":"m 750 529 q 688 590 738 572 q 544 607 639 607 q 419 592 456 607 q 382 549 382 578 q 401 516 382 525 q 472 501 421 507 l 832 472 q 1053 406 983 458 q 1124 228 1124 353 q 1064 66 1124 122 q 888 -10 1004 10 q 576 -31 772 -31 q 276 -10 392 -31 q 96 69 161 10 q 26 240 31 128 l 376 240 q 440 167 392 186 q 596 147 488 147 q 739 163 700 147 q 778 213 778 179 q 759 249 778 239 q 692 265 740 260 l 356 299 q 126 365 201 314 q 50 532 50 417 q 108 688 50 633 q 274 761 167 742 q 556 781 382 781 q 843 760 728 781 q 1024 684 958 739 q 1093 529 1089 629 l 750 529 z "},"t":{"ha":760,"x_min":14,"x_max":713,"o":"m 582 228 q 711 233 660 228 l 711 0 q 622 -8 679 -4 q 514 -12 565 -12 q 301 10 376 -12 q 195 85 226 33 q 164 231 164 138 l 164 569 l 14 569 l 14 750 l 164 750 l 164 953 l 475 953 l 475 750 l 713 750 l 713 569 l 475 569 l 475 289 q 499 241 475 254 q 582 228 524 228 z "},"u":{"ha":1186,"x_min":69,"x_max":1117,"o":"m 811 94 l 803 94 q 444 -19 667 -19 q 171 53 272 -19 q 69 269 69 125 l 69 750 l 381 750 l 381 369 q 574 219 381 219 q 738 265 669 219 q 806 411 806 310 l 806 750 l 1117 750 l 1117 0 l 811 0 l 811 94 z "},"v":{"ha":1174,"x_min":7,"x_max":1165,"o":"m 1165 750 l 756 0 l 418 0 l 7 750 l 364 750 l 582 306 l 590 306 l 810 750 l 1165 750 z "},"w":{"ha":1694,"x_min":13,"x_max":1682,"o":"m 1357 0 l 1019 0 l 856 443 l 847 443 l 685 0 l 343 0 l 13 750 l 357 750 l 524 311 l 532 311 l 694 750 l 1003 750 l 1171 314 l 1179 314 l 1339 750 l 1682 750 l 1357 0 z "},"x":{"ha":1196,"x_min":11,"x_max":1186,"o":"m 1186 0 l 782 0 l 600 208 l 415 0 l 11 0 l 392 390 l 47 750 l 433 750 l 600 557 l 763 750 l 1149 750 l 806 390 l 1186 0 z "},"y":{"ha":1174,"x_min":7,"x_max":1165,"o":"m 747 -14 q 632 -176 688 -122 q 502 -251 576 -231 q 303 -272 428 -272 q 113 -271 167 -272 l 113 -26 q 251 -28 154 -28 q 342 -19 311 -28 q 386 14 372 -10 l 403 43 l 7 750 l 364 750 l 582 306 l 590 306 l 810 750 l 1165 750 l 747 -14 z "},"z":{"ha":1107,"x_min":39,"x_max":1053,"o":"m 39 0 l 39 215 l 539 542 l 68 542 l 68 750 l 1053 750 l 1053 538 l 550 210 l 1053 210 l 1053 0 l 39 0 z "},"{":{"ha":667,"x_min":38,"x_max":629,"o":"m 472 571 q 437 454 472 497 q 338 399 401 411 l 338 390 q 437 334 401 378 q 472 217 472 290 l 472 33 q 488 -27 472 -7 q 556 -47 503 -47 l 629 -47 l 629 -239 l 413 -239 q 175 -65 175 -239 l 175 164 q 141 262 175 236 q 38 288 107 288 l 38 501 q 141 527 107 501 q 175 626 175 553 l 175 856 q 413 1028 175 1028 l 629 1028 l 629 836 l 556 836 q 488 816 503 836 q 472 756 472 796 l 472 571 z "},"|":{"ha":458,"x_min":81,"x_max":378,"o":"m 378 -314 l 81 -314 l 81 1108 l 378 1108 l 378 -314 z "},"}":{"ha":667,"x_min":38,"x_max":629,"o":"m 194 571 q 230 454 194 497 q 329 399 265 411 l 329 390 q 230 334 265 378 q 194 217 194 290 l 194 33 q 179 -27 194 -7 q 111 -47 164 -47 l 38 -47 l 38 -239 l 254 -239 q 492 -65 492 -239 l 492 164 q 526 262 492 236 q 629 288 560 288 l 629 501 q 526 527 560 501 q 492 626 492 553 l 492 856 q 254 1028 492 1028 l 38 1028 l 38 836 l 111 836 q 179 816 164 836 q 194 756 194 796 l 194 571 z "},"~":{"ha":904,"x_min":85,"x_max":818,"o":"m 644 486 q 722 515 681 486 q 818 604 763 543 l 818 400 q 644 304 733 304 q 567 316 600 304 q 493 347 533 328 l 393 397 q 324 428 351 418 q 258 439 296 439 q 181 410 222 439 q 85 321 140 382 l 85 525 q 165 594 124 568 q 258 621 207 621 q 336 609 303 621 q 410 578 369 597 l 510 528 q 579 497 551 507 q 644 486 607 486 z "}," ":{"ha":188,"x_min":0,"x_max":0,"o":""},"¡":{"ha":533,"x_min":88,"x_max":446,"o":"m 431 750 l 431 476 l 104 476 l 104 750 l 431 750 m 446 -79 l 446 -242 l 88 -242 l 88 -79 l 136 400 l 399 400 l 446 -79 z "},"¢":{"ha":1214,"x_min":46,"x_max":1168,"o":"m 1168 297 q 1034 63 1153 147 q 650 -31 915 -22 l 650 -182 l 553 -182 l 553 -31 q 46 375 46 -12 q 553 781 46 763 l 553 911 l 650 911 l 650 781 q 1032 690 914 774 q 1167 458 1150 606 l 818 458 q 769 528 807 499 q 650 564 732 557 l 650 186 q 770 224 733 193 q 817 297 807 254 l 1168 297 m 371 375 q 553 188 371 207 l 553 564 q 371 375 371 544 z "},"£":{"ha":1168,"x_min":32,"x_max":1136,"o":"m 867 246 q 1014 260 949 246 q 1136 315 1079 275 l 1136 26 q 1040 -4 1103 7 q 913 -15 978 -15 q 731 11 817 -15 q 561 82 646 38 q 443 9 517 33 q 281 -15 369 -15 q 99 32 165 -15 q 32 176 32 79 q 92 316 32 272 q 238 360 151 360 q 340 339 288 360 q 304 410 329 379 l 63 410 l 63 522 l 210 522 q 119 701 119 610 q 245 923 119 858 q 601 988 371 988 q 984 913 842 988 q 1135 650 1126 839 l 806 650 q 739 749 793 719 q 608 779 685 779 q 492 754 535 779 q 449 676 449 729 q 464 616 449 646 q 533 522 479 586 l 818 522 l 818 410 l 622 410 q 653 367 643 389 q 664 318 664 346 q 656 268 664 292 q 867 246 771 246 m 265 115 q 344 204 335 115 q 267 232 299 232 q 215 215 235 232 q 196 172 196 199 q 215 131 196 146 q 265 115 235 115 z "},"¤":{"ha":924,"x_min":54,"x_max":869,"o":"m 844 511 q 782 307 844 400 l 868 224 l 753 119 l 668 200 q 461 140 574 140 q 254 200 349 140 l 172 119 l 54 224 l 140 307 q 76 511 76 400 q 140 715 76 622 l 54 799 l 172 903 l 254 822 q 461 882 349 882 q 668 822 574 882 l 753 903 l 869 799 l 782 715 q 844 511 844 622 m 461 318 q 595 372 540 318 q 650 511 650 425 q 595 651 650 597 q 461 704 540 704 q 326 651 381 704 q 271 511 271 597 q 326 372 271 425 q 461 318 381 318 z "},"¥":{"ha":1299,"x_min":-6,"x_max":1306,"o":"m 1000 576 l 1156 576 l 1156 461 l 911 461 l 851 383 l 1156 383 l 1156 268 l 806 268 l 806 0 l 494 0 l 494 268 l 143 268 l 143 383 l 447 383 l 388 461 l 143 461 l 143 576 l 299 576 l -6 972 l 371 972 l 650 582 l 929 972 l 1306 972 l 1000 576 z "},"¦":{"ha":458,"x_min":81,"x_max":378,"o":"m 378 501 l 81 501 l 81 1108 l 378 1108 l 378 501 m 378 -314 l 81 -314 l 81 292 l 378 292 l 378 -314 z "},"§":{"ha":1313,"x_min":28,"x_max":1269,"o":"m 1269 338 q 1131 133 1269 199 q 1161 13 1161 85 q 1098 -171 1161 -106 q 922 -260 1035 -236 q 639 -285 810 -285 q 365 -258 474 -285 q 195 -162 257 -232 q 129 36 133 -92 l 432 36 q 491 -64 435 -37 q 651 -90 547 -90 q 795 -72 749 -90 q 843 -10 842 -53 q 819 38 843 22 q 754 61 794 53 l 290 161 q 137 214 193 183 q 54 292 81 244 q 28 414 28 340 q 190 626 28 561 q 172 673 179 644 q 165 731 165 701 q 290 952 165 890 q 638 1014 414 1014 q 984 950 857 1014 q 1117 722 1111 886 l 811 722 q 626 826 804 826 q 516 806 554 826 q 478 750 478 786 q 496 712 478 724 q 546 693 514 700 l 999 600 q 1204 510 1139 569 q 1269 338 1269 451 m 889 272 q 957 256 931 265 q 978 301 978 275 q 944 359 978 340 q 849 392 911 378 l 428 482 q 349 501 385 490 q 311 449 311 483 q 338 399 311 415 q 419 371 364 383 l 889 272 z "},"¨":{"ha":856,"x_min":81,"x_max":775,"o":"m 81 1011 l 367 1011 l 367 839 l 81 839 l 81 1011 m 489 1011 l 775 1011 l 775 839 l 489 839 l 489 1011 z "},"©":{"ha":1168,"x_min":50,"x_max":1118,"o":"m 583 -19 q 316 50 439 -19 q 122 238 193 119 q 50 497 50 357 q 122 756 50 638 q 316 944 193 875 q 583 1014 439 1014 q 852 944 729 1014 q 1047 756 975 875 q 1118 497 1118 638 q 1047 238 1118 357 q 852 50 975 119 q 583 -19 729 -19 m 583 69 q 806 127 704 69 q 967 283 907 185 q 1026 497 1026 381 q 967 713 1026 614 q 806 869 907 811 q 583 926 704 926 q 361 869 463 926 q 201 713 260 811 q 142 497 142 614 q 201 283 142 381 q 361 127 260 185 q 583 69 463 69 m 863 422 q 785 263 857 328 q 585 199 714 199 q 375 276 454 199 q 296 499 296 354 q 375 719 296 642 q 585 796 454 796 q 778 738 708 796 q 854 599 847 681 l 715 599 q 585 686 703 686 q 476 640 517 686 q 435 499 435 594 q 476 355 435 401 q 585 308 517 308 q 724 422 710 308 l 863 422 z "},"ª":{"ha":733,"x_min":39,"x_max":692,"o":"m 667 610 q 669 569 667 586 q 682 542 672 553 l 682 538 l 482 538 q 472 555 476 543 q 468 582 468 567 l 468 599 q 381 539 438 560 q 254 518 325 518 q 108 554 168 518 q 49 667 49 590 q 90 770 49 738 q 207 811 131 803 l 406 831 q 446 840 435 833 q 457 860 457 846 q 376 892 457 892 q 318 881 342 892 q 293 849 294 869 l 81 849 q 163 969 85 933 q 372 1004 240 1004 q 591 974 515 1004 q 667 863 667 943 l 667 610 m 464 744 q 442 737 457 739 q 422 733 428 735 l 313 715 q 272 701 286 711 q 258 669 258 690 q 325 629 258 629 q 422 655 379 629 q 464 732 464 681 l 464 744 m 692 158 l 692 0 l 39 0 l 39 158 l 692 158 z "},"«":{"ha":743,"x_min":53,"x_max":689,"o":"m 338 731 l 338 488 l 181 382 l 181 374 l 338 268 l 338 25 l 53 221 l 53 535 l 338 731 m 689 731 l 689 488 l 532 382 l 532 374 l 689 268 l 689 25 l 404 221 l 404 535 l 689 731 z "},"¬":{"ha":904,"x_min":85,"x_max":818,"o":"m 818 214 l 611 214 l 611 415 l 85 415 l 85 613 l 818 613 l 818 214 z "},"®":{"ha":1168,"x_min":50,"x_max":1118,"o":"m 583 1014 q 852 944 729 1014 q 1047 756 975 875 q 1118 497 1118 638 q 1047 238 1118 357 q 852 50 975 119 q 583 -19 729 -19 q 316 50 439 -19 q 122 238 193 119 q 50 497 50 357 q 122 756 50 638 q 316 944 193 875 q 583 1014 439 1014 m 583 69 q 806 127 704 69 q 967 283 907 185 q 1026 497 1026 381 q 967 713 1026 614 q 806 869 907 811 q 583 926 704 926 q 363 869 464 926 q 201 713 261 811 q 142 497 142 614 q 201 283 142 381 q 363 127 261 185 q 583 69 464 69 m 842 600 q 810 491 842 535 q 719 429 779 447 l 857 211 l 703 211 l 579 417 l 469 417 l 469 211 l 335 211 l 335 783 l 628 783 q 785 734 729 783 q 842 600 842 685 m 469 515 l 603 515 q 678 538 651 515 q 704 600 704 561 q 678 661 704 639 q 603 683 651 683 l 469 683 l 469 515 z "},"¯":{"ha":826,"x_min":81,"x_max":746,"o":"m 81 849 l 81 1019 l 746 1019 l 746 849 l 81 849 z "},"°":{"ha":510,"x_min":38,"x_max":472,"o":"m 256 560 q 144 587 194 560 q 66 663 94 614 q 38 775 38 713 q 66 886 38 838 q 144 962 94 935 q 256 989 194 989 q 365 962 315 989 q 444 886 415 935 q 472 775 472 838 q 444 663 472 713 q 365 587 415 614 q 256 560 315 560 m 256 661 q 334 693 306 661 q 363 775 363 725 q 334 856 363 825 q 256 888 306 888 q 176 856 206 888 q 147 775 147 824 q 176 693 147 725 q 256 661 206 661 z "},"±":{"ha":904,"x_min":85,"x_max":818,"o":"m 818 431 l 556 431 l 556 225 l 349 225 l 349 431 l 85 431 l 85 613 l 349 613 l 349 818 l 556 818 l 556 613 l 818 613 l 818 431 m 818 168 l 818 0 l 85 0 l 85 168 l 818 168 z "},"²":{"ha":822,"x_min":40,"x_max":761,"o":"m 360 594 q 297 574 322 586 q 264 549 272 561 l 760 549 l 760 415 l 40 415 l 40 433 q 115 622 40 560 q 310 715 189 683 l 440 751 q 517 783 494 767 q 539 825 539 799 q 509 865 539 853 q 421 878 479 878 q 322 858 358 878 q 276 790 285 838 l 50 790 q 143 958 57 907 q 410 1010 229 1010 q 676 970 590 1010 q 761 832 761 931 q 706 704 761 747 q 538 635 651 661 l 360 594 z "},"³":{"ha":811,"x_min":29,"x_max":768,"o":"m 653 713 q 768 579 768 692 q 733 473 768 513 q 618 415 699 433 q 397 396 538 396 q 183 417 261 396 q 69 482 104 438 q 29 603 33 526 l 253 603 q 294 546 258 564 q 400 528 329 528 q 509 541 474 528 q 544 588 544 554 q 518 637 544 622 q 436 651 492 651 l 306 651 l 306 767 l 440 767 q 513 781 489 767 q 538 825 538 794 q 503 868 538 856 q 397 881 468 881 q 303 865 335 881 q 263 813 271 849 l 50 813 q 138 964 57 918 q 397 1010 218 1010 q 600 994 524 1010 q 713 940 676 978 q 749 839 749 903 q 653 721 749 736 l 653 713 z "},"´":{"ha":692,"x_min":81,"x_max":611,"o":"m 347 833 l 81 833 l 190 1039 l 611 1039 l 347 833 z "},"¶":{"ha":1032,"x_min":39,"x_max":951,"o":"m 951 -256 l 749 -256 l 749 824 l 625 824 l 625 -256 l 424 -256 l 424 376 l 403 376 q 131 456 222 376 q 39 683 39 535 q 131 911 39 832 q 406 990 224 990 l 951 990 l 951 -256 z "},"·":{"ha":478,"x_min":39,"x_max":439,"o":"m 238 276 q 90 323 142 276 q 39 453 39 369 q 90 582 39 536 q 238 628 142 628 q 387 582 335 628 q 439 453 439 536 q 386 323 439 369 q 238 276 333 276 z "},"¸":{"ha":714,"x_min":81,"x_max":633,"o":"m 349 -68 q 408 -64 368 -64 q 633 -206 633 -64 q 556 -319 633 -286 q 313 -353 479 -353 q 190 -348 246 -353 q 81 -328 135 -343 l 81 -214 l 89 -214 q 193 -238 144 -232 q 300 -244 242 -244 q 374 -236 350 -244 q 397 -204 397 -228 q 374 -174 397 -182 q 300 -165 350 -165 q 229 -169 269 -165 q 169 -176 189 -172 l 161 -176 l 161 -107 l 293 35 l 444 35 l 349 -68 z "},"¹":{"ha":507,"x_min":22,"x_max":424,"o":"m 424 415 l 222 415 l 222 751 l 22 751 l 22 883 l 64 883 q 192 910 149 883 q 254 990 236 938 l 424 990 l 424 415 z "},"º":{"ha":733,"x_min":39,"x_max":692,"o":"m 365 1004 q 611 942 531 1004 q 692 763 692 879 q 611 581 692 643 q 365 518 531 518 q 39 763 39 518 q 119 942 39 879 q 365 1004 200 1004 m 365 654 q 452 683 424 654 q 481 763 481 711 q 452 839 481 811 q 365 867 424 867 q 277 839 306 867 q 249 763 249 811 q 365 654 249 654 m 692 158 l 692 0 l 39 0 l 39 158 l 692 158 z "},"»":{"ha":743,"x_min":54,"x_max":690,"o":"m 406 731 l 406 488 l 563 382 l 563 374 l 406 268 l 406 25 l 690 221 l 690 535 l 406 731 m 54 731 l 54 488 l 211 382 l 211 374 l 54 268 l 54 25 l 339 221 l 339 535 l 54 731 z "},"¿":{"ha":1167,"x_min":36,"x_max":1133,"o":"m 743 485 l 415 485 l 415 750 l 743 750 l 743 485 m 1133 88 q 1064 -124 1131 -47 q 876 -233 997 -201 q 571 -264 754 -264 q 169 -199 301 -264 q 36 15 36 -133 q 83 156 36 106 q 225 247 131 207 l 317 285 q 401 335 379 311 q 425 389 422 360 l 426 403 l 732 403 l 732 374 q 695 247 732 292 q 565 160 658 201 l 469 117 q 399 76 421 94 q 378 31 378 58 q 568 -51 378 -51 q 723 -20 665 -51 q 793 88 781 11 l 1133 88 z "},"À":{"ha":1419,"x_min":3,"x_max":1417,"o":"m 990 157 l 428 157 l 353 0 l 3 0 l 504 992 l 919 992 l 1417 0 l 1067 0 l 990 157 m 881 386 l 713 731 l 704 731 l 539 386 l 881 386 m 733 1285 l 844 1081 l 578 1081 l 314 1285 l 733 1285 z "},"Á":{"ha":1419,"x_min":3,"x_max":1417,"o":"m 990 157 l 428 157 l 353 0 l 3 0 l 504 992 l 919 992 l 1417 0 l 1067 0 l 990 157 m 881 386 l 713 731 l 704 731 l 539 386 l 881 386 m 846 1081 l 579 1081 l 689 1285 l 1110 1285 l 846 1081 z "},"Â":{"ha":1419,"x_min":3,"x_max":1417,"o":"m 990 157 l 428 157 l 353 0 l 3 0 l 504 992 l 919 992 l 1417 0 l 1067 0 l 990 157 m 881 386 l 713 731 l 704 731 l 539 386 l 881 386 m 717 1179 l 708 1179 l 631 1081 l 314 1081 l 496 1285 l 929 1285 l 1111 1081 l 794 1081 l 717 1179 z "},"Ã":{"ha":1419,"x_min":3,"x_max":1417,"o":"m 990 157 l 428 157 l 353 0 l 3 0 l 504 992 l 919 992 l 1417 0 l 1067 0 l 990 157 m 881 386 l 713 731 l 704 731 l 539 386 l 881 386 m 857 1054 q 785 1065 822 1054 q 694 1093 747 1075 q 636 1111 664 1103 q 593 1119 608 1119 q 558 1109 567 1119 q 547 1069 550 1099 l 344 1069 q 377 1199 344 1146 q 460 1277 410 1251 q 561 1303 510 1303 q 635 1292 596 1303 q 728 1264 674 1282 q 771 1250 735 1261 q 829 1239 807 1239 q 863 1249 854 1239 q 874 1288 871 1260 l 1078 1288 q 1044 1158 1078 1211 q 960 1080 1011 1106 q 857 1054 910 1054 z "},"Ä":{"ha":1419,"x_min":3,"x_max":1417,"o":"m 990 157 l 428 157 l 353 0 l 3 0 l 504 992 l 919 992 l 1417 0 l 1067 0 l 990 157 m 881 386 l 713 731 l 704 731 l 539 386 l 881 386 m 364 1254 l 650 1254 l 650 1081 l 364 1081 l 364 1254 m 772 1254 l 1058 1254 l 1058 1081 l 772 1081 l 772 1254 z "},"Å":{"ha":1419,"x_min":3,"x_max":1417,"o":"m 990 157 l 428 157 l 353 0 l 3 0 l 504 992 l 919 992 l 1417 0 l 1067 0 l 990 157 m 881 386 l 713 731 l 704 731 l 539 386 l 881 386 m 713 1031 q 540 1083 608 1031 q 471 1221 471 1135 q 540 1360 471 1308 q 713 1413 608 1413 q 887 1360 818 1413 q 956 1221 956 1308 q 886 1083 956 1135 q 713 1031 817 1031 m 713 1156 q 769 1174 746 1156 q 792 1221 792 1192 q 769 1269 792 1251 q 713 1288 746 1288 q 658 1269 681 1288 q 635 1221 635 1251 q 658 1174 635 1192 q 713 1156 681 1156 z "},"Æ":{"ha":2064,"x_min":3,"x_max":2004,"o":"m 2004 236 l 2004 0 l 1004 0 l 1004 157 l 493 157 l 381 0 l 3 0 l 736 992 l 1989 992 l 1989 754 l 1308 754 l 1308 614 l 1958 614 l 1958 394 l 1308 394 l 1308 236 l 2004 236 m 1004 386 l 1004 754 l 919 754 l 657 386 l 1004 386 z "},"Ç":{"ha":1435,"x_min":50,"x_max":1385,"o":"m 1385 408 q 1235 98 1381 210 q 817 -31 1090 -14 l 781 -68 q 840 -64 800 -64 q 1065 -206 1065 -64 q 988 -319 1065 -286 q 744 -353 911 -353 q 622 -348 678 -353 q 513 -328 567 -343 l 513 -214 l 521 -214 q 625 -238 576 -232 q 732 -244 674 -244 q 806 -236 782 -244 q 829 -204 829 -228 q 806 -174 829 -182 q 732 -165 782 -165 q 661 -169 701 -165 q 601 -176 621 -172 l 593 -176 l 593 -107 l 664 -32 q 208 112 367 -19 q 50 496 50 243 q 224 892 50 761 q 725 1024 399 1024 q 1207 915 1039 1024 q 1382 604 1375 806 l 1004 604 q 967 685 999 646 q 873 749 935 724 q 724 775 811 775 q 480 703 563 775 q 397 496 397 631 q 480 289 397 361 q 724 217 563 217 q 925 271 856 217 q 1003 408 994 325 l 1385 408 z "},"È":{"ha":1228,"x_min":81,"x_max":1168,"o":"m 397 613 l 1122 613 l 1122 403 l 397 403 l 397 228 l 1168 228 l 1168 0 l 81 0 l 81 992 l 1153 992 l 1153 765 l 397 765 l 397 613 m 639 1285 l 750 1081 l 483 1081 l 219 1285 l 639 1285 z "},"É":{"ha":1228,"x_min":81,"x_max":1168,"o":"m 397 613 l 1122 613 l 1122 403 l 397 403 l 397 228 l 1168 228 l 1168 0 l 81 0 l 81 992 l 1153 992 l 1153 765 l 397 765 l 397 613 m 750 1081 l 483 1081 l 593 1285 l 1014 1285 l 750 1081 z "},"Ê":{"ha":1228,"x_min":81,"x_max":1168,"o":"m 397 613 l 1122 613 l 1122 403 l 397 403 l 397 228 l 1168 228 l 1168 0 l 81 0 l 81 992 l 1153 992 l 1153 765 l 397 765 l 397 613 m 621 1179 l 613 1179 l 535 1081 l 218 1081 l 400 1285 l 833 1285 l 1015 1081 l 699 1081 l 621 1179 z "},"Ë":{"ha":1228,"x_min":81,"x_max":1168,"o":"m 397 613 l 1122 613 l 1122 403 l 397 403 l 397 228 l 1168 228 l 1168 0 l 81 0 l 81 992 l 1153 992 l 1153 765 l 397 765 l 397 613 m 269 1254 l 556 1254 l 556 1081 l 269 1081 l 269 1254 m 678 1254 l 964 1254 l 964 1081 l 678 1081 l 678 1254 z "},"Ì":{"ha":478,"x_min":-158,"x_max":397,"o":"m 81 0 l 81 992 l 397 992 l 397 0 l 81 0 m 261 1285 l 372 1081 l 106 1081 l -158 1285 l 261 1285 z "},"Í":{"ha":478,"x_min":81,"x_max":636,"o":"m 81 0 l 81 992 l 397 992 l 397 0 l 81 0 m 372 1081 l 106 1081 l 215 1285 l 636 1285 l 372 1081 z "},"Î":{"ha":478,"x_min":-160,"x_max":638,"o":"m 81 0 l 81 992 l 397 992 l 397 0 l 81 0 m 243 1179 l 235 1179 l 157 1081 l -160 1081 l 22 1285 l 456 1285 l 638 1081 l 321 1081 l 243 1179 z "},"Ï":{"ha":478,"x_min":-108,"x_max":586,"o":"m 81 0 l 81 992 l 397 992 l 397 0 l 81 0 m -108 1254 l 178 1254 l 178 1081 l -108 1081 l -108 1254 m 300 1254 l 586 1254 l 586 1081 l 300 1081 l 300 1254 z "},"Ð":{"ha":1375,"x_min":-10,"x_max":1325,"o":"m 769 992 q 1187 875 1049 992 q 1325 496 1325 758 q 1187 117 1325 233 q 769 0 1049 0 l 81 0 l 81 410 l -10 410 l -10 585 l 81 585 l 81 992 l 769 992 m 697 243 q 908 303 838 243 q 978 496 978 363 q 908 689 978 629 q 697 749 838 749 l 397 749 l 397 583 l 665 583 l 665 410 l 397 410 l 397 243 l 697 243 z "},"Ñ":{"ha":1385,"x_min":81,"x_max":1304,"o":"m 1304 992 l 1304 0 l 939 0 l 390 626 l 382 626 l 382 0 l 81 0 l 81 992 l 453 992 l 993 375 l 1001 375 l 1001 992 l 1304 992 m 839 1054 q 767 1065 804 1054 q 676 1093 729 1075 q 618 1111 646 1103 q 575 1119 590 1119 q 540 1109 549 1119 q 529 1069 532 1099 l 326 1069 q 359 1199 326 1146 q 442 1277 392 1251 q 543 1303 492 1303 q 617 1292 578 1303 q 710 1264 656 1282 q 753 1250 717 1261 q 811 1239 789 1239 q 844 1249 836 1239 q 856 1288 853 1260 l 1060 1288 q 1026 1158 1060 1211 q 942 1080 993 1106 q 839 1054 892 1054 z "},"Ò":{"ha":1476,"x_min":50,"x_max":1426,"o":"m 738 1024 q 1249 893 1072 1024 q 1426 496 1426 763 q 1249 99 1426 229 q 738 -32 1072 -32 q 226 99 403 -32 q 50 496 50 229 q 226 893 50 763 q 738 1024 403 1024 m 738 217 q 994 289 910 217 q 1079 496 1079 361 q 994 703 1079 631 q 738 775 910 775 q 482 703 567 775 q 397 496 397 631 q 482 289 397 361 q 738 217 567 217 m 760 1285 l 871 1081 l 604 1081 l 340 1285 l 760 1285 z "},"Ó":{"ha":1476,"x_min":50,"x_max":1426,"o":"m 738 1024 q 1249 893 1072 1024 q 1426 496 1426 763 q 1249 99 1426 229 q 738 -32 1072 -32 q 226 99 403 -32 q 50 496 50 229 q 226 893 50 763 q 738 1024 403 1024 m 738 217 q 994 289 910 217 q 1079 496 1079 361 q 994 703 1079 631 q 738 775 910 775 q 482 703 567 775 q 397 496 397 631 q 482 289 397 361 q 738 217 567 217 m 872 1081 l 606 1081 l 715 1285 l 1136 1285 l 872 1081 z "},"Ô":{"ha":1476,"x_min":50,"x_max":1426,"o":"m 738 1024 q 1249 893 1072 1024 q 1426 496 1426 763 q 1249 99 1426 229 q 738 -32 1072 -32 q 226 99 403 -32 q 50 496 50 229 q 226 893 50 763 q 738 1024 403 1024 m 738 217 q 994 289 910 217 q 1079 496 1079 361 q 994 703 1079 631 q 738 775 910 775 q 482 703 567 775 q 397 496 397 631 q 482 289 397 361 q 738 217 567 217 m 743 1179 l 735 1179 l 657 1081 l 340 1081 l 522 1285 l 956 1285 l 1138 1081 l 821 1081 l 743 1179 z "},"Õ":{"ha":1476,"x_min":50,"x_max":1426,"o":"m 738 1024 q 1249 893 1072 1024 q 1426 496 1426 763 q 1249 99 1426 229 q 738 -32 1072 -32 q 226 99 403 -32 q 50 496 50 229 q 226 893 50 763 q 738 1024 403 1024 m 738 217 q 994 289 910 217 q 1079 496 1079 361 q 994 703 1079 631 q 738 775 910 775 q 482 703 567 775 q 397 496 397 631 q 482 289 397 361 q 738 217 567 217 m 883 1054 q 811 1065 849 1054 q 721 1093 774 1075 q 663 1111 690 1103 q 619 1119 635 1119 q 585 1109 593 1119 q 574 1069 576 1099 l 371 1069 q 403 1199 371 1146 q 486 1277 436 1251 q 588 1303 536 1303 q 661 1292 622 1303 q 754 1264 700 1282 q 797 1250 761 1261 q 856 1239 833 1239 q 889 1249 881 1239 q 900 1288 897 1260 l 1104 1288 q 1071 1158 1104 1211 q 987 1080 1038 1106 q 883 1054 936 1054 z "},"Ö":{"ha":1476,"x_min":50,"x_max":1426,"o":"m 738 1024 q 1249 893 1072 1024 q 1426 496 1426 763 q 1249 99 1426 229 q 738 -32 1072 -32 q 226 99 403 -32 q 50 496 50 229 q 226 893 50 763 q 738 1024 403 1024 m 738 217 q 994 289 910 217 q 1079 496 1079 361 q 994 703 1079 631 q 738 775 910 775 q 482 703 567 775 q 397 496 397 631 q 482 289 397 361 q 738 217 567 217 m 390 1254 l 676 1254 l 676 1081 l 390 1081 l 390 1254 m 799 1254 l 1085 1254 l 1085 1081 l 799 1081 l 799 1254 z "},"×":{"ha":881,"x_min":85,"x_max":796,"o":"m 579 453 l 796 235 l 657 97 l 440 314 l 224 97 l 85 235 l 303 453 l 85 671 l 224 808 l 440 592 l 657 808 l 796 671 l 579 453 z "},"Ø":{"ha":1476,"x_min":50,"x_max":1426,"o":"m 1290 860 q 1426 496 1426 728 q 1249 99 1426 229 q 738 -32 1072 -32 q 299 54 463 -32 l 165 -56 l 56 25 l 186 132 q 50 496 50 264 q 226 893 50 763 q 738 1024 403 1024 q 1178 938 1014 1024 l 1311 1047 l 1421 967 l 1290 860 m 738 775 q 482 703 567 775 q 397 496 397 631 q 439 338 397 401 l 935 739 q 738 775 856 775 m 738 217 q 994 289 910 217 q 1079 496 1079 361 q 1038 654 1079 590 l 542 253 q 738 217 621 217 z "},"Ù":{"ha":1378,"x_min":81,"x_max":1297,"o":"m 1297 992 l 1297 425 q 1224 152 1297 253 q 1018 10 1151 51 q 689 -32 885 -32 q 360 10 493 -32 q 153 152 226 51 q 81 425 81 253 l 81 992 l 397 992 l 397 431 q 473 267 397 315 q 689 219 549 219 q 905 267 829 219 q 981 431 981 315 l 981 992 l 1297 992 m 711 1285 l 822 1081 l 556 1081 l 292 1285 l 711 1285 z "},"Ú":{"ha":1378,"x_min":81,"x_max":1297,"o":"m 1297 992 l 1297 425 q 1224 152 1297 253 q 1018 10 1151 51 q 689 -32 885 -32 q 360 10 493 -32 q 153 152 226 51 q 81 425 81 253 l 81 992 l 397 992 l 397 431 q 473 267 397 315 q 689 219 549 219 q 905 267 829 219 q 981 431 981 315 l 981 992 l 1297 992 m 822 1081 l 556 1081 l 665 1285 l 1086 1285 l 822 1081 z "},"Û":{"ha":1378,"x_min":81,"x_max":1297,"o":"m 1297 992 l 1297 425 q 1224 152 1297 253 q 1018 10 1151 51 q 689 -32 885 -32 q 360 10 493 -32 q 153 152 226 51 q 81 425 81 253 l 81 992 l 397 992 l 397 431 q 473 267 397 315 q 689 219 549 219 q 905 267 829 219 q 981 431 981 315 l 981 992 l 1297 992 m 693 1179 l 685 1179 l 607 1081 l 290 1081 l 472 1285 l 906 1285 l 1088 1081 l 771 1081 l 693 1179 z "},"Ü":{"ha":1378,"x_min":81,"x_max":1297,"o":"m 1297 992 l 1297 425 q 1224 152 1297 253 q 1018 10 1151 51 q 689 -32 885 -32 q 360 10 493 -32 q 153 152 226 51 q 81 425 81 253 l 81 992 l 397 992 l 397 431 q 473 267 397 315 q 689 219 549 219 q 905 267 829 219 q 981 431 981 315 l 981 992 l 1297 992 m 342 1254 l 628 1254 l 628 1081 l 342 1081 l 342 1254 m 750 1254 l 1036 1254 l 1036 1081 l 750 1081 l 750 1254 z "},"Ý":{"ha":1325,"x_min":-6,"x_max":1331,"o":"m 821 331 l 821 0 l 504 0 l 504 329 l -6 992 l 378 992 l 663 593 l 949 992 l 1331 992 l 821 331 m 797 1081 l 531 1081 l 640 1285 l 1061 1285 l 797 1081 z "},"Þ":{"ha":1321,"x_min":81,"x_max":1283,"o":"m 892 863 q 1192 781 1100 863 q 1283 528 1283 699 q 1192 274 1283 356 q 892 193 1100 193 l 397 193 l 397 0 l 81 0 l 81 992 l 397 992 l 397 863 l 892 863 m 811 413 q 906 439 876 413 q 935 519 935 465 q 906 600 935 574 q 811 626 876 626 l 397 626 l 397 413 l 811 413 z "},"ß":{"ha":1267,"x_min":69,"x_max":1222,"o":"m 999 572 q 1166 488 1110 550 q 1222 310 1222 425 q 1178 122 1222 193 q 1021 14 1133 50 q 706 -22 908 -22 q 485 4 578 -22 l 485 222 q 523 213 492 221 q 594 201 554 206 q 675 197 633 197 q 897 324 897 197 q 840 419 897 390 q 656 447 782 447 l 485 447 l 485 622 l 642 622 q 767 647 722 622 q 813 718 813 671 q 765 785 813 765 q 618 806 718 806 q 442 769 504 806 q 381 626 381 733 l 381 0 l 69 0 l 69 638 q 124 865 69 782 q 299 986 179 949 q 618 1024 418 1024 q 931 994 817 1024 q 1091 910 1044 965 q 1138 769 1138 856 q 1101 644 1138 688 q 999 581 1065 601 l 999 572 z "},"à":{"ha":1167,"x_min":40,"x_max":1119,"o":"m 1100 121 q 1103 53 1100 81 q 1119 8 1107 25 l 1119 0 l 814 0 q 800 31 806 10 q 794 76 794 51 l 794 103 q 403 -31 682 -31 q 142 30 243 -31 q 40 217 40 90 q 107 392 40 338 q 299 457 174 447 l 693 490 q 756 505 736 493 q 775 542 775 517 q 738 585 775 571 q 615 600 700 600 q 485 583 531 600 q 429 524 440 565 l 93 524 q 228 726 99 671 q 601 781 357 781 q 877 763 771 781 q 1042 692 983 744 q 1100 543 1100 640 l 1100 121 m 789 353 q 757 341 778 346 q 715 333 736 336 l 472 303 q 392 277 418 296 q 365 221 365 258 q 399 163 365 181 q 504 146 433 146 q 706 190 622 146 q 789 326 789 233 l 789 353 m 624 1039 l 735 833 l 468 833 l 204 1039 l 624 1039 z "},"á":{"ha":1167,"x_min":40,"x_max":1119,"o":"m 1100 121 q 1103 53 1100 81 q 1119 8 1107 25 l 1119 0 l 814 0 q 800 31 806 10 q 794 76 794 51 l 794 103 q 403 -31 682 -31 q 142 30 243 -31 q 40 217 40 90 q 107 392 40 338 q 299 457 174 447 l 693 490 q 756 505 736 493 q 775 542 775 517 q 738 585 775 571 q 615 600 700 600 q 485 583 531 600 q 429 524 440 565 l 93 524 q 228 726 99 671 q 601 781 357 781 q 877 763 771 781 q 1042 692 983 744 q 1100 543 1100 640 l 1100 121 m 789 353 q 757 341 778 346 q 715 333 736 336 l 472 303 q 392 277 418 296 q 365 221 365 258 q 399 163 365 181 q 504 146 433 146 q 706 190 622 146 q 789 326 789 233 l 789 353 m 735 833 l 468 833 l 578 1039 l 999 1039 l 735 833 z "},"â":{"ha":1167,"x_min":40,"x_max":1119,"o":"m 1100 121 q 1103 53 1100 81 q 1119 8 1107 25 l 1119 0 l 814 0 q 800 31 806 10 q 794 76 794 51 l 794 103 q 403 -31 682 -31 q 142 30 243 -31 q 40 217 40 90 q 107 392 40 338 q 299 457 174 447 l 693 490 q 756 505 736 493 q 775 542 775 517 q 738 585 775 571 q 615 600 700 600 q 485 583 531 600 q 429 524 440 565 l 93 524 q 228 726 99 671 q 601 781 357 781 q 877 763 771 781 q 1042 692 983 744 q 1100 543 1100 640 l 1100 121 m 789 353 q 757 341 778 346 q 715 333 736 336 l 472 303 q 392 277 418 296 q 365 221 365 258 q 399 163 365 181 q 504 146 433 146 q 706 190 622 146 q 789 326 789 233 l 789 353 m 606 932 l 597 932 l 519 833 l 203 833 l 385 1038 l 818 1038 l 1000 833 l 683 833 l 606 932 z "},"ã":{"ha":1167,"x_min":40,"x_max":1119,"o":"m 1100 121 q 1103 53 1100 81 q 1119 8 1107 25 l 1119 0 l 814 0 q 800 31 806 10 q 794 76 794 51 l 794 103 q 403 -31 682 -31 q 142 30 243 -31 q 40 217 40 90 q 107 392 40 338 q 299 457 174 447 l 693 490 q 756 505 736 493 q 775 542 775 517 q 738 585 775 571 q 615 600 700 600 q 485 583 531 600 q 429 524 440 565 l 93 524 q 228 726 99 671 q 601 781 357 781 q 877 763 771 781 q 1042 692 983 744 q 1100 543 1100 640 l 1100 121 m 789 353 q 757 341 778 346 q 715 333 736 336 l 472 303 q 392 277 418 296 q 365 221 365 258 q 399 163 365 181 q 504 146 433 146 q 706 190 622 146 q 789 326 789 233 l 789 353 m 746 808 q 674 819 711 808 q 583 847 636 829 q 525 865 553 857 q 482 874 497 874 q 447 863 456 874 q 436 824 439 853 l 233 824 q 266 954 233 901 q 349 1033 299 1007 q 450 1058 399 1058 q 524 1048 485 1058 q 617 1019 563 1038 q 674 1001 646 1010 q 718 993 701 993 q 751 1003 743 993 q 763 1043 760 1014 l 967 1043 q 933 913 967 967 q 849 834 900 860 q 746 808 799 808 z "},"ä":{"ha":1167,"x_min":40,"x_max":1119,"o":"m 1100 121 q 1103 53 1100 81 q 1119 8 1107 25 l 1119 0 l 814 0 q 800 31 806 10 q 794 76 794 51 l 794 103 q 403 -31 682 -31 q 142 30 243 -31 q 40 217 40 90 q 107 392 40 338 q 299 457 174 447 l 693 490 q 756 505 736 493 q 775 542 775 517 q 738 585 775 571 q 615 600 700 600 q 485 583 531 600 q 429 524 440 565 l 93 524 q 228 726 99 671 q 601 781 357 781 q 877 763 771 781 q 1042 692 983 744 q 1100 543 1100 640 l 1100 121 m 789 353 q 757 341 778 346 q 715 333 736 336 l 472 303 q 392 277 418 296 q 365 221 365 258 q 399 163 365 181 q 504 146 433 146 q 706 190 622 146 q 789 326 789 233 l 789 353 m 253 1011 l 539 1011 l 539 839 l 253 839 l 253 1011 m 661 1011 l 947 1011 l 947 839 l 661 839 l 661 1011 z "},"å":{"ha":1167,"x_min":40,"x_max":1119,"o":"m 1100 121 q 1103 53 1100 81 q 1119 8 1107 25 l 1119 0 l 814 0 q 800 31 806 10 q 794 76 794 51 l 794 103 q 403 -31 682 -31 q 142 30 243 -31 q 40 217 40 90 q 107 392 40 338 q 299 457 174 447 l 693 490 q 756 505 736 493 q 775 542 775 517 q 738 585 775 571 q 615 600 700 600 q 485 583 531 600 q 429 524 440 565 l 93 524 q 228 726 99 671 q 601 781 357 781 q 877 763 771 781 q 1042 692 983 744 q 1100 543 1100 640 l 1100 121 m 789 353 q 757 341 778 346 q 715 333 736 336 l 472 303 q 392 277 418 296 q 365 221 365 258 q 399 163 365 181 q 504 146 433 146 q 706 190 622 146 q 789 326 789 233 l 789 353 m 600 815 q 427 867 496 815 q 358 1007 358 919 q 427 1145 358 1093 q 600 1197 496 1197 q 774 1145 704 1197 q 843 1007 843 1093 q 774 867 843 919 q 600 815 706 815 m 600 940 q 656 958 633 940 q 679 1007 679 976 q 656 1054 679 1036 q 600 1072 633 1072 q 545 1054 568 1072 q 522 1007 522 1036 q 545 958 522 976 q 600 940 568 940 z "},"æ":{"ha":1882,"x_min":40,"x_max":1836,"o":"m 1836 375 q 1833 304 1836 340 l 1076 304 q 1140 192 1088 228 q 1294 156 1192 156 q 1429 181 1388 156 q 1482 233 1471 206 l 1826 233 q 1294 -31 1810 -31 q 889 113 1013 -31 q 438 -31 754 -31 q 147 30 253 -31 q 40 218 40 90 q 106 392 40 336 q 297 457 172 447 l 688 490 q 743 505 726 493 q 760 540 760 517 q 603 600 760 600 q 429 524 447 600 l 93 524 q 228 726 99 672 q 594 781 357 781 q 822 763 731 781 q 967 696 914 746 q 1294 781 1079 781 q 1703 676 1569 781 q 1836 375 1836 571 m 1294 596 q 1085 476 1119 596 l 1503 476 q 1294 596 1468 596 m 774 350 q 699 331 754 336 l 471 303 q 390 276 414 296 q 365 219 365 257 q 398 164 365 182 q 499 146 431 146 q 692 190 611 146 q 774 325 774 235 l 774 350 z "},"ç":{"ha":1214,"x_min":46,"x_max":1168,"o":"m 1168 297 q 1042 68 1153 153 q 686 -29 931 -17 l 649 -68 q 708 -64 669 -64 q 933 -206 933 -64 q 856 -319 933 -286 q 613 -353 779 -353 q 490 -348 546 -353 q 381 -328 435 -343 l 381 -214 l 389 -214 q 492 -238 443 -232 q 600 -244 542 -244 q 674 -236 651 -244 q 697 -204 697 -228 q 674 -174 697 -182 q 600 -165 651 -165 q 529 -169 569 -165 q 471 -176 489 -172 l 461 -176 l 461 -107 l 533 -29 q 46 375 46 -6 q 603 781 46 781 q 1020 696 892 781 q 1167 458 1149 611 l 818 458 q 756 535 803 506 q 603 565 710 565 q 371 375 371 565 q 603 185 371 185 q 758 217 711 185 q 817 297 806 249 l 1168 297 z "},"è":{"ha":1214,"x_min":46,"x_max":1168,"o":"m 1168 375 q 1165 304 1168 343 l 372 304 q 440 192 383 228 q 610 156 496 156 q 758 181 714 156 q 814 233 803 206 l 1158 233 q 1028 42 1149 115 q 610 -31 908 -31 q 46 375 46 -31 q 607 781 46 781 q 1031 676 893 781 q 1168 375 1168 572 m 607 596 q 451 567 507 596 q 378 476 396 538 l 835 476 q 763 567 818 538 q 607 596 707 596 m 629 1039 l 740 833 l 474 833 l 210 1039 l 629 1039 z "},"é":{"ha":1214,"x_min":46,"x_max":1168,"o":"m 1168 375 q 1165 304 1168 343 l 372 304 q 440 192 383 228 q 610 156 496 156 q 758 181 714 156 q 814 233 803 206 l 1158 233 q 1028 42 1149 115 q 610 -31 908 -31 q 46 375 46 -31 q 607 781 46 781 q 1031 676 893 781 q 1168 375 1168 572 m 607 596 q 451 567 507 596 q 378 476 396 538 l 835 476 q 763 567 818 538 q 607 596 707 596 m 742 833 l 475 833 l 585 1039 l 1006 1039 l 742 833 z "},"ê":{"ha":1214,"x_min":46,"x_max":1168,"o":"m 1168 375 q 1165 304 1168 343 l 372 304 q 440 192 383 228 q 610 156 496 156 q 758 181 714 156 q 814 233 803 206 l 1158 233 q 1028 42 1149 115 q 610 -31 908 -31 q 46 375 46 -31 q 607 781 46 781 q 1031 676 893 781 q 1168 375 1168 572 m 607 596 q 451 567 507 596 q 378 476 396 538 l 835 476 q 763 567 818 538 q 607 596 707 596 m 613 932 l 604 932 l 526 833 l 210 833 l 392 1038 l 825 1038 l 1007 833 l 690 833 l 613 932 z "},"ë":{"ha":1214,"x_min":46,"x_max":1168,"o":"m 1168 375 q 1165 304 1168 343 l 372 304 q 440 192 383 228 q 610 156 496 156 q 758 181 714 156 q 814 233 803 206 l 1158 233 q 1028 42 1149 115 q 610 -31 908 -31 q 46 375 46 -31 q 607 781 46 781 q 1031 676 893 781 q 1168 375 1168 572 m 607 596 q 451 567 507 596 q 378 476 396 538 l 835 476 q 763 567 818 538 q 607 596 707 596 m 260 1011 l 546 1011 l 546 839 l 260 839 l 260 1011 m 668 1011 l 954 1011 l 954 839 l 668 839 l 668 1011 z "},"ì":{"ha":450,"x_min":-172,"x_max":381,"o":"m 69 750 l 381 750 l 381 0 l 69 0 l 69 750 m 247 1039 l 358 833 l 92 833 l -172 1039 l 247 1039 z "},"í":{"ha":450,"x_min":69,"x_max":622,"o":"m 69 750 l 381 750 l 381 0 l 69 0 l 69 750 m 358 833 l 92 833 l 201 1039 l 622 1039 l 358 833 z "},"î":{"ha":450,"x_min":-174,"x_max":624,"o":"m 69 750 l 381 750 l 381 0 l 69 0 l 69 750 m 229 932 l 221 932 l 143 833 l -174 833 l 8 1038 l 442 1038 l 624 833 l 307 833 l 229 932 z "},"ï":{"ha":450,"x_min":-122,"x_max":572,"o":"m 69 750 l 381 750 l 381 0 l 69 0 l 69 750 m -122 1011 l 164 1011 l 164 839 l -122 839 l -122 1011 m 286 1011 l 572 1011 l 572 839 l 286 839 l 286 1011 z "},"ð":{"ha":1226,"x_min":46,"x_max":1181,"o":"m 797 926 q 1181 433 1181 778 q 1029 75 1181 181 q 583 -31 878 -31 q 193 49 340 -31 q 46 318 46 129 q 116 524 46 447 q 292 633 186 601 q 517 665 399 665 q 709 644 626 665 q 840 588 792 622 l 849 590 q 735 710 807 663 q 538 788 664 757 l 332 676 l 218 749 l 356 822 q 122 849 268 835 l 249 1036 q 642 976 471 1019 l 799 1061 l 913 989 l 797 926 m 606 176 q 782 210 721 176 q 843 318 843 243 q 783 425 843 393 q 606 457 722 457 q 431 425 490 457 q 371 318 371 393 q 431 210 371 243 q 606 176 490 176 z "},"ñ":{"ha":1186,"x_min":69,"x_max":1117,"o":"m 375 656 l 383 656 q 540 742 451 714 q 742 769 628 769 q 1015 697 914 769 q 1117 481 1117 625 l 1117 0 l 806 0 l 806 382 q 613 531 806 531 q 449 485 517 531 q 381 339 381 440 l 381 0 l 69 0 l 69 750 l 375 750 l 375 656 m 739 808 q 667 819 704 808 q 576 847 629 829 q 518 865 546 857 q 475 874 490 874 q 440 863 449 874 q 429 824 432 853 l 226 824 q 259 953 226 900 q 342 1031 292 1006 q 443 1057 392 1057 q 519 1047 479 1057 q 610 1019 558 1038 q 667 1001 639 1010 q 711 993 694 993 q 744 1003 736 993 q 756 1042 753 1014 l 960 1042 q 926 913 960 965 q 842 834 893 860 q 739 808 792 808 z "},"ò":{"ha":1214,"x_min":46,"x_max":1168,"o":"m 607 781 q 1168 375 1168 781 q 607 -31 1168 -31 q 46 375 46 -31 q 607 781 46 781 m 607 185 q 843 375 843 185 q 787 517 843 468 q 607 565 731 565 q 427 517 483 565 q 371 375 371 468 q 607 185 371 185 m 629 1039 l 740 833 l 474 833 l 210 1039 l 629 1039 z "},"ó":{"ha":1214,"x_min":46,"x_max":1168,"o":"m 607 781 q 1168 375 1168 781 q 607 -31 1168 -31 q 46 375 46 -31 q 607 781 46 781 m 607 185 q 843 375 843 185 q 787 517 843 468 q 607 565 731 565 q 427 517 483 565 q 371 375 371 468 q 607 185 371 185 m 740 833 l 474 833 l 583 1039 l 1004 1039 l 740 833 z "},"ô":{"ha":1214,"x_min":46,"x_max":1168,"o":"m 607 781 q 1168 375 1168 781 q 607 -31 1168 -31 q 46 375 46 -31 q 607 781 46 781 m 607 185 q 843 375 843 185 q 787 517 843 468 q 607 565 731 565 q 427 517 483 565 q 371 375 371 468 q 607 185 371 185 m 611 932 l 603 932 l 525 833 l 208 833 l 390 1038 l 824 1038 l 1006 833 l 689 833 l 611 932 z "},"õ":{"ha":1214,"x_min":46,"x_max":1168,"o":"m 607 781 q 1168 375 1168 781 q 607 -31 1168 -31 q 46 375 46 -31 q 607 781 46 781 m 607 185 q 843 375 843 185 q 787 517 843 468 q 607 565 731 565 q 427 517 483 565 q 371 375 371 468 q 607 185 371 185 m 753 808 q 681 819 718 808 q 590 847 643 829 q 532 865 560 857 q 489 874 504 874 q 454 863 463 874 q 443 824 446 853 l 240 824 q 273 954 240 901 q 356 1033 306 1007 q 457 1058 406 1058 q 531 1048 492 1058 q 624 1019 569 1038 q 681 1001 653 1010 q 725 993 708 993 q 758 1003 750 993 q 769 1043 767 1014 l 974 1043 q 940 913 974 967 q 856 834 907 860 q 753 808 806 808 z "},"ö":{"ha":1214,"x_min":46,"x_max":1168,"o":"m 607 781 q 1168 375 1168 781 q 607 -31 1168 -31 q 46 375 46 -31 q 607 781 46 781 m 607 185 q 843 375 843 185 q 787 517 843 468 q 607 565 731 565 q 427 517 483 565 q 371 375 371 468 q 607 185 371 185 m 260 1011 l 546 1011 l 546 839 l 260 839 l 260 1011 m 668 1011 l 954 1011 l 954 839 l 668 839 l 668 1011 z "},"÷":{"ha":904,"x_min":85,"x_max":818,"o":"m 451 633 q 358 672 397 633 q 319 767 319 711 q 358 860 319 821 q 451 899 397 899 q 546 860 507 899 q 585 767 585 821 q 546 672 585 711 q 451 633 507 633 m 818 354 l 85 354 l 85 551 l 818 551 l 818 354 m 451 7 q 358 46 397 7 q 319 139 319 85 q 358 233 319 194 q 451 272 397 272 q 546 233 507 272 q 585 139 585 194 q 546 46 585 85 q 451 7 507 7 z "},"ø":{"ha":1214,"x_min":46,"x_max":1168,"o":"m 1060 653 q 1168 375 1168 554 q 607 -31 1168 -31 q 239 38 375 -31 l 149 -29 l 63 29 l 153 97 q 46 375 46 196 q 607 781 46 781 q 975 713 839 781 l 1065 781 l 1151 721 l 1060 653 m 607 565 q 427 517 483 565 q 371 375 371 468 q 393 276 371 317 l 747 542 q 607 565 692 565 m 607 185 q 843 375 843 185 q 821 475 843 435 l 467 210 q 607 185 518 185 z "},"ù":{"ha":1186,"x_min":69,"x_max":1117,"o":"m 811 94 l 803 94 q 444 -19 667 -19 q 171 53 272 -19 q 69 269 69 125 l 69 750 l 381 750 l 381 369 q 574 219 381 219 q 738 265 669 219 q 806 411 806 310 l 806 750 l 1117 750 l 1117 0 l 811 0 l 811 94 m 615 1039 l 726 833 l 460 833 l 196 1039 l 615 1039 z "},"ú":{"ha":1186,"x_min":69,"x_max":1117,"o":"m 811 94 l 803 94 q 444 -19 667 -19 q 171 53 272 -19 q 69 269 69 125 l 69 750 l 381 750 l 381 369 q 574 219 381 219 q 738 265 669 219 q 806 411 806 310 l 806 750 l 1117 750 l 1117 0 l 811 0 l 811 94 m 726 833 l 460 833 l 569 1039 l 990 1039 l 726 833 z "},"û":{"ha":1186,"x_min":69,"x_max":1117,"o":"m 811 94 l 803 94 q 444 -19 667 -19 q 171 53 272 -19 q 69 269 69 125 l 69 750 l 381 750 l 381 369 q 574 219 381 219 q 738 265 669 219 q 806 411 806 310 l 806 750 l 1117 750 l 1117 0 l 811 0 l 811 94 m 597 932 l 589 932 l 511 833 l 194 833 l 376 1038 l 810 1038 l 992 833 l 675 833 l 597 932 z "},"ü":{"ha":1186,"x_min":69,"x_max":1117,"o":"m 811 94 l 803 94 q 444 -19 667 -19 q 171 53 272 -19 q 69 269 69 125 l 69 750 l 381 750 l 381 369 q 574 219 381 219 q 738 265 669 219 q 806 411 806 310 l 806 750 l 1117 750 l 1117 0 l 811 0 l 811 94 m 246 1011 l 532 1011 l 532 839 l 246 839 l 246 1011 m 654 1011 l 940 1011 l 940 839 l 654 839 l 654 1011 z "},"ý":{"ha":1174,"x_min":7,"x_max":1165,"o":"m 747 -14 q 632 -176 688 -122 q 502 -251 576 -231 q 303 -272 428 -272 q 113 -271 167 -272 l 113 -26 q 251 -28 154 -28 q 342 -19 311 -28 q 386 14 372 -10 l 403 43 l 7 750 l 364 750 l 582 306 l 590 306 l 810 750 l 1165 750 l 747 -14 m 719 833 l 453 833 l 563 1039 l 983 1039 l 719 833 z "},"þ":{"ha":1224,"x_min":69,"x_max":1179,"o":"m 381 75 l 381 -254 l 69 -254 l 69 1006 l 381 1006 l 381 664 l 389 664 q 524 742 449 715 q 707 769 599 769 q 1057 667 935 769 q 1179 369 1179 564 q 1057 72 1179 175 q 707 -31 935 -31 q 523 -3 599 -31 q 389 75 447 24 l 381 75 m 615 554 q 433 506 493 554 q 372 369 372 457 q 433 233 372 282 q 615 185 493 185 q 797 232 740 185 q 854 369 854 279 q 797 507 854 460 q 615 554 740 554 z "},"ÿ":{"ha":1174,"x_min":7,"x_max":1165,"o":"m 747 -14 q 632 -176 688 -122 q 502 -251 576 -231 q 303 -272 428 -272 q 113 -271 167 -272 l 113 -26 q 251 -28 154 -28 q 342 -19 311 -28 q 386 14 372 -10 l 403 43 l 7 750 l 364 750 l 582 306 l 590 306 l 810 750 l 1165 750 l 747 -14 m 239 1011 l 525 1011 l 525 839 l 239 839 l 239 1011 m 647 1011 l 933 1011 l 933 839 l 647 839 l 647 1011 z "},"Ā":{"ha":1419,"x_min":3,"x_max":1417,"o":"m 990 157 l 428 157 l 353 0 l 3 0 l 504 992 l 919 992 l 1417 0 l 1067 0 l 990 157 m 881 386 l 713 731 l 704 731 l 539 386 l 881 386 m 379 1082 l 379 1253 l 1044 1253 l 1044 1082 l 379 1082 z "},"ā":{"ha":1167,"x_min":40,"x_max":1119,"o":"m 1100 121 q 1103 53 1100 81 q 1119 8 1107 25 l 1119 0 l 814 0 q 800 31 806 10 q 794 76 794 51 l 794 103 q 403 -31 682 -31 q 142 30 243 -31 q 40 217 40 90 q 107 392 40 338 q 299 457 174 447 l 693 490 q 756 505 736 493 q 775 542 775 517 q 738 585 775 571 q 615 600 700 600 q 485 583 531 600 q 429 524 440 565 l 93 524 q 228 726 99 671 q 601 781 357 781 q 877 763 771 781 q 1042 692 983 744 q 1100 543 1100 640 l 1100 121 m 789 353 q 757 341 778 346 q 715 333 736 336 l 472 303 q 392 277 418 296 q 365 221 365 258 q 399 163 365 181 q 504 146 433 146 q 706 190 622 146 q 789 326 789 233 l 789 353 m 268 849 l 268 1019 l 933 1019 l 933 849 l 268 849 z "},"Ă":{"ha":1419,"x_min":3,"x_max":1417,"o":"m 990 157 l 428 157 l 353 0 l 3 0 l 504 992 l 919 992 l 1417 0 l 1067 0 l 990 157 m 881 386 l 713 731 l 704 731 l 539 386 l 881 386 m 1042 1289 q 992 1164 1040 1215 q 868 1088 943 1113 q 713 1063 793 1063 q 557 1088 632 1063 q 433 1164 482 1113 q 383 1289 385 1215 l 626 1289 q 713 1231 633 1231 q 797 1289 790 1231 l 1042 1289 z "},"ă":{"ha":1167,"x_min":40,"x_max":1119,"o":"m 1100 121 q 1103 53 1100 81 q 1119 8 1107 25 l 1119 0 l 814 0 q 800 31 806 10 q 794 76 794 51 l 794 103 q 403 -31 682 -31 q 142 30 243 -31 q 40 217 40 90 q 107 392 40 338 q 299 457 174 447 l 693 490 q 756 505 736 493 q 775 542 775 517 q 738 585 775 571 q 615 600 700 600 q 485 583 531 600 q 429 524 440 565 l 93 524 q 228 726 99 671 q 601 781 357 781 q 877 763 771 781 q 1042 692 983 744 q 1100 543 1100 640 l 1100 121 m 789 353 q 757 341 778 346 q 715 333 736 336 l 472 303 q 392 277 418 296 q 365 221 365 258 q 399 163 365 181 q 504 146 433 146 q 706 190 622 146 q 789 326 789 233 l 789 353 m 931 1042 q 881 917 929 968 q 757 840 832 865 q 601 815 682 815 q 446 840 521 815 q 322 917 371 865 q 272 1042 274 968 l 515 1042 q 601 983 522 983 q 686 1042 679 983 l 931 1042 z "},"Ą":{"ha":1419,"x_min":3,"x_max":1417,"o":"m 990 157 l 428 157 l 353 0 l 3 0 l 504 992 l 919 992 l 1417 0 l 1067 0 l 990 157 m 881 386 l 713 731 l 704 731 l 539 386 l 881 386 m 1314 -183 q 1417 -171 1364 -183 l 1417 -321 q 1256 -335 1349 -335 q 1020 -293 1100 -335 q 940 -174 940 -251 q 1026 -41 940 -94 q 1253 24 1111 13 l 1417 0 q 1221 -124 1221 -42 q 1247 -169 1221 -156 q 1314 -183 1274 -183 z "},"ą":{"ha":1167,"x_min":40,"x_max":1121,"o":"m 1100 121 q 1103 53 1100 81 q 1119 8 1107 25 l 1119 0 l 814 0 q 800 31 806 10 q 794 76 794 51 l 794 103 q 403 -31 682 -31 q 142 30 243 -31 q 40 217 40 90 q 107 392 40 338 q 299 457 174 447 l 693 490 q 756 505 736 493 q 775 542 775 517 q 738 585 775 571 q 615 600 700 600 q 485 583 531 600 q 429 524 440 565 l 93 524 q 228 726 99 671 q 601 781 357 781 q 877 763 771 781 q 1042 692 983 744 q 1100 543 1100 640 l 1100 121 m 789 353 q 757 341 778 346 q 715 333 736 336 l 472 303 q 392 277 418 296 q 365 221 365 258 q 399 163 365 181 q 504 146 433 146 q 706 190 622 146 q 789 326 789 233 l 789 353 m 1018 -183 q 1121 -171 1068 -183 l 1121 -321 q 960 -335 1053 -335 q 724 -293 804 -335 q 644 -174 644 -251 q 730 -41 644 -94 q 957 24 815 13 l 1121 0 q 925 -124 925 -42 q 951 -169 925 -156 q 1018 -183 978 -183 z "},"Ć":{"ha":1435,"x_min":50,"x_max":1385,"o":"m 1004 604 q 967 685 999 646 q 873 749 935 724 q 724 775 811 775 q 480 703 563 775 q 397 496 397 631 q 480 289 397 361 q 724 217 563 217 q 925 271 856 217 q 1003 408 994 325 l 1385 408 q 1210 81 1379 193 q 725 -32 1042 -32 q 224 99 399 -32 q 50 496 50 231 q 224 892 50 761 q 725 1024 399 1024 q 1207 915 1039 1024 q 1382 604 1375 806 l 1004 604 m 858 1081 l 592 1081 l 701 1285 l 1122 1285 l 858 1081 z "},"ć":{"ha":1214,"x_min":46,"x_max":1168,"o":"m 603 185 q 758 217 711 185 q 817 297 806 249 l 1168 297 q 1023 56 1153 142 q 603 -31 893 -31 q 46 375 46 -31 q 603 781 46 781 q 1020 696 892 781 q 1167 458 1149 611 l 818 458 q 756 535 803 506 q 603 565 710 565 q 371 375 371 565 q 603 185 371 185 m 736 833 l 469 833 l 579 1039 l 1000 1039 l 736 833 z "},"Ĉ":{"ha":1435,"x_min":50,"x_max":1385,"o":"m 1004 604 q 967 685 999 646 q 873 749 935 724 q 724 775 811 775 q 480 703 563 775 q 397 496 397 631 q 480 289 397 361 q 724 217 563 217 q 925 271 856 217 q 1003 408 994 325 l 1385 408 q 1210 81 1379 193 q 725 -32 1042 -32 q 224 99 399 -32 q 50 496 50 231 q 224 892 50 761 q 725 1024 399 1024 q 1207 915 1039 1024 q 1382 604 1375 806 l 1004 604 m 729 1179 l 721 1179 l 643 1081 l 326 1081 l 508 1285 l 942 1285 l 1124 1081 l 807 1081 l 729 1179 z "},"ĉ":{"ha":1214,"x_min":46,"x_max":1168,"o":"m 603 185 q 758 217 711 185 q 817 297 806 249 l 1168 297 q 1023 56 1153 142 q 603 -31 893 -31 q 46 375 46 -31 q 603 781 46 781 q 1020 696 892 781 q 1167 458 1149 611 l 818 458 q 756 535 803 506 q 603 565 710 565 q 371 375 371 565 q 603 185 371 185 m 607 932 l 599 932 l 521 833 l 204 833 l 386 1038 l 819 1038 l 1001 833 l 685 833 l 607 932 z "},"Ċ":{"ha":1435,"x_min":50,"x_max":1385,"o":"m 1004 604 q 967 685 999 646 q 873 749 935 724 q 724 775 811 775 q 480 703 563 775 q 397 496 397 631 q 480 289 397 361 q 724 217 563 217 q 925 271 856 217 q 1003 408 994 325 l 1385 408 q 1210 81 1379 193 q 725 -32 1042 -32 q 224 99 399 -32 q 50 496 50 231 q 224 892 50 761 q 725 1024 399 1024 q 1207 915 1039 1024 q 1382 604 1375 806 l 1004 604 m 567 1254 l 883 1254 l 883 1081 l 567 1081 l 567 1254 z "},"ċ":{"ha":1214,"x_min":46,"x_max":1168,"o":"m 603 185 q 758 217 711 185 q 817 297 806 249 l 1168 297 q 1023 56 1153 142 q 603 -31 893 -31 q 46 375 46 -31 q 603 781 46 781 q 1020 696 892 781 q 1167 458 1149 611 l 818 458 q 756 535 803 506 q 603 565 710 565 q 371 375 371 565 q 603 185 371 185 m 444 1011 l 761 1011 l 761 839 l 444 839 l 444 1011 z "},"Č":{"ha":1435,"x_min":50,"x_max":1385,"o":"m 1004 604 q 967 685 999 646 q 873 749 935 724 q 724 775 811 775 q 480 703 563 775 q 397 496 397 631 q 480 289 397 361 q 724 217 563 217 q 925 271 856 217 q 1003 408 994 325 l 1385 408 q 1210 81 1379 193 q 725 -32 1042 -32 q 224 99 399 -32 q 50 496 50 231 q 224 892 50 761 q 725 1024 399 1024 q 1207 915 1039 1024 q 1382 604 1375 806 l 1004 604 m 1124 1285 l 942 1081 l 508 1081 l 326 1285 l 643 1285 l 721 1186 l 729 1186 l 807 1285 l 1124 1285 z "},"č":{"ha":1214,"x_min":46,"x_max":1168,"o":"m 603 185 q 758 217 711 185 q 817 297 806 249 l 1168 297 q 1023 56 1153 142 q 603 -31 893 -31 q 46 375 46 -31 q 603 781 46 781 q 1020 696 892 781 q 1167 458 1149 611 l 818 458 q 756 535 803 506 q 603 565 710 565 q 371 375 371 565 q 603 185 371 185 m 1001 1038 l 819 833 l 386 833 l 204 1038 l 521 1038 l 599 939 l 607 939 l 685 1038 l 1001 1038 z "},"Ď":{"ha":1375,"x_min":81,"x_max":1325,"o":"m 769 992 q 1187 875 1049 992 q 1325 496 1325 758 q 1188 116 1325 232 q 769 0 1050 0 l 81 0 l 81 992 l 769 992 m 397 749 l 397 243 l 697 243 q 908 303 838 243 q 978 496 978 363 q 908 689 978 629 q 697 749 838 749 l 397 749 m 1056 1285 l 874 1081 l 440 1081 l 258 1285 l 575 1285 l 653 1186 l 661 1186 l 739 1285 l 1056 1285 z "},"ď":{"ha":1550,"x_min":46,"x_max":1543,"o":"m 843 664 l 843 1006 l 1154 1006 l 1154 0 l 849 0 l 849 85 l 840 85 q 703 -1 781 28 q 515 -31 625 -31 q 167 72 289 -31 q 46 369 46 175 q 167 667 46 564 q 515 769 289 769 q 699 742 624 769 q 835 664 775 715 l 843 664 m 1543 857 q 1524 739 1543 778 q 1435 681 1504 700 q 1217 661 1365 661 l 1217 742 q 1315 751 1283 742 q 1356 774 1347 760 q 1365 811 1365 789 l 1217 811 l 1217 1006 l 1543 1006 l 1543 857 m 607 185 q 791 233 729 185 q 853 369 853 282 q 791 506 853 457 q 607 554 729 554 q 427 507 483 554 q 371 369 371 460 q 427 232 371 279 q 607 185 483 185 z "},"Đ":{"ha":1375,"x_min":-10,"x_max":1325,"o":"m 769 992 q 1187 875 1049 992 q 1325 496 1325 758 q 1187 117 1325 233 q 769 0 1049 0 l 81 0 l 81 410 l -10 410 l -10 585 l 81 585 l 81 992 l 769 992 m 697 243 q 908 303 838 243 q 978 496 978 363 q 908 689 978 629 q 697 749 838 749 l 397 749 l 397 583 l 665 583 l 665 410 l 397 410 l 397 243 l 697 243 z "},"đ":{"ha":1232,"x_min":46,"x_max":1244,"o":"m 1244 936 l 1244 797 l 1154 797 l 1154 0 l 849 0 l 849 85 l 840 85 q 703 -1 781 28 q 515 -31 625 -31 q 167 72 289 -31 q 46 369 46 175 q 167 667 46 564 q 515 769 289 769 q 699 742 624 769 q 835 664 775 715 l 843 664 l 843 797 l 601 797 l 601 936 l 843 936 l 843 1006 l 1154 1006 l 1154 936 l 1244 936 m 607 185 q 791 233 729 185 q 853 369 853 282 q 791 506 853 457 q 607 554 729 554 q 427 507 483 554 q 371 369 371 460 q 427 232 371 279 q 607 185 483 185 z "},"Ē":{"ha":1228,"x_min":81,"x_max":1168,"o":"m 397 613 l 1122 613 l 1122 403 l 397 403 l 397 228 l 1168 228 l 1168 0 l 81 0 l 81 992 l 1153 992 l 1153 765 l 397 765 l 397 613 m 285 1082 l 285 1253 l 950 1253 l 950 1082 l 285 1082 z "},"ē":{"ha":1214,"x_min":46,"x_max":1168,"o":"m 1168 375 q 1165 304 1168 343 l 372 304 q 440 192 383 228 q 610 156 496 156 q 758 181 714 156 q 814 233 803 206 l 1158 233 q 1028 42 1149 115 q 610 -31 908 -31 q 46 375 46 -31 q 607 781 46 781 q 1031 676 893 781 q 1168 375 1168 572 m 607 596 q 451 567 507 596 q 378 476 396 538 l 835 476 q 763 567 818 538 q 607 596 707 596 m 275 849 l 275 1019 l 940 1019 l 940 849 l 275 849 z "},"Ĕ":{"ha":1228,"x_min":81,"x_max":1168,"o":"m 397 613 l 1122 613 l 1122 403 l 397 403 l 397 228 l 1168 228 l 1168 0 l 81 0 l 81 992 l 1153 992 l 1153 765 l 397 765 l 397 613 m 947 1289 q 897 1164 946 1215 q 774 1088 849 1113 q 618 1063 699 1063 q 463 1088 538 1063 q 339 1164 388 1113 q 289 1289 290 1215 l 532 1289 q 618 1231 539 1231 q 703 1289 696 1231 l 947 1289 z "},"ĕ":{"ha":1214,"x_min":46,"x_max":1168,"o":"m 1168 375 q 1165 304 1168 343 l 372 304 q 440 192 383 228 q 610 156 496 156 q 758 181 714 156 q 814 233 803 206 l 1158 233 q 1028 42 1149 115 q 610 -31 908 -31 q 46 375 46 -31 q 607 781 46 781 q 1031 676 893 781 q 1168 375 1168 572 m 607 596 q 451 567 507 596 q 378 476 396 538 l 835 476 q 763 567 818 538 q 607 596 707 596 m 938 1042 q 888 917 936 968 q 764 840 839 865 q 608 815 689 815 q 453 840 528 815 q 329 917 378 865 q 279 1042 281 968 l 522 1042 q 608 983 529 983 q 693 1042 686 983 l 938 1042 z "},"Ė":{"ha":1228,"x_min":81,"x_max":1168,"o":"m 397 613 l 1122 613 l 1122 403 l 397 403 l 397 228 l 1168 228 l 1168 0 l 81 0 l 81 992 l 1153 992 l 1153 765 l 397 765 l 397 613 m 458 1254 l 775 1254 l 775 1081 l 458 1081 l 458 1254 z "},"ė":{"ha":1214,"x_min":46,"x_max":1168,"o":"m 1168 375 q 1165 304 1168 343 l 372 304 q 440 192 383 228 q 610 156 496 156 q 758 181 714 156 q 814 233 803 206 l 1158 233 q 1028 42 1149 115 q 610 -31 908 -31 q 46 375 46 -31 q 607 781 46 781 q 1031 676 893 781 q 1168 375 1168 572 m 607 596 q 451 567 507 596 q 378 476 396 538 l 835 476 q 763 567 818 538 q 607 596 707 596 m 450 1011 l 767 1011 l 767 839 l 450 839 l 450 1011 z "},"Ę":{"ha":1228,"x_min":81,"x_max":1168,"o":"m 397 613 l 1122 613 l 1122 403 l 397 403 l 397 228 l 1168 228 l 1168 0 l 81 0 l 81 992 l 1153 992 l 1153 765 l 397 765 l 397 613 m 1065 -183 q 1168 -171 1115 -183 l 1168 -321 q 1007 -335 1100 -335 q 772 -293 851 -335 q 692 -174 692 -251 q 777 -41 692 -94 q 1004 24 863 13 l 1168 0 q 972 -124 972 -42 q 999 -169 972 -156 q 1065 -183 1025 -183 z "},"ę":{"ha":1214,"x_min":46,"x_max":1168,"o":"m 1168 375 q 1165 304 1168 343 l 372 304 q 440 192 383 228 q 610 156 496 156 q 758 181 714 156 q 814 233 803 206 l 1158 233 q 1095 90 1151 151 q 908 0 1039 29 q 717 -131 717 -51 q 743 -171 717 -158 q 810 -183 769 -183 q 913 -171 860 -183 l 913 -321 q 751 -335 844 -335 q 516 -294 596 -335 q 436 -179 436 -253 q 466 -97 436 -136 q 550 -29 496 -58 q 168 85 290 -18 q 46 375 46 188 q 607 781 46 781 q 1031 676 893 781 q 1168 375 1168 572 m 607 596 q 451 567 507 596 q 378 476 396 538 l 835 476 q 763 567 818 538 q 607 596 707 596 z "},"Ě":{"ha":1228,"x_min":81,"x_max":1168,"o":"m 397 613 l 1122 613 l 1122 403 l 397 403 l 397 228 l 1168 228 l 1168 0 l 81 0 l 81 992 l 1153 992 l 1153 765 l 397 765 l 397 613 m 1015 1285 l 833 1081 l 400 1081 l 218 1285 l 535 1285 l 613 1186 l 621 1186 l 699 1285 l 1015 1285 z "},"ě":{"ha":1214,"x_min":46,"x_max":1168,"o":"m 1168 375 q 1165 304 1168 343 l 372 304 q 440 192 383 228 q 610 156 496 156 q 758 181 714 156 q 814 233 803 206 l 1158 233 q 1028 42 1149 115 q 610 -31 908 -31 q 46 375 46 -31 q 607 781 46 781 q 1031 676 893 781 q 1168 375 1168 572 m 607 596 q 451 567 507 596 q 378 476 396 538 l 835 476 q 763 567 818 538 q 607 596 707 596 m 1007 1038 l 825 833 l 392 833 l 210 1038 l 526 1038 l 604 939 l 613 939 l 690 1038 l 1007 1038 z "},"Ĝ":{"ha":1471,"x_min":50,"x_max":1393,"o":"m 1393 0 l 1169 0 l 1169 114 q 995 3 1100 39 q 747 -32 890 -32 q 228 99 406 -32 q 50 496 50 229 q 226 893 50 763 q 738 1024 403 1024 q 1215 922 1054 1024 q 1389 646 1376 821 l 1011 646 q 936 733 997 692 q 738 775 875 775 q 482 703 567 775 q 397 496 397 631 q 749 207 397 207 q 915 231 850 207 q 1010 288 981 256 q 1042 349 1040 321 l 774 349 l 774 553 l 1393 553 l 1393 0 m 743 1179 l 735 1179 l 657 1081 l 340 1081 l 522 1285 l 956 1285 l 1138 1081 l 821 1081 l 743 1179 z "},"ĝ":{"ha":1213,"x_min":46,"x_max":1143,"o":"m 1143 750 l 1143 46 q 1105 -143 1143 -76 q 953 -242 1067 -210 q 607 -274 839 -274 q 270 -241 386 -274 q 113 -152 154 -208 q 64 -4 71 -96 l 411 -4 q 435 -48 419 -31 q 493 -76 451 -65 q 613 -87 535 -87 q 753 -74 707 -87 q 816 -33 800 -61 q 832 46 832 -6 l 832 160 l 824 160 q 508 58 714 58 q 165 149 283 58 q 46 414 46 239 q 165 679 46 589 q 508 769 283 769 q 829 663 719 769 l 838 663 l 838 750 l 1143 750 m 600 267 q 780 306 721 267 q 839 414 839 344 q 780 522 839 483 q 600 561 721 561 q 426 524 481 561 q 371 414 371 486 q 426 304 371 342 q 600 267 481 267 m 599 932 l 590 932 l 513 833 l 196 833 l 378 1038 l 811 1038 l 993 833 l 676 833 l 599 932 z "},"Ğ":{"ha":1471,"x_min":50,"x_max":1393,"o":"m 1393 0 l 1169 0 l 1169 114 q 995 3 1100 39 q 747 -32 890 -32 q 228 99 406 -32 q 50 496 50 229 q 226 893 50 763 q 738 1024 403 1024 q 1215 922 1054 1024 q 1389 646 1376 821 l 1011 646 q 936 733 997 692 q 738 775 875 775 q 482 703 567 775 q 397 496 397 631 q 749 207 397 207 q 915 231 850 207 q 1010 288 981 256 q 1042 349 1040 321 l 774 349 l 774 553 l 1393 553 l 1393 0 m 1068 1289 q 1018 1164 1067 1215 q 894 1088 969 1113 q 739 1063 819 1063 q 583 1088 658 1063 q 460 1164 508 1113 q 410 1289 411 1215 l 653 1289 q 739 1231 660 1231 q 824 1289 817 1231 l 1068 1289 z "},"ğ":{"ha":1213,"x_min":46,"x_max":1143,"o":"m 1143 750 l 1143 46 q 1105 -143 1143 -76 q 953 -242 1067 -210 q 607 -274 839 -274 q 270 -241 386 -274 q 113 -152 154 -208 q 64 -4 71 -96 l 411 -4 q 435 -48 419 -31 q 493 -76 451 -65 q 613 -87 535 -87 q 753 -74 707 -87 q 816 -33 800 -61 q 832 46 832 -6 l 832 160 l 824 160 q 508 58 714 58 q 165 149 283 58 q 46 414 46 239 q 165 679 46 589 q 508 769 283 769 q 829 663 719 769 l 838 663 l 838 750 l 1143 750 m 600 267 q 780 306 721 267 q 839 414 839 344 q 780 522 839 483 q 600 561 721 561 q 426 524 481 561 q 371 414 371 486 q 426 304 371 342 q 600 267 481 267 m 925 1042 q 875 917 924 968 q 751 840 826 865 q 596 815 676 815 q 440 840 515 815 q 317 917 365 865 q 267 1042 268 968 l 510 1042 q 596 983 517 983 q 681 1042 674 983 l 925 1042 z "},"Ġ":{"ha":1471,"x_min":50,"x_max":1393,"o":"m 1393 0 l 1169 0 l 1169 114 q 995 3 1100 39 q 747 -32 890 -32 q 228 99 406 -32 q 50 496 50 229 q 226 893 50 763 q 738 1024 403 1024 q 1215 922 1054 1024 q 1389 646 1376 821 l 1011 646 q 936 733 997 692 q 738 775 875 775 q 482 703 567 775 q 397 496 397 631 q 749 207 397 207 q 915 231 850 207 q 1010 288 981 256 q 1042 349 1040 321 l 774 349 l 774 553 l 1393 553 l 1393 0 m 581 1254 l 897 1254 l 897 1081 l 581 1081 l 581 1254 z "},"ġ":{"ha":1213,"x_min":46,"x_max":1143,"o":"m 1143 750 l 1143 46 q 1105 -143 1143 -76 q 953 -242 1067 -210 q 607 -274 839 -274 q 270 -241 386 -274 q 113 -152 154 -208 q 64 -4 71 -96 l 411 -4 q 435 -48 419 -31 q 493 -76 451 -65 q 613 -87 535 -87 q 753 -74 707 -87 q 816 -33 800 -61 q 832 46 832 -6 l 832 160 l 824 160 q 508 58 714 58 q 165 149 283 58 q 46 414 46 239 q 165 679 46 589 q 508 769 283 769 q 829 663 719 769 l 838 663 l 838 750 l 1143 750 m 600 267 q 780 306 721 267 q 839 414 839 344 q 780 522 839 483 q 600 561 721 561 q 426 524 481 561 q 371 414 371 486 q 426 304 371 342 q 600 267 481 267 m 436 1011 l 753 1011 l 753 839 l 436 839 l 436 1011 z "},"Ģ":{"ha":1471,"x_min":50,"x_max":1393,"o":"m 1393 0 l 1169 0 l 1169 114 q 995 3 1100 39 q 747 -32 890 -32 q 228 99 406 -32 q 50 496 50 229 q 226 893 50 763 q 738 1024 403 1024 q 1215 922 1054 1024 q 1389 646 1376 821 l 1011 646 q 936 733 997 692 q 738 775 875 775 q 482 703 567 775 q 397 496 397 631 q 749 207 397 207 q 915 231 850 207 q 1010 288 981 256 q 1042 349 1040 321 l 774 349 l 774 553 l 1393 553 l 1393 0 m 901 -214 q 882 -329 901 -290 q 796 -387 863 -368 q 585 -406 729 -406 l 585 -326 q 676 -317 646 -326 q 715 -294 707 -308 q 724 -257 724 -279 l 585 -257 l 585 -85 l 901 -85 l 901 -214 z "},"ģ":{"ha":1213,"x_min":46,"x_max":1143,"o":"m 431 960 q 451 1069 431 1032 q 540 1124 471 1106 q 758 1143 610 1143 l 758 1075 q 660 1066 692 1075 q 619 1042 628 1057 q 610 1006 610 1028 l 758 1006 l 758 833 l 431 833 l 431 960 m 1143 750 l 1143 46 q 1105 -143 1143 -76 q 953 -242 1067 -210 q 607 -274 839 -274 q 270 -241 386 -274 q 113 -152 154 -208 q 64 -4 71 -96 l 411 -4 q 435 -48 419 -31 q 493 -76 451 -65 q 613 -87 535 -87 q 753 -74 707 -87 q 816 -33 800 -61 q 832 46 832 -6 l 832 160 l 824 160 q 508 58 714 58 q 165 149 283 58 q 46 414 46 239 q 165 679 46 589 q 508 769 283 769 q 829 663 719 769 l 838 663 l 838 750 l 1143 750 m 600 267 q 780 306 721 267 q 839 414 839 344 q 780 522 839 483 q 600 561 721 561 q 426 524 481 561 q 371 414 371 486 q 426 304 371 342 q 600 267 481 267 z "},"Ĥ":{"ha":1385,"x_min":81,"x_max":1304,"o":"m 1304 992 l 1304 0 l 988 0 l 988 383 l 397 383 l 397 0 l 81 0 l 81 992 l 397 992 l 397 628 l 988 628 l 988 992 l 1304 992 m 697 1179 l 689 1179 l 611 1081 l 294 1081 l 476 1285 l 910 1285 l 1092 1081 l 775 1081 l 697 1179 z "},"ĥ":{"ha":1186,"x_min":-174,"x_max":1117,"o":"m 742 769 q 1015 697 914 769 q 1117 481 1117 625 l 1117 0 l 806 0 l 806 382 q 613 531 806 531 q 448 485 515 531 q 381 339 381 440 l 381 0 l 69 0 l 69 1006 l 381 1006 l 381 656 l 389 656 q 742 769 515 769 m 229 1179 l 221 1179 l 143 1081 l -174 1081 l 8 1285 l 442 1285 l 624 1081 l 307 1081 l 229 1179 z "},"Ħ":{"ha":1385,"x_min":-10,"x_max":1394,"o":"m 1394 721 l 1304 721 l 1304 0 l 988 0 l 988 383 l 397 383 l 397 0 l 81 0 l 81 721 l -10 721 l -10 897 l 81 897 l 81 992 l 397 992 l 397 897 l 988 897 l 988 992 l 1304 992 l 1304 897 l 1394 897 l 1394 721 m 988 721 l 397 721 l 397 628 l 988 628 l 988 721 z "},"ħ":{"ha":1193,"x_min":-12,"x_max":1124,"o":"m 750 769 q 1022 697 921 769 q 1124 481 1124 625 l 1124 0 l 813 0 l 813 382 q 619 531 813 531 q 456 485 524 531 q 389 339 389 440 l 389 0 l 78 0 l 78 797 l -12 797 l -12 936 l 78 936 l 78 1006 l 389 1006 l 389 936 l 629 936 l 629 797 l 389 797 l 389 656 l 397 656 q 750 769 521 769 z "},"Ĩ":{"ha":478,"x_min":-128,"x_max":606,"o":"m 81 0 l 81 992 l 397 992 l 397 0 l 81 0 m 385 1054 q 313 1065 350 1054 q 222 1093 275 1075 q 164 1111 192 1103 q 121 1119 136 1119 q 86 1109 94 1119 q 75 1069 78 1099 l -128 1069 q -95 1199 -128 1146 q -12 1277 -62 1251 q 89 1303 38 1303 q 163 1292 124 1303 q 256 1264 201 1282 q 299 1250 263 1261 q 357 1239 335 1239 q 390 1249 382 1239 q 401 1288 399 1260 l 606 1288 q 572 1158 606 1211 q 488 1080 539 1106 q 385 1054 438 1054 z "},"ĩ":{"ha":450,"x_min":-142,"x_max":592,"o":"m 69 750 l 381 750 l 381 0 l 69 0 l 69 750 m 371 808 q 299 819 336 808 q 208 847 261 829 q 150 865 178 857 q 107 874 122 874 q 72 863 81 874 q 61 824 64 853 l -142 824 q -109 953 -142 900 q -26 1031 -76 1006 q 75 1057 24 1057 q 151 1047 111 1057 q 242 1019 190 1038 q 299 1001 271 1010 q 343 993 326 993 q 376 1003 368 993 q 388 1042 385 1014 l 592 1042 q 558 913 592 965 q 474 834 525 860 q 371 808 424 808 z "},"Ī":{"ha":478,"x_min":-94,"x_max":571,"o":"m 81 0 l 81 992 l 397 992 l 397 0 l 81 0 m -94 1082 l -94 1253 l 571 1253 l 571 1082 l -94 1082 z "},"ī":{"ha":450,"x_min":-107,"x_max":558,"o":"m 69 750 l 381 750 l 381 0 l 69 0 l 69 750 m -107 849 l -107 1019 l 558 1019 l 558 849 l -107 849 z "},"Ĭ":{"ha":478,"x_min":-90,"x_max":568,"o":"m 81 0 l 81 992 l 397 992 l 397 0 l 81 0 m 568 1289 q 518 1164 567 1215 q 394 1088 469 1113 q 239 1063 319 1063 q 83 1088 158 1063 q -40 1164 8 1113 q -90 1289 -89 1215 l 153 1289 q 239 1231 160 1231 q 324 1289 317 1231 l 568 1289 z "},"ĭ":{"ha":450,"x_min":-103,"x_max":556,"o":"m 69 750 l 381 750 l 381 0 l 69 0 l 69 750 m 556 1042 q 461 873 553 931 q 226 815 369 815 q -8 873 83 815 q -103 1042 -100 931 l 140 1042 q 226 983 147 983 q 311 1042 304 983 l 556 1042 z "},"Į":{"ha":478,"x_min":-79,"x_max":397,"o":"m 81 0 l 81 992 l 397 992 l 397 0 l 81 0 m 294 -183 q 397 -171 344 -183 l 397 -321 q 236 -335 329 -335 q 1 -293 81 -335 q -79 -174 -79 -251 q 6 -41 -79 -94 q 233 24 92 13 l 397 0 q 201 -124 201 -42 q 228 -169 201 -156 q 294 -183 254 -183 z "},"į":{"ha":450,"x_min":-96,"x_max":383,"o":"m 69 750 l 381 750 l 381 0 l 69 0 l 69 750 m 67 1011 l 383 1011 l 383 839 l 67 839 l 67 1011 m 278 -183 q 381 -171 328 -183 l 381 -321 q 219 -335 313 -335 q -16 -293 64 -335 q -96 -174 -96 -251 q -10 -41 -96 -94 q 217 24 75 13 l 381 0 q 185 -124 185 -42 q 211 -169 185 -156 q 278 -183 238 -183 z "},"İ":{"ha":478,"x_min":81,"x_max":397,"o":"m 81 0 l 81 992 l 397 992 l 397 0 l 81 0 m 81 1254 l 397 1254 l 397 1081 l 81 1081 l 81 1254 z "},"ı":{"ha":450,"x_min":69,"x_max":381,"o":"m 69 750 l 381 750 l 381 0 l 69 0 l 69 750 z "},"Ĳ":{"ha":1751,"x_min":81,"x_max":1671,"o":"m 81 0 l 81 992 l 397 992 l 397 0 l 81 0 m 1671 431 q 1601 153 1671 254 q 1403 10 1531 51 q 1090 -32 1276 -32 q 778 10 904 -32 q 584 153 653 51 q 515 431 515 254 l 515 507 l 832 507 l 832 429 q 899 268 832 317 q 1090 219 967 219 q 1354 429 1354 219 l 1354 992 l 1671 992 l 1671 431 z "},"ĳ":{"ha":904,"x_min":67,"x_max":838,"o":"m 69 750 l 381 750 l 381 0 l 69 0 l 69 750 m 67 1011 l 383 1011 l 383 839 l 67 839 l 67 1011 m 422 -29 q 499 -17 475 -29 q 524 32 524 -4 l 524 750 l 835 750 l 835 -44 q 802 -186 835 -137 q 694 -254 769 -235 q 479 -274 618 -274 q 331 -268 379 -274 l 331 -28 l 422 -29 m 521 1011 l 838 1011 l 838 839 l 521 839 l 521 1011 z "},"Ĵ":{"ha":1274,"x_min":38,"x_max":1435,"o":"m 1193 431 q 1123 153 1193 254 q 926 10 1053 51 q 613 -32 799 -32 q 301 10 426 -32 q 106 153 175 51 q 38 431 38 254 l 38 507 l 354 507 l 354 429 q 422 268 354 317 q 613 219 489 219 q 876 429 876 219 l 876 992 l 1193 992 l 1193 431 m 1040 1179 l 1032 1179 l 954 1081 l 638 1081 l 819 1285 l 1253 1285 l 1435 1081 l 1118 1081 l 1040 1179 z "},"ĵ":{"ha":454,"x_min":-169,"x_max":628,"o":"m -28 -29 q 49 -17 25 -29 q 74 32 74 -4 l 74 750 l 385 750 l 385 -44 q 352 -186 385 -137 q 244 -254 319 -235 q 29 -274 168 -274 q -119 -268 -71 -274 l -119 -28 l -28 -29 m 233 932 l 225 932 l 147 833 l -169 833 l 13 1038 l 446 1038 l 628 833 l 311 833 l 233 932 z "},"Ķ":{"ha":1364,"x_min":81,"x_max":1360,"o":"m 1360 0 l 961 0 l 619 446 l 397 267 l 397 0 l 81 0 l 81 992 l 397 992 l 397 589 l 879 992 l 1296 992 l 858 639 l 1360 0 m 838 -214 q 818 -329 838 -290 q 732 -387 799 -368 q 521 -406 665 -406 l 521 -326 q 613 -317 582 -326 q 651 -294 643 -308 q 660 -257 660 -279 l 521 -257 l 521 -85 l 838 -85 l 838 -214 z "},"ķ":{"ha":1128,"x_min":69,"x_max":1125,"o":"m 1125 0 l 739 0 l 493 282 l 381 193 l 381 0 l 69 0 l 69 1006 l 381 1006 l 381 485 l 701 750 l 1090 750 l 715 454 l 1125 0 m 718 -214 q 699 -329 718 -290 q 613 -387 679 -368 q 401 -406 546 -406 l 401 -326 q 493 -317 463 -326 q 532 -294 524 -308 q 540 -257 540 -279 l 401 -257 l 401 -85 l 718 -85 l 718 -214 z "},"ĸ":{"ha":1128,"x_min":69,"x_max":1125,"o":"m 1125 0 l 739 0 l 493 282 l 381 193 l 381 0 l 69 0 l 69 750 l 381 750 l 381 485 l 701 750 l 1090 750 l 715 454 l 1125 0 z "},"Ĺ":{"ha":1206,"x_min":81,"x_max":1157,"o":"m 81 0 l 81 992 l 397 992 l 397 251 l 1157 251 l 1157 0 l 81 0 m 372 1081 l 106 1081 l 215 1285 l 636 1285 l 372 1081 z "},"ĺ":{"ha":450,"x_min":69,"x_max":622,"o":"m 69 1006 l 381 1006 l 381 0 l 69 0 l 69 1006 m 358 1081 l 92 1081 l 201 1285 l 622 1285 l 358 1081 z "},"Ļ":{"ha":1206,"x_min":81,"x_max":1157,"o":"m 81 0 l 81 992 l 397 992 l 397 251 l 1157 251 l 1157 0 l 81 0 m 776 -214 q 757 -329 776 -290 q 671 -387 738 -368 q 460 -406 604 -406 l 460 -326 q 551 -317 521 -326 q 590 -294 582 -308 q 599 -257 599 -279 l 460 -257 l 460 -85 l 776 -85 l 776 -214 z "},"ļ":{"ha":450,"x_min":67,"x_max":383,"o":"m 69 1006 l 381 1006 l 381 0 l 69 0 l 69 1006 m 383 -214 q 364 -329 383 -290 q 278 -387 344 -368 q 67 -406 211 -406 l 67 -326 q 158 -317 128 -326 q 197 -294 189 -308 q 206 -257 206 -279 l 67 -257 l 67 -85 l 383 -85 l 383 -214 z "},"Ľ":{"ha":1206,"x_min":81,"x_max":1157,"o":"m 892 828 q 819 594 892 664 q 581 525 746 525 l 581 622 q 689 663 656 622 q 722 764 722 703 l 581 764 l 581 1006 l 892 1006 l 892 828 m 81 0 l 81 992 l 397 992 l 397 251 l 1157 251 l 1157 0 l 81 0 z "},"ľ":{"ha":776,"x_min":69,"x_max":769,"o":"m 69 1006 l 381 1006 l 381 0 l 69 0 l 69 1006 m 769 857 q 750 739 769 778 q 661 681 731 700 q 443 661 592 661 l 443 742 q 541 751 508 742 q 583 774 574 760 q 592 811 592 789 l 443 811 l 443 1006 l 769 1006 l 769 857 z "},"Ŀ":{"ha":1196,"x_min":81,"x_max":1146,"o":"m 81 0 l 81 992 l 397 992 l 397 256 l 1146 256 l 1146 0 l 81 0 m 767 394 q 623 440 674 394 q 572 567 572 485 q 623 694 572 649 q 767 739 674 739 q 914 694 863 739 q 965 567 965 649 q 914 440 965 485 q 767 394 863 394 z "},"ŀ":{"ha":844,"x_min":69,"x_max":828,"o":"m 69 1006 l 381 1006 l 381 0 l 69 0 l 69 1006 m 629 328 q 485 373 536 328 q 435 500 435 418 q 485 628 435 583 q 629 674 536 674 q 776 628 725 674 q 828 500 828 583 q 776 373 828 418 q 629 328 725 328 z "},"Ł":{"ha":1217,"x_min":0,"x_max":1167,"o":"m 1167 251 l 1167 0 l 90 0 l 90 275 l 0 238 l 0 469 l 90 506 l 90 992 l 407 992 l 407 633 l 783 786 l 783 556 l 407 403 l 407 251 l 1167 251 z "},"ł":{"ha":471,"x_min":-11,"x_max":482,"o":"m 482 556 l 390 518 l 390 0 l 79 0 l 79 389 l -11 351 l -11 551 l 79 589 l 79 1006 l 390 1006 l 390 718 l 482 756 l 482 556 z "},"Ń":{"ha":1385,"x_min":81,"x_max":1304,"o":"m 1304 992 l 1304 0 l 939 0 l 390 626 l 382 626 l 382 0 l 81 0 l 81 992 l 453 992 l 993 375 l 1001 375 l 1001 992 l 1304 992 m 826 1081 l 560 1081 l 669 1285 l 1090 1285 l 826 1081 z "},"ń":{"ha":1186,"x_min":69,"x_max":1117,"o":"m 375 656 l 383 656 q 540 742 451 714 q 742 769 628 769 q 1015 697 914 769 q 1117 481 1117 625 l 1117 0 l 806 0 l 806 382 q 613 531 806 531 q 449 485 517 531 q 381 339 381 440 l 381 0 l 69 0 l 69 750 l 375 750 l 375 656 m 726 833 l 460 833 l 569 1039 l 990 1039 l 726 833 z "},"Ņ":{"ha":1385,"x_min":81,"x_max":1304,"o":"m 1304 992 l 1304 0 l 939 0 l 390 626 l 382 626 l 382 0 l 81 0 l 81 992 l 453 992 l 993 375 l 1001 375 l 1001 992 l 1304 992 m 851 -214 q 832 -329 851 -290 q 746 -387 813 -368 q 535 -406 679 -406 l 535 -326 q 626 -317 596 -326 q 665 -294 657 -308 q 674 -257 674 -279 l 535 -257 l 535 -85 l 851 -85 l 851 -214 z "},"ņ":{"ha":1186,"x_min":69,"x_max":1117,"o":"m 375 656 l 383 656 q 540 742 451 714 q 742 769 628 769 q 1015 697 914 769 q 1117 481 1117 625 l 1117 0 l 806 0 l 806 382 q 613 531 806 531 q 449 485 517 531 q 381 339 381 440 l 381 0 l 69 0 l 69 750 l 375 750 l 375 656 m 751 -214 q 732 -329 751 -290 q 646 -387 713 -368 q 435 -406 579 -406 l 435 -326 q 526 -317 496 -326 q 565 -294 557 -308 q 574 -257 574 -279 l 435 -257 l 435 -85 l 751 -85 l 751 -214 z "},"Ň":{"ha":1385,"x_min":81,"x_max":1304,"o":"m 1304 992 l 1304 0 l 939 0 l 390 626 l 382 626 l 382 0 l 81 0 l 81 992 l 453 992 l 993 375 l 1001 375 l 1001 992 l 1304 992 m 1092 1285 l 910 1081 l 476 1081 l 294 1285 l 611 1285 l 689 1186 l 697 1186 l 775 1285 l 1092 1285 z "},"ň":{"ha":1186,"x_min":69,"x_max":1117,"o":"m 375 656 l 383 656 q 540 742 451 714 q 742 769 628 769 q 1015 697 914 769 q 1117 481 1117 625 l 1117 0 l 806 0 l 806 382 q 613 531 806 531 q 449 485 517 531 q 381 339 381 440 l 381 0 l 69 0 l 69 750 l 375 750 l 375 656 m 992 1038 l 810 833 l 376 833 l 194 1038 l 511 1038 l 589 939 l 597 939 l 675 1038 l 992 1038 z "},"ŉ":{"ha":1501,"x_min":24,"x_max":1432,"o":"m 350 857 q 331 739 350 778 q 242 681 311 700 q 24 661 172 661 l 24 742 q 122 751 90 742 q 163 774 154 760 q 172 811 172 789 l 24 811 l 24 1006 l 350 1006 l 350 857 m 690 656 l 699 656 q 856 742 767 714 q 1058 769 944 769 q 1331 697 1229 769 q 1432 481 1432 625 l 1432 0 l 1121 0 l 1121 382 q 928 531 1121 531 q 764 485 832 531 q 696 339 696 440 l 696 0 l 385 0 l 385 750 l 690 750 l 690 656 z "},"Ŋ":{"ha":1385,"x_min":81,"x_max":1304,"o":"m 1304 992 l 1304 8 q 1198 -203 1304 -132 q 865 -274 1092 -274 q 535 -202 644 -274 q 426 0 426 -131 q 428 25 426 17 l 715 25 l 715 6 q 858 -78 715 -78 q 1000 -11 986 -78 l 390 613 l 382 613 l 382 0 l 81 0 l 81 992 l 438 992 l 993 422 l 1001 422 l 1001 992 l 1304 992 z "},"ŋ":{"ha":1186,"x_min":69,"x_max":1117,"o":"m 742 769 q 1015 697 914 769 q 1117 481 1117 625 l 1117 -44 q 1084 -186 1117 -137 q 976 -254 1051 -235 q 761 -274 900 -274 q 613 -268 661 -274 l 613 -28 l 704 -29 q 781 -17 757 -29 q 806 32 806 -4 l 806 382 q 613 531 806 531 q 449 485 517 531 q 381 339 381 440 l 381 0 l 69 0 l 69 750 l 375 750 l 375 656 l 383 656 q 540 742 451 714 q 742 769 628 769 z "},"Ō":{"ha":1476,"x_min":50,"x_max":1426,"o":"m 738 1024 q 1249 893 1072 1024 q 1426 496 1426 763 q 1249 99 1426 229 q 738 -32 1072 -32 q 226 99 403 -32 q 50 496 50 229 q 226 893 50 763 q 738 1024 403 1024 m 738 217 q 994 289 910 217 q 1079 496 1079 361 q 994 703 1079 631 q 738 775 910 775 q 482 703 567 775 q 397 496 397 631 q 482 289 397 361 q 738 217 567 217 m 406 1082 l 406 1253 l 1071 1253 l 1071 1082 l 406 1082 z "},"ō":{"ha":1214,"x_min":46,"x_max":1168,"o":"m 607 781 q 1168 375 1168 781 q 607 -31 1168 -31 q 46 375 46 -31 q 607 781 46 781 m 607 185 q 843 375 843 185 q 787 517 843 468 q 607 565 731 565 q 427 517 483 565 q 371 375 371 468 q 607 185 371 185 m 275 849 l 275 1019 l 940 1019 l 940 849 l 275 849 z "},"Ŏ":{"ha":1476,"x_min":50,"x_max":1426,"o":"m 738 1024 q 1249 893 1072 1024 q 1426 496 1426 763 q 1249 99 1426 229 q 738 -32 1072 -32 q 226 99 403 -32 q 50 496 50 229 q 226 893 50 763 q 738 1024 403 1024 m 738 217 q 994 289 910 217 q 1079 496 1079 361 q 994 703 1079 631 q 738 775 910 775 q 482 703 567 775 q 397 496 397 631 q 482 289 397 361 q 738 217 567 217 m 1068 1289 q 1018 1164 1067 1215 q 894 1088 969 1113 q 739 1063 819 1063 q 583 1088 658 1063 q 460 1164 508 1113 q 410 1289 411 1215 l 653 1289 q 739 1231 660 1231 q 824 1289 817 1231 l 1068 1289 z "},"ŏ":{"ha":1214,"x_min":46,"x_max":1168,"o":"m 607 781 q 1168 375 1168 781 q 607 -31 1168 -31 q 46 375 46 -31 q 607 781 46 781 m 607 185 q 843 375 843 185 q 787 517 843 468 q 607 565 731 565 q 427 517 483 565 q 371 375 371 468 q 607 185 371 185 m 936 1042 q 886 917 935 968 q 763 840 838 865 q 607 815 688 815 q 451 840 526 815 q 328 917 376 865 q 278 1042 279 968 l 521 1042 q 607 983 528 983 q 692 1042 685 983 l 936 1042 z "},"Ő":{"ha":1476,"x_min":50,"x_max":1426,"o":"m 738 1024 q 1249 893 1072 1024 q 1426 496 1426 763 q 1249 99 1426 229 q 738 -32 1072 -32 q 226 99 403 -32 q 50 496 50 229 q 226 893 50 763 q 738 1024 403 1024 m 738 217 q 994 289 910 217 q 1079 496 1079 361 q 994 703 1079 631 q 738 775 910 775 q 482 703 567 775 q 397 496 397 631 q 482 289 397 361 q 738 217 567 217 m 663 1081 l 413 1081 l 514 1285 l 842 1285 l 663 1081 m 1063 1081 l 813 1081 l 915 1285 l 1243 1285 l 1063 1081 z "},"ő":{"ha":1214,"x_min":46,"x_max":1168,"o":"m 607 781 q 1168 375 1168 781 q 607 -31 1168 -31 q 46 375 46 -31 q 607 781 46 781 m 607 185 q 843 375 843 185 q 787 517 843 468 q 607 565 731 565 q 427 517 483 565 q 371 375 371 468 q 607 185 371 185 m 531 833 l 281 833 l 382 1039 l 710 1039 l 531 833 m 931 833 l 681 833 l 783 1039 l 1111 1039 l 931 833 z "},"Œ":{"ha":2063,"x_min":50,"x_max":2003,"o":"m 2003 236 l 2003 0 l 1040 0 l 1040 93 l 1032 93 q 878 1 976 33 q 653 -32 779 -32 q 342 26 478 -32 q 128 202 206 83 q 50 496 50 321 q 128 790 50 671 q 342 966 206 908 q 653 1024 478 1024 q 878 991 779 1024 q 1032 899 976 958 l 1040 899 l 1040 992 l 1986 992 l 1986 754 l 1343 754 l 1343 614 l 1957 614 l 1957 394 l 1343 394 l 1343 236 l 2003 236 m 719 229 q 955 299 869 229 q 1040 496 1040 368 q 956 694 1040 625 q 719 763 871 763 q 483 694 568 763 q 397 496 397 625 q 483 299 397 368 q 719 229 568 229 z "},"œ":{"ha":1936,"x_min":46,"x_max":1892,"o":"m 1892 375 q 1888 304 1892 333 l 1132 304 q 1196 192 1143 229 q 1350 156 1249 156 q 1485 181 1443 156 q 1538 233 1526 206 l 1882 233 q 1759 43 1876 117 q 1358 -31 1642 -31 q 1128 1 1224 -31 q 969 97 1032 33 q 810 1 906 33 q 579 -31 714 -31 q 178 74 310 -31 q 46 375 46 179 q 178 676 46 572 q 579 781 310 781 q 810 749 714 781 q 969 654 906 718 q 1126 749 1031 718 q 1358 781 1222 781 q 1759 676 1626 781 q 1892 375 1892 571 m 1349 596 q 1139 476 1175 596 l 1558 476 q 1490 566 1540 536 q 1349 596 1439 596 m 588 185 q 753 235 699 185 q 807 375 807 285 q 753 515 807 465 q 588 565 699 565 q 424 515 478 565 q 371 375 371 465 q 424 235 371 285 q 588 185 478 185 z "},"Ŕ":{"ha":1365,"x_min":81,"x_max":1339,"o":"m 1339 0 l 971 0 l 781 318 l 397 318 l 397 0 l 81 0 l 81 992 l 925 992 q 1222 911 1131 992 q 1314 665 1314 831 q 1258 474 1314 539 q 1100 385 1203 410 l 1100 374 l 1339 0 m 849 543 q 937 568 910 543 q 964 644 964 593 q 937 720 964 696 q 849 744 910 744 l 397 744 l 397 543 l 849 543 m 776 1081 l 510 1081 l 619 1285 l 1040 1285 l 776 1081 z "},"ŕ":{"ha":888,"x_min":69,"x_max":860,"o":"m 375 750 l 375 649 l 383 649 q 542 741 450 713 q 767 769 633 769 q 856 764 811 769 l 856 472 q 707 486 786 486 q 472 437 563 486 q 381 249 381 388 l 381 0 l 69 0 l 69 750 l 375 750 m 596 833 l 329 833 l 439 1039 l 860 1039 l 596 833 z "},"Ŗ":{"ha":1365,"x_min":81,"x_max":1339,"o":"m 1339 0 l 971 0 l 781 318 l 397 318 l 397 0 l 81 0 l 81 992 l 925 992 q 1222 911 1131 992 q 1314 665 1314 831 q 1258 474 1314 539 q 1100 385 1203 410 l 1100 374 l 1339 0 m 849 543 q 937 568 910 543 q 964 644 964 593 q 937 720 964 696 q 849 744 910 744 l 397 744 l 397 543 l 849 543 m 843 -214 q 824 -329 843 -290 q 738 -387 804 -368 q 526 -406 671 -406 l 526 -326 q 618 -317 588 -326 q 657 -294 649 -308 q 665 -257 665 -279 l 526 -257 l 526 -85 l 843 -85 l 843 -214 z "},"ŗ":{"ha":888,"x_min":67,"x_max":856,"o":"m 375 750 l 375 649 l 383 649 q 542 741 450 713 q 767 769 633 769 q 856 764 811 769 l 856 472 q 707 486 786 486 q 472 437 563 486 q 381 249 381 388 l 381 0 l 69 0 l 69 750 l 375 750 m 383 -214 q 364 -329 383 -290 q 278 -387 344 -368 q 67 -406 211 -406 l 67 -326 q 158 -317 128 -326 q 197 -294 189 -308 q 206 -257 206 -279 l 67 -257 l 67 -85 l 383 -85 l 383 -214 z "},"Ř":{"ha":1365,"x_min":81,"x_max":1339,"o":"m 1339 0 l 971 0 l 781 318 l 397 318 l 397 0 l 81 0 l 81 992 l 925 992 q 1222 911 1131 992 q 1314 665 1314 831 q 1258 474 1314 539 q 1100 385 1203 410 l 1100 374 l 1339 0 m 849 543 q 937 568 910 543 q 964 644 964 593 q 937 720 964 696 q 849 744 910 744 l 397 744 l 397 543 l 849 543 m 1042 1285 l 860 1081 l 426 1081 l 244 1285 l 561 1285 l 639 1186 l 647 1186 l 725 1285 l 1042 1285 z "},"ř":{"ha":888,"x_min":64,"x_max":861,"o":"m 375 750 l 375 649 l 383 649 q 542 741 450 713 q 767 769 633 769 q 856 764 811 769 l 856 472 q 707 486 786 486 q 472 437 563 486 q 381 249 381 388 l 381 0 l 69 0 l 69 750 l 375 750 m 861 1038 l 679 833 l 246 833 l 64 1038 l 381 1038 l 458 939 l 467 939 l 544 1038 l 861 1038 z "},"Ś":{"ha":1335,"x_min":28,"x_max":1290,"o":"m 890 693 q 815 785 878 758 q 635 813 753 813 q 466 790 517 813 q 415 722 415 767 q 446 669 415 686 q 546 646 476 653 l 940 613 q 1203 525 1115 597 q 1290 307 1290 453 q 1218 99 1290 172 q 1009 -3 1146 25 q 654 -32 872 -32 q 312 -1 444 -32 q 106 108 179 29 q 28 331 33 186 l 394 331 q 475 214 410 244 q 671 183 540 183 q 858 208 800 183 q 917 283 917 232 q 883 347 917 326 q 789 372 850 367 l 407 410 q 141 494 229 428 q 53 704 53 561 q 204 952 53 881 q 649 1024 356 1024 q 1095 951 942 1024 q 1256 693 1249 878 l 890 693 m 782 1081 l 515 1081 l 625 1285 l 1046 1285 l 782 1081 z "},"ś":{"ha":1168,"x_min":26,"x_max":1124,"o":"m 750 529 q 688 590 738 572 q 544 607 639 607 q 419 592 456 607 q 382 549 382 578 q 401 516 382 525 q 472 501 421 507 l 832 472 q 1053 406 983 458 q 1124 228 1124 353 q 1064 66 1124 122 q 888 -10 1004 10 q 576 -31 772 -31 q 276 -10 392 -31 q 96 69 161 10 q 26 240 31 128 l 376 240 q 440 167 392 186 q 596 147 488 147 q 739 163 700 147 q 778 213 778 179 q 759 249 778 239 q 692 265 740 260 l 356 299 q 126 365 201 314 q 50 532 50 417 q 108 688 50 633 q 274 761 167 742 q 556 781 382 781 q 843 760 728 781 q 1024 684 958 739 q 1093 529 1089 629 l 750 529 m 689 833 l 422 833 l 532 1039 l 953 1039 l 689 833 z "},"Ŝ":{"ha":1335,"x_min":28,"x_max":1290,"o":"m 890 693 q 815 785 878 758 q 635 813 753 813 q 466 790 517 813 q 415 722 415 767 q 446 669 415 686 q 546 646 476 653 l 940 613 q 1203 525 1115 597 q 1290 307 1290 453 q 1218 99 1290 172 q 1009 -3 1146 25 q 654 -32 872 -32 q 312 -1 444 -32 q 106 108 179 29 q 28 331 33 186 l 394 331 q 475 214 410 244 q 671 183 540 183 q 858 208 800 183 q 917 283 917 232 q 883 347 917 326 q 789 372 850 367 l 407 410 q 141 494 229 428 q 53 704 53 561 q 204 952 53 881 q 649 1024 356 1024 q 1095 951 942 1024 q 1256 693 1249 878 l 890 693 m 653 1179 l 644 1179 l 567 1081 l 250 1081 l 432 1285 l 865 1285 l 1047 1081 l 731 1081 l 653 1179 z "},"ŝ":{"ha":1168,"x_min":26,"x_max":1124,"o":"m 750 529 q 688 590 738 572 q 544 607 639 607 q 419 592 456 607 q 382 549 382 578 q 401 516 382 525 q 472 501 421 507 l 832 472 q 1053 406 983 458 q 1124 228 1124 353 q 1064 66 1124 122 q 888 -10 1004 10 q 576 -31 772 -31 q 276 -10 392 -31 q 96 69 161 10 q 26 240 31 128 l 376 240 q 440 167 392 186 q 596 147 488 147 q 739 163 700 147 q 778 213 778 179 q 759 249 778 239 q 692 265 740 260 l 356 299 q 126 365 201 314 q 50 532 50 417 q 108 688 50 633 q 274 761 167 742 q 556 781 382 781 q 843 760 728 781 q 1024 684 958 739 q 1093 529 1089 629 l 750 529 m 560 932 l 551 932 l 474 833 l 157 833 l 339 1038 l 772 1038 l 954 833 l 638 833 l 560 932 z "},"Ş":{"ha":1335,"x_min":28,"x_max":1290,"o":"m 1290 307 q 1228 110 1290 182 q 1049 6 1167 38 q 744 -32 931 -26 l 710 -68 q 769 -64 729 -64 q 994 -206 994 -64 q 917 -319 994 -286 q 674 -353 840 -353 q 551 -348 607 -353 q 442 -328 496 -343 l 442 -214 l 450 -214 q 553 -238 504 -232 q 661 -244 601 -244 q 735 -236 711 -244 q 758 -204 758 -228 q 735 -174 758 -182 q 661 -165 711 -165 q 590 -169 631 -165 q 531 -176 550 -172 l 522 -176 l 522 -107 l 592 -32 q 284 5 404 -28 q 99 116 164 38 q 28 331 33 194 l 394 331 q 475 214 410 244 q 671 183 540 183 q 858 208 800 183 q 917 283 917 232 q 883 347 917 326 q 789 372 850 367 l 407 410 q 141 494 229 428 q 53 704 53 561 q 204 952 53 881 q 649 1024 356 1024 q 1095 951 942 1024 q 1256 693 1249 878 l 890 693 q 815 785 878 758 q 635 813 753 813 q 466 790 517 813 q 415 722 415 767 q 446 669 415 686 q 546 646 476 653 l 940 613 q 1203 525 1115 597 q 1290 307 1290 453 z "},"ş":{"ha":1168,"x_min":26,"x_max":1124,"o":"m 1124 228 q 1073 76 1124 131 q 922 -3 1022 21 q 660 -31 822 -26 l 625 -68 q 685 -64 644 -64 q 910 -206 910 -64 q 833 -319 910 -286 q 589 -353 756 -353 q 467 -348 522 -353 q 357 -328 411 -343 l 357 -214 l 365 -214 q 468 -238 419 -232 q 575 -244 517 -244 q 650 -236 626 -244 q 674 -204 674 -228 q 650 -174 674 -182 q 575 -165 626 -165 q 505 -169 544 -165 q 446 -176 465 -172 l 438 -176 l 438 -107 l 508 -31 q 247 -4 349 -28 q 88 77 144 19 q 26 240 31 135 l 376 240 q 440 167 392 186 q 596 147 488 147 q 739 163 700 147 q 778 213 778 179 q 759 249 778 239 q 692 265 740 260 l 356 299 q 126 365 201 314 q 50 532 50 417 q 108 688 50 633 q 274 761 167 742 q 556 781 382 781 q 843 760 728 781 q 1024 684 958 739 q 1093 529 1089 629 l 750 529 q 688 590 738 572 q 544 607 639 607 q 419 592 456 607 q 382 549 382 578 q 401 516 382 525 q 472 501 421 507 l 832 472 q 1053 406 983 458 q 1124 228 1124 353 z "},"Š":{"ha":1335,"x_min":28,"x_max":1290,"o":"m 890 693 q 815 785 878 758 q 635 813 753 813 q 466 790 517 813 q 415 722 415 767 q 446 669 415 686 q 546 646 476 653 l 940 613 q 1203 525 1115 597 q 1290 307 1290 453 q 1218 99 1290 172 q 1009 -3 1146 25 q 654 -32 872 -32 q 312 -1 444 -32 q 106 108 179 29 q 28 331 33 186 l 394 331 q 475 214 410 244 q 671 183 540 183 q 858 208 800 183 q 917 283 917 232 q 883 347 917 326 q 789 372 850 367 l 407 410 q 141 494 229 428 q 53 704 53 561 q 204 952 53 881 q 649 1024 356 1024 q 1095 951 942 1024 q 1256 693 1249 878 l 890 693 m 1047 1285 l 865 1081 l 432 1081 l 250 1285 l 567 1285 l 644 1186 l 653 1186 l 731 1285 l 1047 1285 z "},"š":{"ha":1168,"x_min":26,"x_max":1124,"o":"m 750 529 q 688 590 738 572 q 544 607 639 607 q 419 592 456 607 q 382 549 382 578 q 401 516 382 525 q 472 501 421 507 l 832 472 q 1053 406 983 458 q 1124 228 1124 353 q 1064 66 1124 122 q 888 -10 1004 10 q 576 -31 772 -31 q 276 -10 392 -31 q 96 69 161 10 q 26 240 31 128 l 376 240 q 440 167 392 186 q 596 147 488 147 q 739 163 700 147 q 778 213 778 179 q 759 249 778 239 q 692 265 740 260 l 356 299 q 126 365 201 314 q 50 532 50 417 q 108 688 50 633 q 274 761 167 742 q 556 781 382 781 q 843 760 728 781 q 1024 684 958 739 q 1093 529 1089 629 l 750 529 m 954 1038 l 772 833 l 339 833 l 157 1038 l 474 1038 l 551 939 l 560 939 l 638 1038 l 954 1038 z "},"Ţ":{"ha":1274,"x_min":38,"x_max":1236,"o":"m 728 0 l 664 -68 q 722 -64 683 -64 q 947 -206 947 -64 q 870 -319 947 -286 q 626 -353 793 -353 q 505 -348 560 -353 q 396 -328 450 -343 l 396 -214 l 404 -214 q 507 -238 458 -232 q 614 -244 556 -244 q 689 -236 665 -244 q 713 -204 713 -228 q 689 -174 713 -182 q 614 -165 665 -165 q 543 -169 583 -165 q 485 -176 503 -172 l 476 -176 l 476 -107 l 575 0 l 479 0 l 479 738 l 38 738 l 38 992 l 1236 992 l 1236 738 l 796 738 l 796 0 l 728 0 z "},"ţ":{"ha":768,"x_min":14,"x_max":743,"o":"m 518 -64 q 743 -206 743 -64 q 666 -319 743 -286 q 422 -353 589 -353 q 190 -328 279 -353 l 190 -214 l 199 -214 q 302 -238 253 -232 q 410 -244 351 -244 q 484 -236 461 -244 q 507 -204 507 -228 q 484 -174 507 -182 q 410 -165 461 -165 q 339 -169 379 -165 q 281 -176 299 -172 l 272 -176 l 272 -107 l 367 -4 q 208 67 253 13 q 164 231 164 121 l 164 569 l 14 569 l 14 750 l 164 750 l 164 953 l 475 953 l 475 750 l 713 750 l 713 569 l 475 569 l 475 289 q 499 241 475 254 q 582 228 524 228 q 711 233 660 228 l 711 0 q 622 -8 679 -4 q 514 -12 565 -12 l 511 -12 l 460 -68 q 518 -64 479 -64 z "},"Ť":{"ha":1274,"x_min":38,"x_max":1236,"o":"m 1236 738 l 796 738 l 796 0 l 479 0 l 479 738 l 38 738 l 38 992 l 1236 992 l 1236 738 m 1036 1285 l 854 1081 l 421 1081 l 239 1285 l 556 1285 l 633 1186 l 642 1186 l 719 1285 l 1036 1285 z "},"ť":{"ha":763,"x_min":14,"x_max":865,"o":"m 865 999 q 845 890 865 926 q 756 834 825 853 q 538 815 686 815 l 538 883 q 636 892 604 883 q 677 916 668 901 q 686 953 686 931 l 538 953 l 538 1125 l 865 1125 l 865 999 m 582 228 q 711 233 660 228 l 711 0 q 622 -8 679 -4 q 514 -12 565 -12 q 301 10 376 -12 q 195 85 226 33 q 164 231 164 138 l 164 569 l 14 569 l 14 750 l 164 750 l 164 953 l 475 953 l 475 750 l 713 750 l 713 569 l 475 569 l 475 289 q 499 241 475 254 q 582 228 524 228 z "},"Ŧ":{"ha":1274,"x_min":38,"x_max":1236,"o":"m 796 738 l 796 519 l 990 519 l 990 326 l 796 326 l 796 0 l 479 0 l 479 326 l 283 326 l 283 519 l 479 519 l 479 738 l 38 738 l 38 992 l 1236 992 l 1236 738 l 796 738 z "},"ŧ":{"ha":760,"x_min":14,"x_max":713,"o":"m 475 569 l 475 494 l 713 494 l 713 357 l 475 357 l 475 289 q 499 241 475 254 q 582 228 524 228 q 711 233 660 228 l 711 0 q 622 -8 679 -4 q 514 -12 565 -12 q 301 10 376 -12 q 195 85 226 33 q 164 231 164 138 l 164 357 l 14 357 l 14 494 l 164 494 l 164 569 l 14 569 l 14 750 l 164 750 l 164 953 l 475 953 l 475 750 l 713 750 l 713 569 l 475 569 z "},"Ũ":{"ha":1378,"x_min":81,"x_max":1297,"o":"m 1297 992 l 1297 425 q 1224 152 1297 253 q 1018 10 1151 51 q 689 -32 885 -32 q 360 10 493 -32 q 153 152 226 51 q 81 425 81 253 l 81 992 l 397 992 l 397 431 q 473 267 397 315 q 689 219 549 219 q 905 267 829 219 q 981 431 981 315 l 981 992 l 1297 992 m 833 1054 q 761 1065 799 1054 q 671 1093 724 1075 q 613 1111 640 1103 q 569 1119 585 1119 q 535 1109 543 1119 q 524 1069 526 1099 l 321 1069 q 353 1199 321 1146 q 436 1277 386 1251 q 538 1303 486 1303 q 611 1292 572 1303 q 704 1264 650 1282 q 747 1250 711 1261 q 806 1239 783 1239 q 839 1249 831 1239 q 850 1288 847 1260 l 1054 1288 q 1021 1158 1054 1211 q 937 1080 988 1106 q 833 1054 886 1054 z "},"ũ":{"ha":1186,"x_min":69,"x_max":1117,"o":"m 811 94 l 803 94 q 444 -19 667 -19 q 171 53 272 -19 q 69 269 69 125 l 69 750 l 381 750 l 381 369 q 574 219 381 219 q 738 265 669 219 q 806 411 806 310 l 806 750 l 1117 750 l 1117 0 l 811 0 l 811 94 m 739 808 q 667 819 704 808 q 576 847 629 829 q 518 865 546 857 q 475 874 490 874 q 440 863 449 874 q 429 824 432 853 l 226 824 q 259 953 226 900 q 342 1031 292 1006 q 443 1057 392 1057 q 519 1047 479 1057 q 610 1019 558 1038 q 667 1001 639 1010 q 711 993 694 993 q 744 1003 736 993 q 756 1042 753 1014 l 960 1042 q 926 913 960 965 q 842 834 893 860 q 739 808 792 808 z "},"Ū":{"ha":1378,"x_min":81,"x_max":1297,"o":"m 1297 992 l 1297 425 q 1224 152 1297 253 q 1018 10 1151 51 q 689 -32 885 -32 q 360 10 493 -32 q 153 152 226 51 q 81 425 81 253 l 81 992 l 397 992 l 397 431 q 473 267 397 315 q 689 219 549 219 q 905 267 829 219 q 981 431 981 315 l 981 992 l 1297 992 m 356 1082 l 356 1253 l 1021 1253 l 1021 1082 l 356 1082 z "},"ū":{"ha":1186,"x_min":69,"x_max":1117,"o":"m 811 94 l 803 94 q 444 -19 667 -19 q 171 53 272 -19 q 69 269 69 125 l 69 750 l 381 750 l 381 369 q 574 219 381 219 q 738 265 669 219 q 806 411 806 310 l 806 750 l 1117 750 l 1117 0 l 811 0 l 811 94 m 260 849 l 260 1019 l 925 1019 l 925 849 l 260 849 z "},"Ŭ":{"ha":1378,"x_min":81,"x_max":1297,"o":"m 1297 992 l 1297 425 q 1224 152 1297 253 q 1018 10 1151 51 q 689 -32 885 -32 q 360 10 493 -32 q 153 152 226 51 q 81 425 81 253 l 81 992 l 397 992 l 397 431 q 473 267 397 315 q 689 219 549 219 q 905 267 829 219 q 981 431 981 315 l 981 992 l 1297 992 m 1018 1289 q 968 1164 1017 1215 q 844 1088 919 1113 q 689 1063 769 1063 q 533 1088 608 1063 q 410 1164 458 1113 q 360 1289 361 1215 l 603 1289 q 689 1231 610 1231 q 774 1289 767 1231 l 1018 1289 z "},"ŭ":{"ha":1186,"x_min":69,"x_max":1117,"o":"m 811 94 l 803 94 q 444 -19 667 -19 q 171 53 272 -19 q 69 269 69 125 l 69 750 l 381 750 l 381 369 q 574 219 381 219 q 738 265 669 219 q 806 411 806 310 l 806 750 l 1117 750 l 1117 0 l 811 0 l 811 94 m 922 1042 q 828 873 919 931 q 593 815 736 815 q 358 873 450 815 q 264 1042 267 931 l 507 1042 q 593 983 514 983 q 678 1042 671 983 l 922 1042 z "},"Ů":{"ha":1378,"x_min":81,"x_max":1297,"o":"m 1297 992 l 1297 425 q 1224 152 1297 253 q 1018 10 1151 51 q 689 -32 885 -32 q 360 10 493 -32 q 153 152 226 51 q 81 425 81 253 l 81 992 l 397 992 l 397 431 q 473 267 397 315 q 689 219 549 219 q 905 267 829 219 q 981 431 981 315 l 981 992 l 1297 992 m 689 1031 q 516 1083 585 1031 q 447 1221 447 1135 q 516 1360 447 1308 q 689 1413 585 1413 q 863 1360 794 1413 q 932 1221 932 1308 q 863 1083 932 1135 q 689 1031 793 1031 m 689 1156 q 745 1174 722 1156 q 768 1221 768 1192 q 745 1269 768 1251 q 689 1288 722 1288 q 634 1269 657 1288 q 611 1221 611 1251 q 634 1174 611 1192 q 689 1156 657 1156 z "},"ů":{"ha":1186,"x_min":69,"x_max":1117,"o":"m 811 94 l 803 94 q 444 -19 667 -19 q 171 53 272 -19 q 69 269 69 125 l 69 750 l 381 750 l 381 369 q 574 219 381 219 q 738 265 669 219 q 806 411 806 310 l 806 750 l 1117 750 l 1117 0 l 811 0 l 811 94 m 592 815 q 419 867 488 815 q 350 1007 350 919 q 419 1145 350 1093 q 592 1197 488 1197 q 765 1145 696 1197 q 835 1007 835 1093 q 766 867 835 919 q 592 815 697 815 m 592 940 q 648 958 625 940 q 671 1007 671 976 q 648 1054 671 1036 q 592 1072 625 1072 q 537 1054 560 1072 q 514 1007 514 1036 q 537 958 514 976 q 592 940 560 940 z "},"Ű":{"ha":1378,"x_min":81,"x_max":1297,"o":"m 1297 992 l 1297 425 q 1224 152 1297 253 q 1018 10 1151 51 q 689 -32 885 -32 q 360 10 493 -32 q 153 152 226 51 q 81 425 81 253 l 81 992 l 397 992 l 397 431 q 473 267 397 315 q 689 219 549 219 q 905 267 829 219 q 981 431 981 315 l 981 992 l 1297 992 m 613 1081 l 363 1081 l 464 1285 l 792 1285 l 613 1081 m 1013 1081 l 763 1081 l 865 1285 l 1193 1285 l 1013 1081 z "},"ű":{"ha":1186,"x_min":69,"x_max":1117,"o":"m 811 94 l 803 94 q 444 -19 667 -19 q 171 53 272 -19 q 69 269 69 125 l 69 750 l 381 750 l 381 369 q 574 219 381 219 q 738 265 669 219 q 806 411 806 310 l 806 750 l 1117 750 l 1117 0 l 811 0 l 811 94 m 517 833 l 267 833 l 368 1039 l 696 1039 l 517 833 m 917 833 l 667 833 l 769 1039 l 1097 1039 l 917 833 z "},"Ų":{"ha":1378,"x_min":81,"x_max":1297,"o":"m 1297 992 l 1297 425 q 1215 139 1297 242 q 976 -3 1133 36 q 838 -61 882 -26 q 794 -131 794 -96 q 821 -171 794 -158 q 888 -183 847 -183 q 989 -171 936 -183 l 989 -321 q 828 -335 924 -335 q 592 -294 672 -335 q 513 -179 513 -253 q 541 -99 513 -137 q 622 -31 569 -60 q 219 82 357 -22 q 81 425 81 186 l 81 992 l 397 992 l 397 431 q 472 267 397 315 q 689 219 547 219 q 906 267 831 219 q 981 431 981 315 l 981 992 l 1297 992 z "},"ų":{"ha":1186,"x_min":69,"x_max":1117,"o":"m 811 94 l 803 94 q 444 -19 667 -19 q 171 53 272 -19 q 69 269 69 125 l 69 750 l 381 750 l 381 369 q 574 219 381 219 q 738 265 669 219 q 806 411 806 310 l 806 750 l 1117 750 l 1117 0 l 811 0 l 811 94 m 1014 -183 q 1117 -171 1064 -183 l 1117 -321 q 956 -335 1049 -335 q 720 -293 800 -335 q 640 -174 640 -251 q 726 -41 640 -94 q 953 24 811 13 l 1117 0 q 921 -124 921 -42 q 947 -169 921 -156 q 1014 -183 974 -183 z "},"Ŵ":{"ha":1746,"x_min":1,"x_max":1744,"o":"m 1050 0 l 878 628 l 869 628 l 697 0 l 306 0 l 1 992 l 349 992 l 518 354 l 526 354 l 699 992 l 1047 992 l 1222 354 l 1231 354 l 1400 992 l 1744 992 l 1436 0 l 1050 0 m 878 1179 l 869 1179 l 792 1081 l 475 1081 l 657 1285 l 1090 1285 l 1272 1081 l 956 1081 l 878 1179 z "},"ŵ":{"ha":1694,"x_min":13,"x_max":1682,"o":"m 1357 0 l 1019 0 l 856 443 l 847 443 l 685 0 l 343 0 l 13 750 l 357 750 l 524 311 l 532 311 l 694 750 l 1003 750 l 1171 314 l 1179 314 l 1339 750 l 1682 750 l 1357 0 m 853 932 l 844 932 l 767 833 l 450 833 l 632 1038 l 1065 1038 l 1247 833 l 931 833 l 853 932 z "},"Ŷ":{"ha":1325,"x_min":-6,"x_max":1331,"o":"m 821 331 l 821 0 l 504 0 l 504 329 l -6 992 l 378 992 l 663 593 l 949 992 l 1331 992 l 821 331 m 668 1179 l 660 1179 l 582 1081 l 265 1081 l 447 1285 l 881 1285 l 1063 1081 l 746 1081 l 668 1179 z "},"ŷ":{"ha":1174,"x_min":7,"x_max":1165,"o":"m 747 -14 q 632 -176 688 -122 q 502 -251 576 -231 q 303 -272 428 -272 q 113 -271 167 -272 l 113 -26 q 251 -28 154 -28 q 342 -19 311 -28 q 386 14 372 -10 l 403 43 l 7 750 l 364 750 l 582 306 l 590 306 l 810 750 l 1165 750 l 747 -14 m 590 932 l 582 932 l 504 833 l 188 833 l 369 1038 l 803 1038 l 985 833 l 668 833 l 590 932 z "},"Ÿ":{"ha":1325,"x_min":-6,"x_max":1331,"o":"m 821 331 l 821 0 l 504 0 l 504 329 l -6 992 l 378 992 l 663 593 l 949 992 l 1331 992 l 821 331 m 317 1254 l 603 1254 l 603 1081 l 317 1081 l 317 1254 m 725 1254 l 1011 1254 l 1011 1081 l 725 1081 l 725 1254 z "},"Ź":{"ha":1257,"x_min":51,"x_max":1196,"o":"m 550 251 l 1196 251 l 1196 0 l 51 0 l 51 240 l 697 740 l 88 740 l 88 992 l 1196 992 l 1196 751 l 550 251 m 776 1081 l 510 1081 l 619 1285 l 1040 1285 l 776 1081 z "},"ź":{"ha":1107,"x_min":39,"x_max":1053,"o":"m 39 0 l 39 215 l 539 542 l 68 542 l 68 750 l 1053 750 l 1053 538 l 550 210 l 1053 210 l 1053 0 l 39 0 m 694 833 l 428 833 l 538 1039 l 958 1039 l 694 833 z "},"Ż":{"ha":1257,"x_min":51,"x_max":1196,"o":"m 550 251 l 1196 251 l 1196 0 l 51 0 l 51 240 l 697 740 l 88 740 l 88 992 l 1196 992 l 1196 751 l 550 251 m 485 1254 l 801 1254 l 801 1081 l 485 1081 l 485 1254 z "},"ż":{"ha":1107,"x_min":39,"x_max":1053,"o":"m 39 0 l 39 215 l 539 542 l 68 542 l 68 750 l 1053 750 l 1053 538 l 550 210 l 1053 210 l 1053 0 l 39 0 m 403 1011 l 719 1011 l 719 839 l 403 839 l 403 1011 z "},"Ž":{"ha":1257,"x_min":51,"x_max":1196,"o":"m 550 251 l 1196 251 l 1196 0 l 51 0 l 51 240 l 697 740 l 88 740 l 88 992 l 1196 992 l 1196 751 l 550 251 m 1042 1285 l 860 1081 l 426 1081 l 244 1285 l 561 1285 l 639 1186 l 647 1186 l 725 1285 l 1042 1285 z "},"ž":{"ha":1107,"x_min":39,"x_max":1053,"o":"m 39 0 l 39 215 l 539 542 l 68 542 l 68 750 l 1053 750 l 1053 538 l 550 210 l 1053 210 l 1053 0 l 39 0 m 960 1038 l 778 833 l 344 833 l 163 1038 l 479 1038 l 557 939 l 565 939 l 643 1038 l 960 1038 z "},"ƒ":{"ha":849,"x_min":10,"x_max":839,"o":"m 764 854 q 675 835 707 854 q 631 754 643 817 l 613 660 l 806 660 l 806 478 l 576 478 l 525 213 q 453 58 506 111 q 320 -12 401 6 q 113 -31 239 -31 q 10 -26 81 -31 l 10 165 q 35 163 17 165 q 85 161 53 161 q 174 180 142 161 q 218 261 206 199 l 260 478 l 110 478 l 110 660 l 296 660 l 324 803 q 395 957 343 904 q 528 1028 447 1010 q 736 1046 610 1046 q 839 1042 768 1046 l 839 850 q 764 854 785 854 z "},"Ǿ":{"ha":1476,"x_min":50,"x_max":1426,"o":"m 1290 860 q 1426 496 1426 728 q 1249 99 1426 229 q 738 -32 1072 -32 q 299 54 463 -32 l 165 -56 l 56 25 l 186 132 q 50 496 50 264 q 226 893 50 763 q 738 1024 403 1024 q 1178 938 1014 1024 l 1311 1047 l 1421 967 l 1290 860 m 738 775 q 482 703 567 775 q 397 496 397 631 q 439 338 397 401 l 935 739 q 738 775 856 775 m 738 217 q 994 289 910 217 q 1079 496 1079 361 q 1038 654 1079 590 l 542 253 q 738 217 621 217 m 898 1081 l 581 1081 l 711 1285 l 1211 1285 l 898 1081 z "},"ǿ":{"ha":1214,"x_min":46,"x_max":1168,"o":"m 1060 653 q 1168 375 1168 554 q 607 -31 1168 -31 q 239 38 375 -31 l 149 -29 l 63 29 l 153 97 q 46 375 46 196 q 607 781 46 781 q 975 713 839 781 l 1065 781 l 1151 721 l 1060 653 m 607 565 q 427 517 483 565 q 371 375 371 468 q 393 276 371 317 l 747 542 q 607 565 692 565 m 607 185 q 843 375 843 185 q 821 475 843 435 l 467 210 q 607 185 518 185 m 740 833 l 474 833 l 583 1039 l 1004 1039 l 740 833 z "},"Ș":{"ha":1335,"x_min":28,"x_max":1290,"o":"m 890 693 q 815 785 878 758 q 635 813 753 813 q 466 790 517 813 q 415 722 415 767 q 446 669 415 686 q 546 646 476 653 l 940 613 q 1203 525 1115 597 q 1290 307 1290 453 q 1218 99 1290 172 q 1009 -3 1146 25 q 654 -32 872 -32 q 312 -1 444 -32 q 106 108 179 29 q 28 331 33 186 l 394 331 q 475 214 410 244 q 671 183 540 183 q 858 208 800 183 q 917 283 917 232 q 883 347 917 326 q 789 372 850 367 l 407 410 q 141 494 229 428 q 53 704 53 561 q 204 952 53 881 q 649 1024 356 1024 q 1095 951 942 1024 q 1256 693 1249 878 l 890 693 m 771 -214 q 751 -329 771 -290 q 665 -387 732 -368 q 454 -406 599 -406 l 454 -326 q 546 -317 515 -326 q 585 -294 576 -308 q 593 -257 593 -279 l 454 -257 l 454 -85 l 771 -85 l 771 -214 z "},"ș":{"ha":1168,"x_min":26,"x_max":1124,"o":"m 750 529 q 688 590 738 572 q 544 607 639 607 q 419 592 456 607 q 382 549 382 578 q 401 516 382 525 q 472 501 421 507 l 832 472 q 1053 406 983 458 q 1124 228 1124 353 q 1064 66 1124 122 q 888 -10 1004 10 q 576 -31 772 -31 q 276 -10 392 -31 q 96 69 161 10 q 26 240 31 128 l 376 240 q 440 167 392 186 q 596 147 488 147 q 739 163 700 147 q 778 213 778 179 q 759 249 778 239 q 692 265 740 260 l 356 299 q 126 365 201 314 q 50 532 50 417 q 108 688 50 633 q 274 761 167 742 q 556 781 382 781 q 843 760 728 781 q 1024 684 958 739 q 1093 529 1089 629 l 750 529 m 735 -214 q 715 -329 735 -290 q 629 -387 696 -368 q 418 -406 563 -406 l 418 -326 q 510 -317 479 -326 q 549 -294 540 -308 q 557 -257 557 -279 l 418 -257 l 418 -85 l 735 -85 l 735 -214 z "},"Ț":{"ha":1274,"x_min":38,"x_max":1236,"o":"m 1236 738 l 796 738 l 796 0 l 479 0 l 479 738 l 38 738 l 38 992 l 1236 992 l 1236 738 m 794 -214 q 775 -329 794 -290 q 689 -387 756 -368 q 478 -406 622 -406 l 478 -326 q 569 -317 539 -326 q 608 -294 600 -308 q 617 -257 617 -279 l 478 -257 l 478 -85 l 794 -85 l 794 -214 z "},"ț":{"ha":760,"x_min":14,"x_max":713,"o":"m 582 228 q 711 233 660 228 l 711 0 q 622 -8 679 -4 q 514 -12 565 -12 q 301 10 376 -12 q 195 85 226 33 q 164 231 164 138 l 164 569 l 14 569 l 14 750 l 164 750 l 164 953 l 475 953 l 475 750 l 713 750 l 713 569 l 475 569 l 475 289 q 499 241 475 254 q 582 228 524 228 m 551 -214 q 532 -329 551 -290 q 446 -387 513 -368 q 235 -406 379 -406 l 235 -326 q 326 -317 296 -326 q 365 -294 357 -308 q 374 -257 374 -279 l 235 -257 l 235 -85 l 551 -85 l 551 -214 z "},"ȷ":{"ha":454,"x_min":-119,"x_max":385,"o":"m -28 -29 q 49 -17 25 -29 q 74 32 74 -4 l 74 750 l 385 750 l 385 -44 q 352 -186 385 -137 q 244 -254 319 -235 q 29 -274 168 -274 q -119 -268 -71 -274 l -119 -28 l -28 -29 z "},"ʼ":{"ha":471,"x_min":81,"x_max":390,"o":"m 390 826 q 318 592 390 661 q 81 524 246 524 l 81 621 q 188 661 156 621 q 221 764 221 701 l 81 764 l 81 1006 l 390 1006 l 390 826 z "},"ˆ":{"ha":958,"x_min":81,"x_max":878,"o":"m 483 932 l 475 932 l 397 833 l 81 833 l 263 1038 l 696 1038 l 878 833 l 561 833 l 483 932 z "},"ˇ":{"ha":958,"x_min":81,"x_max":878,"o":"m 878 1038 l 696 833 l 263 833 l 81 1038 l 397 1038 l 475 939 l 483 939 l 561 1038 l 878 1038 z "},"˘":{"ha":819,"x_min":81,"x_max":739,"o":"m 739 1042 q 644 873 736 931 q 410 815 553 815 q 175 873 267 815 q 81 1042 83 931 l 324 1042 q 410 983 331 983 q 494 1042 488 983 l 739 1042 z "},"˙":{"ha":478,"x_min":81,"x_max":397,"o":"m 81 1011 l 397 1011 l 397 839 l 81 839 l 81 1011 z "},"˚":{"ha":646,"x_min":81,"x_max":565,"o":"m 322 815 q 149 867 218 815 q 81 1007 81 919 q 149 1145 81 1093 q 322 1197 218 1197 q 496 1145 426 1197 q 565 1007 565 1093 q 497 867 565 919 q 322 815 428 815 m 322 940 q 378 958 356 940 q 401 1007 401 976 q 378 1054 401 1036 q 322 1072 356 1072 q 267 1054 290 1072 q 244 1007 244 1036 q 267 958 244 976 q 322 940 290 940 z "},"˛":{"ha":638,"x_min":81,"x_max":557,"o":"m 454 -183 q 557 -171 504 -183 l 557 -321 q 396 -335 489 -335 q 160 -293 240 -335 q 81 -174 81 -251 q 166 -41 81 -94 q 393 24 251 13 l 557 0 q 361 -124 361 -42 q 388 -169 361 -156 q 454 -183 414 -183 z "},"˜":{"ha":894,"x_min":81,"x_max":814,"o":"m 593 808 q 521 819 558 808 q 431 847 483 829 q 372 865 400 857 q 329 874 344 874 q 294 863 303 874 q 283 824 286 853 l 81 824 q 113 953 81 900 q 196 1031 146 1006 q 297 1057 246 1057 q 373 1047 333 1057 q 464 1019 413 1038 q 521 1001 493 1010 q 565 993 549 993 q 599 1003 590 993 q 610 1042 607 1014 l 814 1042 q 781 913 814 965 q 697 834 747 860 q 593 808 646 808 z "},"˝":{"ha":990,"x_min":81,"x_max":911,"o":"m 331 833 l 81 833 l 182 1039 l 510 1039 l 331 833 m 731 833 l 481 833 l 583 1039 l 911 1039 l 731 833 z "},"̦":{"ha":0,"x_min":-397,"x_max":-81,"o":"m -81 -214 q -100 -329 -81 -290 q -186 -387 -119 -368 q -397 -406 -253 -406 l -397 -326 q -306 -317 -336 -326 q -267 -294 -275 -308 q -258 -257 -258 -279 l -397 -257 l -397 -85 l -81 -85 l -81 -214 z "},"Ẁ":{"ha":1746,"x_min":1,"x_max":1744,"o":"m 1050 0 l 878 628 l 869 628 l 697 0 l 306 0 l 1 992 l 349 992 l 518 354 l 526 354 l 699 992 l 1047 992 l 1222 354 l 1231 354 l 1400 992 l 1744 992 l 1436 0 l 1050 0 m 896 1285 l 1007 1081 l 740 1081 l 476 1285 l 896 1285 z "},"ẁ":{"ha":1694,"x_min":13,"x_max":1682,"o":"m 1357 0 l 1019 0 l 856 443 l 847 443 l 685 0 l 343 0 l 13 750 l 357 750 l 524 311 l 532 311 l 694 750 l 1003 750 l 1171 314 l 1179 314 l 1339 750 l 1682 750 l 1357 0 m 871 1039 l 982 833 l 715 833 l 451 1039 l 871 1039 z "},"Ẃ":{"ha":1746,"x_min":1,"x_max":1744,"o":"m 1050 0 l 878 628 l 869 628 l 697 0 l 306 0 l 1 992 l 349 992 l 518 354 l 526 354 l 699 992 l 1047 992 l 1222 354 l 1231 354 l 1400 992 l 1744 992 l 1436 0 l 1050 0 m 1007 1081 l 740 1081 l 850 1285 l 1271 1285 l 1007 1081 z "},"ẃ":{"ha":1694,"x_min":13,"x_max":1682,"o":"m 1357 0 l 1019 0 l 856 443 l 847 443 l 685 0 l 343 0 l 13 750 l 357 750 l 524 311 l 532 311 l 694 750 l 1003 750 l 1171 314 l 1179 314 l 1339 750 l 1682 750 l 1357 0 m 982 833 l 715 833 l 825 1039 l 1246 1039 l 982 833 z "},"Ẅ":{"ha":1746,"x_min":1,"x_max":1744,"o":"m 1050 0 l 878 628 l 869 628 l 697 0 l 306 0 l 1 992 l 349 992 l 518 354 l 526 354 l 699 992 l 1047 992 l 1222 354 l 1231 354 l 1400 992 l 1744 992 l 1436 0 l 1050 0 m 526 1254 l 813 1254 l 813 1081 l 526 1081 l 526 1254 m 935 1254 l 1221 1254 l 1221 1081 l 935 1081 l 935 1254 z "},"ẅ":{"ha":1694,"x_min":13,"x_max":1682,"o":"m 1357 0 l 1019 0 l 856 443 l 847 443 l 685 0 l 343 0 l 13 750 l 357 750 l 524 311 l 532 311 l 694 750 l 1003 750 l 1171 314 l 1179 314 l 1339 750 l 1682 750 l 1357 0 m 501 1011 l 788 1011 l 788 839 l 501 839 l 501 1011 m 910 1011 l 1196 1011 l 1196 839 l 910 839 l 910 1011 z "},"Ỳ":{"ha":1325,"x_min":-6,"x_max":1331,"o":"m 821 331 l 821 0 l 504 0 l 504 329 l -6 992 l 378 992 l 663 593 l 949 992 l 1331 992 l 821 331 m 686 1285 l 797 1081 l 531 1081 l 267 1285 l 686 1285 z "},"ỳ":{"ha":1174,"x_min":7,"x_max":1165,"o":"m 747 -14 q 632 -176 688 -122 q 502 -251 576 -231 q 303 -272 428 -272 q 113 -271 167 -272 l 113 -26 q 251 -28 154 -28 q 342 -19 311 -28 q 386 14 372 -10 l 403 43 l 7 750 l 364 750 l 582 306 l 590 306 l 810 750 l 1165 750 l 747 -14 m 608 1039 l 719 833 l 453 833 l 189 1039 l 608 1039 z "}," ":{"ha":421,"x_min":0,"x_max":0,"o":""}," ":{"ha":367,"x_min":0,"x_max":0,"o":""},"​":{"ha":0,"x_min":0,"x_max":0,"o":""},"–":{"ha":1031,"x_min":61,"x_max":969,"o":"m 61 306 l 61 500 l 969 500 l 969 306 l 61 306 z "},"—":{"ha":1358,"x_min":61,"x_max":1297,"o":"m 61 306 l 61 500 l 1297 500 l 1297 306 l 61 306 z "},"‘":{"ha":433,"x_min":53,"x_max":379,"o":"m 53 682 q 132 919 53 846 q 379 992 211 992 l 379 885 q 275 844 308 885 q 242 750 242 803 l 379 750 l 379 511 l 53 511 l 53 682 z "},"’":{"ha":433,"x_min":53,"x_max":379,"o":"m 379 821 q 301 584 379 657 q 53 511 222 511 l 53 618 q 158 659 124 618 q 192 751 192 700 l 53 751 l 53 992 l 379 992 l 379 821 z "},"‚":{"ha":433,"x_min":53,"x_max":379,"o":"m 379 68 q 300 -169 379 -96 q 53 -242 221 -242 l 53 -135 q 158 -93 124 -135 q 192 0 192 -51 l 53 0 l 53 240 l 379 240 l 379 68 z "},"“":{"ha":869,"x_min":53,"x_max":815,"o":"m 53 682 q 132 919 53 846 q 379 992 211 992 l 379 885 q 275 844 308 885 q 242 750 242 803 l 379 750 l 379 511 l 53 511 l 53 682 m 489 682 q 568 919 489 846 q 815 992 647 992 l 815 885 q 711 844 744 885 q 678 750 678 803 l 815 750 l 815 511 l 489 511 l 489 682 z "},"”":{"ha":869,"x_min":53,"x_max":815,"o":"m 379 821 q 301 584 379 657 q 53 511 222 511 l 53 618 q 158 659 124 618 q 192 751 192 700 l 53 751 l 53 992 l 379 992 l 379 821 m 815 821 q 737 584 815 657 q 489 511 658 511 l 489 618 q 594 659 560 618 q 628 751 628 700 l 489 751 l 489 992 l 815 992 l 815 821 z "},"„":{"ha":869,"x_min":53,"x_max":815,"o":"m 379 68 q 300 -169 379 -96 q 53 -242 221 -242 l 53 -135 q 158 -93 124 -135 q 192 0 192 -51 l 53 0 l 53 240 l 379 240 l 379 68 m 815 68 q 736 -169 815 -96 q 489 -242 657 -242 l 489 -135 q 593 -93 558 -135 q 628 0 628 -51 l 489 0 l 489 240 l 815 240 l 815 68 z "},"†":{"ha":989,"x_min":42,"x_max":947,"o":"m 947 458 l 642 458 l 642 -249 l 347 -249 l 347 458 l 42 458 l 42 700 l 347 700 l 347 992 l 642 992 l 642 700 l 947 700 l 947 458 z "},"‡":{"ha":989,"x_min":42,"x_max":947,"o":"m 642 475 l 642 268 l 947 268 l 947 43 l 642 43 l 642 -249 l 347 -249 l 347 43 l 42 43 l 42 268 l 347 268 l 347 475 l 42 475 l 42 700 l 347 700 l 347 992 l 642 992 l 642 700 l 947 700 l 947 475 l 642 475 z "},"•":{"ha":1093,"x_min":43,"x_max":1050,"o":"m 547 79 q 174 184 304 79 q 43 482 43 289 q 174 780 43 675 q 547 885 304 885 q 920 780 790 885 q 1050 482 1050 675 q 920 184 1050 289 q 547 79 790 79 z "},"…":{"ha":1481,"x_min":76,"x_max":1404,"o":"m 76 290 l 417 290 l 417 0 l 76 0 l 76 290 m 569 290 l 910 290 l 910 0 l 569 0 l 569 290 m 1064 290 l 1404 290 l 1404 0 l 1064 0 l 1064 290 z "},"‰":{"ha":2318,"x_min":46,"x_max":2272,"o":"m 364 992 q 605 923 528 992 q 682 708 682 854 q 605 494 682 563 q 364 425 528 425 q 124 494 201 425 q 46 708 46 563 q 124 923 46 854 q 364 992 201 992 m 1207 972 l 579 0 l 403 0 l 1031 972 l 1207 972 m 364 572 q 441 603 414 572 q 468 708 468 635 q 441 813 468 782 q 364 843 414 843 q 287 813 314 843 q 260 708 260 782 q 287 603 260 635 q 364 572 314 572 m 1246 547 q 1487 478 1410 547 q 1564 264 1564 410 q 1487 49 1564 118 q 1246 -19 1410 -19 q 1006 49 1083 -19 q 928 264 928 118 q 1006 478 928 410 q 1246 547 1083 547 m 1954 547 q 2194 478 2117 547 q 2272 264 2272 410 q 2194 49 2272 118 q 1954 -19 2117 -19 q 1713 49 1792 -19 q 1635 264 1635 118 q 1713 478 1635 410 q 1954 547 1792 547 m 1246 128 q 1323 159 1296 128 q 1350 264 1350 190 q 1323 368 1350 338 q 1246 399 1296 399 q 1169 368 1196 399 q 1142 264 1142 338 q 1169 159 1142 190 q 1246 128 1196 128 m 1954 128 q 2031 159 2004 128 q 2058 264 2058 190 q 2031 368 2058 338 q 1954 399 2004 399 q 1876 368 1903 399 q 1849 264 1849 338 q 1876 159 1849 190 q 1954 128 1904 128 z "},"‹":{"ha":392,"x_min":53,"x_max":338,"o":"m 338 731 l 338 488 l 181 382 l 181 374 l 338 268 l 338 25 l 53 221 l 53 535 l 338 731 z "},"›":{"ha":392,"x_min":54,"x_max":339,"o":"m 54 731 l 54 488 l 211 382 l 211 374 l 54 268 l 54 25 l 339 221 l 339 535 l 54 731 z "},"⁰":{"ha":863,"x_min":50,"x_max":813,"o":"m 431 1010 q 813 703 813 1010 q 715 472 813 547 q 431 396 618 396 q 147 472 244 396 q 50 703 50 547 q 431 1010 50 1010 m 431 540 q 559 582 517 540 q 601 703 601 624 q 559 824 601 782 q 431 865 517 865 q 303 824 346 865 q 261 703 261 782 q 303 582 261 624 q 431 540 346 540 z "},"₣":{"ha":1169,"x_min":32,"x_max":1118,"o":"m 426 733 l 426 551 l 1085 551 l 1085 336 l 426 336 l 426 261 l 728 261 l 728 149 l 426 149 l 426 0 l 115 0 l 115 149 l 32 149 l 32 261 l 115 261 l 115 972 l 1118 972 l 1118 733 l 426 733 z "},"€":{"ha":1307,"x_min":32,"x_max":1260,"o":"m 531 346 q 646 253 569 285 q 829 221 722 221 q 1178 306 1017 221 l 1178 36 q 1019 -3 1113 10 q 829 -15 926 -15 q 394 75 563 -15 q 181 346 226 165 l 32 346 l 113 449 l 164 449 l 164 486 l 164 524 l 32 524 l 113 626 l 181 626 q 394 897 226 807 q 825 988 561 988 q 1072 959 956 988 q 1260 885 1189 931 l 1104 685 q 825 751 983 751 q 643 720 719 751 q 529 626 567 689 l 1060 626 l 979 524 l 494 524 q 493 486 493 513 q 494 449 493 460 l 919 449 l 840 346 l 531 346 z "},"№":{"ha":2117,"x_min":81,"x_max":2076,"o":"m 1304 992 l 1304 0 l 939 0 l 390 626 l 382 626 l 382 0 l 81 0 l 81 992 l 453 992 l 993 375 l 1001 375 l 1001 992 l 1304 992 m 1750 1004 q 1996 942 1915 1004 q 2076 763 2076 879 q 1996 581 2076 643 q 1750 518 1915 518 q 1424 763 1424 518 q 1504 942 1424 879 q 1750 1004 1585 1004 m 1750 654 q 1837 683 1808 654 q 1865 763 1865 711 q 1837 839 1865 811 q 1750 867 1808 867 q 1662 839 1690 867 q 1633 763 1633 811 q 1750 654 1633 654 m 2076 158 l 2076 0 l 1424 0 l 1424 158 l 2076 158 z "},"™":{"ha":1406,"x_min":39,"x_max":1367,"o":"m 588 857 l 393 857 l 393 494 l 235 494 l 235 857 l 39 857 l 39 992 l 588 992 l 588 857 m 1367 494 l 1207 494 l 1207 833 l 1199 833 l 1075 494 l 949 494 l 822 839 l 814 839 l 814 494 l 664 494 l 664 992 l 915 992 l 1008 704 l 1017 704 l 1108 992 l 1367 992 l 1367 494 z "},"Ω":{"ha":1508,"x_min":53,"x_max":1456,"o":"m 53 181 l 383 181 l 383 189 q 153 302 243 211 q 64 551 64 393 q 148 808 64 701 q 388 969 232 914 q 754 1024 543 1024 q 1121 969 965 1024 q 1360 808 1276 914 q 1444 551 1444 701 q 1355 302 1444 393 q 1125 189 1265 211 l 1125 181 l 1456 181 l 1456 0 l 829 0 l 829 249 q 1023 338 949 265 q 1097 518 1097 410 q 1005 703 1097 636 q 754 769 913 769 q 503 703 594 769 q 411 518 411 636 q 485 338 411 410 q 679 249 560 265 l 679 0 l 53 0 l 53 181 z "},"∂":{"ha":1210,"x_min":46,"x_max":1164,"o":"m 549 1039 q 1164 500 1164 1039 q 1011 91 1164 214 q 568 -32 858 -32 q 194 51 343 -32 q 46 307 46 135 q 192 585 46 503 q 550 667 338 667 q 821 619 717 667 q 715 774 793 732 q 518 815 638 815 q 353 794 436 815 q 203 735 271 774 l 115 942 q 308 1013 196 988 q 549 1039 419 1039 m 564 178 q 749 233 686 178 q 828 404 813 288 q 735 444 790 431 q 618 457 681 457 q 434 422 497 457 q 371 308 371 388 q 425 210 371 243 q 564 178 479 178 z "},"∅":{"ha":1181,"x_min":82,"x_max":1096,"o":"m 938 864 q 1054 698 1013 793 q 1096 496 1096 603 q 1028 242 1096 358 q 843 57 960 125 q 589 -11 726 -11 q 331 60 449 -11 l 278 -11 l 136 -11 l 240 128 q 124 294 165 199 q 82 496 82 389 q 150 750 82 633 q 335 935 218 867 q 589 1003 451 1003 q 849 932 726 1003 l 901 1003 l 1043 1003 l 938 864 m 211 496 q 238 349 211 418 q 315 225 265 279 l 776 836 q 589 888 690 888 q 399 835 486 888 q 262 692 313 782 q 211 496 211 603 m 589 104 q 778 157 692 104 q 916 299 865 210 q 967 496 967 389 q 940 642 967 572 q 864 765 913 711 l 403 154 q 589 104 488 104 z "},"∆":{"ha":1419,"x_min":3,"x_max":1417,"o":"m 1417 0 l 3 0 l 504 992 l 919 992 l 1417 0 m 963 215 l 714 731 l 704 731 l 457 215 l 963 215 z "},"∏":{"ha":1385,"x_min":81,"x_max":1304,"o":"m 988 -206 l 988 728 l 397 728 l 397 -206 l 81 -206 l 81 992 l 1304 992 l 1304 -206 l 988 -206 z "},"∑":{"ha":1244,"x_min":81,"x_max":1183,"o":"m 1183 -206 l 81 -206 l 81 17 l 538 394 l 107 772 l 107 992 l 1154 992 l 1154 733 l 572 733 l 940 413 l 504 53 l 1183 53 l 1183 -206 z "},"−":{"ha":904,"x_min":85,"x_max":818,"o":"m 818 354 l 85 354 l 85 551 l 818 551 l 818 354 z "},"∙":{"ha":501,"x_min":85,"x_max":417,"o":"m 251 278 q 134 327 183 278 q 85 444 85 376 q 134 563 85 514 q 251 611 183 611 q 368 563 319 611 q 417 444 417 514 q 368 326 417 375 q 251 278 319 278 z "},"√":{"ha":974,"x_min":39,"x_max":935,"o":"m 569 -206 l 360 -206 l 188 261 l 81 217 l 39 300 l 308 411 l 476 -39 l 479 -39 l 793 972 l 935 972 l 569 -206 z "},"∞":{"ha":1192,"x_min":85,"x_max":1106,"o":"m 840 694 q 1033 620 961 694 q 1106 426 1106 546 q 1034 226 1106 299 q 840 153 963 153 q 586 285 696 153 q 473 189 532 225 q 344 153 414 153 q 154 226 224 153 q 85 426 85 299 q 156 620 85 546 q 344 694 226 694 q 599 563 489 694 q 710 659 653 624 q 840 694 768 694 m 347 297 q 431 324 396 297 q 504 408 467 351 q 426 519 460 486 q 347 551 393 551 q 271 516 297 551 q 244 426 244 481 q 272 334 244 371 q 347 297 299 297 m 838 297 q 916 334 888 297 q 944 426 944 371 q 917 516 944 481 q 838 551 890 551 q 753 524 789 551 q 681 440 717 497 q 758 331 724 364 q 838 297 792 297 z "},"∫":{"ha":760,"x_min":24,"x_max":735,"o":"m 588 1046 q 684 1041 644 1046 q 735 1036 724 1036 l 735 844 q 656 849 681 849 q 580 841 606 849 q 544 815 554 833 q 535 758 535 796 l 535 -14 q 444 -203 535 -150 q 171 -257 354 -257 q 74 -252 113 -257 q 24 -247 35 -247 l 24 -56 q 101 -60 78 -60 q 178 -52 153 -60 q 214 -25 204 -44 q 224 31 224 -6 l 224 804 q 313 993 224 940 q 588 1046 403 1046 z "},"≈":{"ha":904,"x_min":85,"x_max":818,"o":"m 644 622 q 722 651 681 622 q 818 740 763 679 l 818 536 q 644 440 733 440 q 567 452 600 440 q 493 483 533 464 l 393 533 q 324 565 351 554 q 258 575 296 575 q 182 547 222 575 q 85 457 142 518 l 85 661 q 258 756 171 756 q 338 744 303 756 q 410 714 372 732 l 510 664 q 579 633 551 643 q 644 622 607 622 m 644 326 q 722 355 681 326 q 818 444 763 383 l 818 240 q 738 171 779 197 q 644 144 696 144 q 567 156 600 144 q 493 188 533 168 l 393 238 q 324 269 351 258 q 258 279 296 279 q 182 251 222 279 q 85 163 142 224 l 85 365 q 258 461 169 461 q 336 449 303 461 q 410 418 369 438 l 510 368 q 579 337 551 347 q 644 326 607 326 z "},"≠":{"ha":904,"x_min":85,"x_max":818,"o":"m 586 508 l 514 394 l 818 394 l 818 199 l 388 199 l 308 76 l 113 76 l 192 199 l 85 199 l 85 394 l 318 394 l 390 508 l 85 508 l 85 704 l 517 704 l 596 826 l 792 826 l 713 704 l 818 704 l 818 508 l 586 508 z "},"≤":{"ha":904,"x_min":86,"x_max":819,"o":"m 88 436 l 818 211 l 818 389 l 406 513 l 406 521 l 818 646 l 818 822 l 88 599 l 88 436 m 86 168 l 86 0 l 819 0 l 819 168 l 86 168 z "},"≥":{"ha":904,"x_min":85,"x_max":818,"o":"m 817 436 l 86 211 l 86 389 l 499 513 l 499 521 l 86 646 l 86 822 l 817 599 l 817 436 m 818 168 l 818 0 l 85 0 l 85 168 l 818 168 z "},"◊":{"ha":1074,"x_min":81,"x_max":993,"o":"m 993 497 l 624 -42 l 450 -42 l 81 497 l 450 1036 l 624 1036 l 993 497 m 799 497 l 539 897 l 276 497 l 539 99 l 799 497 z "},"ﬁ":{"ha":1192,"x_min":22,"x_max":1125,"o":"m 642 847 q 516 831 551 847 q 481 769 481 814 l 482 750 l 719 750 l 719 569 l 482 569 l 482 0 l 171 0 l 171 569 l 22 569 l 22 750 l 171 750 l 171 801 q 269 992 171 939 q 574 1044 368 1044 q 738 1035 676 1044 l 738 843 q 642 847 667 847 m 811 750 l 1122 750 l 1122 0 l 811 0 l 811 750 m 808 1011 l 1125 1011 l 1125 839 l 808 839 l 808 1011 z "},"ﬂ":{"ha":1219,"x_min":22,"x_max":1150,"o":"m 642 847 q 516 831 551 847 q 481 769 481 814 l 482 750 l 719 750 l 719 569 l 482 569 l 482 0 l 171 0 l 171 569 l 22 569 l 22 750 l 171 750 l 171 801 q 269 992 171 939 q 574 1044 368 1044 q 738 1035 676 1044 l 738 843 q 642 847 667 847 m 839 1006 l 1150 1006 l 1150 0 l 839 0 l 839 1006 z "}}}
